<svg version="1.1" id="Слой_1" xmlns="http://www.w3.org/2000/svg" x="0" y="0" viewBox="0 0 715.8 1671.6" xml:space="preserve"><style>.st0{display:none;fill:#fff}</style><path id="_x33_" class="st0" d="M92.2 1612.8h-3.4l-5.2-7.2v7.2h-3v-14.3h3v6.9l5.1-6.9h3.2l-5.2 6.9 5.5 7.4zm0-11h3.3l2.1 6.1c.2.5.3 1.2.4 1.9h.1c.1-.7.2-1.3.4-1.9l2-6.1h3.2l-4.6 12.3c-.4 1.1-1 2-1.8 2.6-.8.6-1.7.8-2.7.8-.5 0-1-.1-1.5-.2v-2.4c.4.1.7.1 1.2.1s1-.2 1.4-.5c.4-.3.7-.8.9-1.5l.2-.5-4.6-10.7zm19.7 8.8v-6.5h-2.2c-.2 1.2-.4 2.4-.7 3.5-.3 1.1-.7 2.1-1.2 3h4.1zm4.6 6.1h-2.7v-3.9h-7.3v3.9h-2.7v-6.1h.9c.6-1 1.1-2.2 1.6-3.7.4-1.5.7-3.2.9-5.1h7.7v8.7h1.6v6.2zm8.8-3.9l-.6-1.5h-.1c-.5.6-1 1.1-1.6 1.3-.5.2-1.2.4-2.1.4-1 0-1.9-.3-2.5-.9-.6-.6-.9-1.5-.9-2.6 0-1.2.4-2 1.2-2.6.8-.6 2-.9 3.7-.9l1.9-.1v-.5c0-1.1-.6-1.7-1.7-1.7-.9 0-1.9.3-3.1.8l-1-2c1.3-.7 2.6-1 4.2-1 1.5 0 2.6.3 3.4 1 .8.6 1.2 1.6 1.2 2.9v7.3h-2zm-.9-5.1h-1.2c-.9 0-1.5.2-1.9.5-.4.3-.6.7-.6 1.3 0 .8.5 1.3 1.4 1.3.7 0 1.2-.2 1.7-.6.4-.4.6-.9.6-1.6v-.9zm13.6-.4c0 1.1.2 1.9.5 2.4.4.6.9.8 1.7.8.8 0 1.4-.3 1.7-.8.4-.5.5-1.4.5-2.5s-.2-1.9-.5-2.4c-.4-.5-.9-.8-1.7-.8-.8 0-1.4.3-1.7.8-.3.6-.5 1.4-.5 2.5zm7.6 0c0 1.8-.5 3.2-1.4 4.2-.9 1-2.2 1.5-3.9 1.5-1 0-2-.2-2.8-.7-.8-.5-1.4-1.1-1.8-2-.4-.9-.6-1.9-.6-3 0-1.8.5-3.2 1.4-4.2s2.2-1.5 3.9-1.5c1 0 2 .2 2.8.7.8.5 1.4 1.1 1.8 2 .4.8.6 1.8.6 3zm1.8-1.1c0-2.5.5-4.4 1.4-5.7 1-1.3 2.4-2.1 4.5-2.5 1-.2 2.5-.4 4.4-.6l.3 2.6c-.8.1-2.3.3-4.5.6-.8.1-1.4.3-1.8.6-.4.3-.7.6-.9 1.1-.2.5-.3 1.1-.4 1.9h.1c.3-.5.8-.9 1.4-1.2.6-.3 1.2-.4 1.8-.4 1.3 0 2.4.4 3.1 1.2.7.8 1.1 2 1.1 3.5 0 1.8-.5 3.2-1.4 4.1-.9 1-2.2 1.5-3.9 1.5-1.7 0-3-.6-3.9-1.8-.8-1.1-1.3-2.8-1.3-4.9zm5.5 4.3c1.4 0 2.1-1 2.1-2.9s-.6-2.8-1.9-2.8c-.4 0-.7.1-1.1.3-.3.2-.7.4-1 .6-.3.3-.5.5-.6.8 0 1.3.2 2.3.6 3 .5.7 1.1 1 1.9 1zm13.6 2.5c-1.3 0-2.3-.5-3-1.4h-.2c.1.9.2 1.4.2 1.6v4.4h-3v-15.7h2.4l.4 1.4h.1c.7-1.1 1.7-1.6 3.1-1.6 1.3 0 2.3.5 3 1.5.7 1 1.1 2.4 1.1 4.2 0 1.2-.2 2.2-.5 3-.3.9-.8 1.5-1.5 2-.5.3-1.3.6-2.1.6zm-.9-9c-.7 0-1.3.2-1.6.7-.3.5-.5 1.2-.5 2.2v.3c0 1.2.2 2 .5 2.5.4.5.9.8 1.7.8 1.3 0 2-1.1 2-3.3 0-1.1-.2-1.9-.5-2.4-.4-.5-.9-.8-1.6-.8zm14.5 8.8l-.6-1.5h-.1c-.5.6-1 1.1-1.6 1.3-.5.2-1.2.4-2.1.4-1 0-1.9-.3-2.5-.9-.6-.6-.9-1.5-.9-2.6 0-1.2.4-2 1.2-2.6.8-.6 2-.9 3.7-.9l1.9-.1v-.5c0-1.1-.6-1.7-1.7-1.7-.9 0-1.9.3-3.1.8l-1-2c1.3-.7 2.6-1 4.2-1 1.5 0 2.6.3 3.4 1 .8.6 1.2 1.6 1.2 2.9v7.3h-2zm-.9-5.1H178c-.9 0-1.5.2-1.9.5-.4.3-.6.7-.6 1.3 0 .8.5 1.3 1.4 1.3.7 0 1.2-.2 1.7-.6.4-.4.6-.9.6-1.6v-.9zm22.3 2.9h1.6v6.1h-2.7v-3.9h-15.2v-10.9h3v8.7h3.7v-8.7h3v8.7h3.7v-8.7h3v8.7zm10.4 2.2l-.6-1.5h-.1c-.5.6-1 1.1-1.6 1.3-.5.2-1.2.4-2.1.4-1 0-1.9-.3-2.5-.9-.6-.6-.9-1.5-.9-2.6 0-1.2.4-2 1.2-2.6.8-.6 2-.9 3.7-.9l1.9-.1v-.5c0-1.1-.6-1.7-1.7-1.7-.9 0-1.9.3-3.1.8l-1-2c1.3-.7 2.6-1 4.2-1 1.5 0 2.6.3 3.4 1 .8.6 1.2 1.6 1.2 2.9v7.3h-2zm-.9-5.1h-1.2c-.9 0-1.5.2-1.9.5-.4.3-.6.7-.6 1.3 0 .8.5 1.3 1.4 1.3.7 0 1.2-.2 1.7-.6.4-.4.6-.9.6-1.6v-.9zm15.1-5.9v2.2h-3.6v8.7h-3v-8.7h-3.6v-2.2h10.2zm5 4.3h2.1c1.7 0 2.9.3 3.7.8.8.5 1.2 1.3 1.2 2.4 0 2.3-1.6 3.5-4.8 3.5h-5.2v-10.9h3v4.2zm4.1 3.2c0-.4-.2-.7-.5-.9-.3-.2-.8-.3-1.5-.3h-2v2.6h2.1c1.2 0 1.9-.5 1.9-1.4zm9.6 3.7c-3.4 0-5.1-1.9-5.1-5.6 0-1.9.5-3.3 1.4-4.3.9-1 2.2-1.5 4-1.5 1.3 0 2.4.2 3.4.7l-.9 2.3c-.5-.2-.9-.3-1.3-.5-.4-.1-.8-.2-1.2-.2-1.5 0-2.3 1.1-2.3 3.3 0 2.1.8 3.2 2.3 3.2.6 0 1.1-.1 1.6-.2.5-.2 1-.4 1.5-.7v2.5c-.5.3-1 .5-1.5.6-.5.3-1.1.4-1.9.4zm7.6-.2h-3.2l2.9-4.3c-.7-.3-1.2-.7-1.6-1.3-.4-.6-.5-1.2-.5-2 0-1 .4-1.9 1.2-2.5.8-.6 1.9-.9 3.2-.9h5.1v10.9h-3v-4.1h-1.6l-2.5 4.2zm.5-7.6c0 .5.2.8.5 1.1.4.3.8.4 1.4.4h1.7v-2.8h-2c-.5 0-.9.1-1.2.4-.3.2-.4.5-.4.9zm-178.5 23.6v10.9h-3v-8.7h-4v8.7h-3v-10.9h10zm9.1 11.2c-1.3 0-2.3-.5-3-1.4h-.2c.1.9.2 1.4.2 1.6v4.4h-3v-15.7h2.4l.4 1.4h.1c.7-1.1 1.7-1.6 3.1-1.6 1.3 0 2.3.5 3 1.5.7 1 1.1 2.4 1.1 4.2 0 1.2-.2 2.2-.5 3-.3.9-.8 1.5-1.5 2-.5.3-1.3.6-2.1.6zm-.9-9c-.7 0-1.3.2-1.6.7-.3.5-.5 1.2-.5 2.2v.3c0 1.2.2 2 .5 2.5.4.5.9.8 1.7.8 1.3 0 2-1.1 2-3.3 0-1.1-.2-1.9-.5-2.4-.4-.5-.9-.8-1.6-.8zm10.4-2.2v4.3c0 .4-.1 1.6-.2 3.3l5-7.7h3.6v10.9h-2.9v-4.4c0-.8.1-1.9.2-3.3l-5 7.6h-3.6v-10.9H93zm26.8 2.9c0 .6-.2 1.1-.6 1.5-.4.4-.9.7-1.6.8v.1c.8.1 1.4.4 1.8.8.5.4.7 1 .7 1.6 0 1.1-.4 1.9-1.3 2.4-.8.5-2 .8-3.6.8h-5.6v-10.9h5.6c1.5 0 2.6.3 3.4.7.9.6 1.2 1.3 1.2 2.2zm-2.7 4.6c0-.4-.2-.7-.5-.9-.3-.2-.8-.3-1.5-.3h-2.4v2.6h2.4c.6 0 1.1-.1 1.4-.3.4-.3.6-.6.6-1.1zm-.3-4.4c0-.7-.5-1-1.6-1h-2.5v2.2h2.2c.6 0 1.1-.1 1.4-.3.4-.2.5-.5.5-.9zm8.1 2.4c0 1.1.2 1.9.5 2.4.4.6.9.8 1.7.8.8 0 1.4-.3 1.7-.8.4-.5.5-1.4.5-2.5s-.2-1.9-.5-2.4c-.4-.5-.9-.8-1.7-.8-.8 0-1.4.3-1.7.8-.3.6-.5 1.4-.5 2.5zm7.6 0c0 1.8-.5 3.2-1.4 4.2-.9 1-2.2 1.5-3.9 1.5-1 0-2-.2-2.8-.7-.8-.5-1.4-1.1-1.8-2s-.6-1.9-.6-3c0-1.8.5-3.2 1.4-4.2s2.2-1.5 3.9-1.5c1 0 2 .2 2.8.7.8.5 1.4 1.1 1.8 2 .4.8.6 1.8.6 3zm5.1-1.3c1.1 0 1.9-.1 2.4-.3.5-.2.7-.5.7-.9 0-.3-.2-.6-.5-.8-.3-.2-.9-.3-1.7-.3-.5 0-1.1.1-1.7.2-.6.1-1.2.3-1.7.5l-.9-2.1c.8-.3 1.5-.5 2.3-.6.7-.1 1.5-.2 2.4-.2 1.4 0 2.5.3 3.3.8.8.5 1.2 1.2 1.2 2.1 0 1.2-.7 2-2.2 2.4v.1c.9.2 1.5.5 1.9.9.4.4.6.9.6 1.6 0 .7-.2 1.3-.6 1.8-.4.5-1.1.9-1.9 1.2s-1.8.4-2.9.4c-1.8 0-3.2-.2-4.2-.7v-2.5c.6.3 1.2.5 1.8.6.7.1 1.3.2 1.9.2 1 0 1.7-.1 2.2-.3.5-.2.7-.5.7-.9s-.3-.8-.8-1c-.5-.2-1.3-.3-2.3-.3h-1.2v-2.1h1.2zm11.4-4.2v4.2h4.2v-4.2h3v10.9h-3v-4.5H149v4.5h-3v-10.9h3zm13.2 0v4.3c0 .4-.1 1.6-.2 3.3l5-7.7h3.6v10.9h-2.9v-4.4c0-.8.1-1.9.2-3.3l-5 7.6h-3.6v-10.9h2.9zm18.7 0h3.3l-4.3 5.2 4.7 5.7h-3.4l-4.5-5.5v5.5h-3v-10.9h3v5.3l4.2-5.3zm8.2 0v4.2h4.2v-4.2h3v10.9h-3v-4.5h-4.2v4.5h-3v-10.9h3zm12.6 5.5c0 1.1.2 1.9.5 2.4.4.6.9.8 1.7.8.8 0 1.4-.3 1.7-.8.4-.5.5-1.4.5-2.5s-.2-1.9-.5-2.4c-.4-.5-.9-.8-1.7-.8-.8 0-1.4.3-1.7.8-.3.6-.5 1.4-.5 2.5zm7.6 0c0 1.8-.5 3.2-1.4 4.2-.9 1-2.2 1.5-3.9 1.5-1 0-2-.2-2.8-.7-.8-.5-1.4-1.1-1.8-2-.4-.9-.6-1.9-.6-3 0-1.8.5-3.2 1.4-4.2s2.2-1.5 3.9-1.5c1 0 2 .2 2.8.7.8.5 1.4 1.1 1.8 2 .3.8.6 1.8.6 3zm12.5-2.6c0 .6-.2 1.1-.6 1.5-.4.4-.9.7-1.6.8v.1c.8.1 1.4.4 1.8.8.5.4.7 1 .7 1.6 0 1.1-.4 1.9-1.3 2.4-.8.5-2 .8-3.6.8h-5.6v-10.9h5.6c1.5 0 2.6.3 3.4.7.8.6 1.2 1.3 1.2 2.2zm-2.8 4.6c0-.4-.2-.7-.5-.9-.3-.2-.8-.3-1.5-.3h-2.4v2.6h2.4c.6 0 1.1-.1 1.4-.3.5-.3.6-.6.6-1.1zm-.2-4.4c0-.7-.5-1-1.6-1h-2.5v2.2h2.2c.6 0 1.1-.1 1.4-.3.3-.2.5-.5.5-.9zm10.2-1.1c-.6 0-1.1.2-1.5.6s-.6 1-.6 1.7h4.2c0-.7-.2-1.3-.6-1.7s-.8-.6-1.5-.6zm.4 9.2c-1.8 0-3.1-.5-4.1-1.5-1-1-1.5-2.3-1.5-4.1 0-1.8.5-3.2 1.4-4.2.9-1 2.2-1.5 3.8-1.5 1.5 0 2.7.4 3.6 1.3.9.9 1.3 2.1 1.3 3.6v1.4h-7c0 .8.3 1.5.8 2s1.1.7 2 .7c.7 0 1.3-.1 1.9-.2.6-.1 1.2-.3 1.8-.7v2.3c-.5.3-1.1.5-1.7.6-.7.2-1.4.3-2.3.3zm9.9-11.2v4.2h4.2v-4.2h3v10.9h-3v-4.5h-4.2v4.5h-3v-10.9h3zm13.1 0v4.3c0 .4-.1 1.6-.2 3.3l5-7.7h3.6v10.9H258v-4.4c0-.8.1-1.9.2-3.3l-5 7.6h-3.6v-10.9h2.8zm14.5 0v4.3c0 .4-.1 1.6-.2 3.3l5-7.7h3.6v10.9h-2.9v-4.4c0-.8.1-1.9.2-3.3l-5 7.6H264v-10.9h2.9zm-129 27v10.9h-3v-8.7h-4v8.7h-3v-10.9h10zm9.1 11.2c-1.3 0-2.3-.5-3-1.4h-.2c.1.9.2 1.4.2 1.6v4.4h-3v-15.7h2.4l.4 1.4h.1c.7-1.1 1.7-1.6 3.1-1.6 1.3 0 2.3.5 3 1.5.7 1 1.1 2.4 1.1 4.2 0 1.2-.2 2.2-.5 3-.3.9-.8 1.5-1.5 2-.5.3-1.3.6-2.1.6zm-.9-9c-.7 0-1.3.2-1.6.7-.3.5-.5 1.2-.5 2.2v.3c0 1.2.2 2 .5 2.5.4.5.9.8 1.7.8 1.3 0 2-1.1 2-3.3 0-1.1-.2-1.9-.5-2.4-.4-.5-.9-.8-1.6-.8zm9.9 3.3c0 1.1.2 1.9.5 2.4.4.6.9.8 1.7.8.8 0 1.4-.3 1.7-.8.4-.5.5-1.4.5-2.5s-.2-1.9-.5-2.4c-.4-.5-.9-.8-1.7-.8-.8 0-1.4.3-1.7.8-.3.6-.5 1.4-.5 2.5zm7.6 0c0 1.8-.5 3.2-1.4 4.2-.9 1-2.2 1.5-3.9 1.5-1 0-2-.2-2.8-.7-.8-.5-1.4-1.1-1.8-2-.4-.9-.6-1.9-.6-3 0-1.8.5-3.2 1.4-4.2s2.2-1.5 3.9-1.5c1 0 2 .2 2.8.7.8.5 1.4 1.1 1.8 2 .4.8.6 1.8.6 3zm1.8-1.1c0-2.5.5-4.4 1.4-5.7 1-1.3 2.4-2.1 4.5-2.5 1-.2 2.5-.4 4.4-.6l.3 2.6c-.8.1-2.3.3-4.5.6-.8.1-1.4.3-1.8.6-.4.3-.7.6-.9 1.1-.2.5-.3 1.1-.4 1.9h.1c.3-.5.8-.9 1.4-1.2.6-.3 1.2-.4 1.8-.4 1.3 0 2.4.4 3.1 1.2.7.8 1.1 2 1.1 3.5 0 1.8-.5 3.2-1.4 4.1-.9 1-2.2 1.5-3.9 1.5-1.7 0-3-.6-3.9-1.8-.9-1.1-1.3-2.8-1.3-4.9zm5.4 4.3c1.4 0 2.1-1 2.1-2.9s-.6-2.8-1.9-2.8c-.4 0-.7.1-1.1.3-.3.2-.7.4-1 .6-.3.3-.5.5-.6.8 0 1.3.2 2.3.6 3 .6.7 1.2 1 1.9 1zm17.4 2.3h-3v-8.7h-2.7c-.2 2.4-.5 4.3-.8 5.5-.3 1.2-.7 2.1-1.2 2.6s-1.1.8-2 .8c-.7 0-1.3-.1-1.7-.3v-2.4c.3.1.6.2 1 .2s.7-.3.9-.8c.3-.5.5-1.4.7-2.7.2-1.3.4-3 .5-5.2h8.3v11zm7.7-9c-.6 0-1.1.2-1.5.6s-.6 1-.6 1.7h4.2c0-.7-.2-1.3-.6-1.7s-.9-.6-1.5-.6zm.4 9.2c-1.8 0-3.1-.5-4.1-1.5-1-1-1.5-2.3-1.5-4.1 0-1.8.5-3.2 1.4-4.2.9-1 2.2-1.5 3.8-1.5 1.5 0 2.7.4 3.6 1.3.9.9 1.3 2.1 1.3 3.6v1.4h-7c0 .8.3 1.5.8 2s1.1.7 2 .7c.7 0 1.3-.1 1.9-.2.6-.1 1.2-.3 1.8-.7v2.3c-.5.3-1.1.5-1.7.6-.7.2-1.4.3-2.3.3zm20.7-.2h-2.8v-8.6l-.2.6c-.4 1.4-.7 2.4-.9 3.1l-1.9 4.9H209l-2-4.9c-.3-.7-.6-1.7-.9-3l-.2-.7v8.6h-2.8v-10.9h4.1l1.9 4.7c.2.5.4 1.1.5 1.7.2.7.3 1.2.3 1.7.2-1 .4-1.7.5-2.1.1-.4.3-.8.4-1.2s.8-1.9 1.9-4.8h4.1v10.9z"/><path id="_x32_" class="st0" d="M424.4 1149.5l-4.4 10.1c-.6 1.3-1.1 2.2-1.6 2.7-.5.6-1.1 1-1.7 1.2s-1.5.4-2.4.4c-.8 0-1.6-.1-2.3-.3v-2.6c.6.2 1.3.4 2.1.4.5 0 1-.1 1.3-.4.3-.3.6-.7.8-1.3l-4.9-10.3h3.2l3.5 8h.1l.2-.5 2.9-7.5h3.2zm11.5 3.3v10.9h-3v-8.7h-4v8.7h-3v-10.9h10zm9.1 11.2c-1.3 0-2.3-.5-3-1.4h-.2c.1.9.2 1.4.2 1.6v4.4h-3v-15.7h2.4l.4 1.4h.1c.7-1.1 1.7-1.6 3.1-1.6 1.3 0 2.3.5 3 1.5.7 1 1.1 2.4 1.1 4.2 0 1.2-.2 2.2-.5 3-.3.9-.8 1.5-1.5 2-.5.3-1.2.6-2.1.6zm-.9-9c-.7 0-1.3.2-1.6.7-.3.5-.5 1.2-.5 2.2v.3c0 1.2.2 2 .5 2.5.4.5.9.8 1.7.8 1.3 0 2-1.1 2-3.3 0-1.1-.2-1.9-.5-2.4-.4-.5-.9-.8-1.6-.8zm14.5 8.8l-.6-1.5h-.1c-.5.6-1 1.1-1.6 1.3-.5.2-1.2.4-2.1.4-1 0-1.9-.3-2.5-.9-.6-.6-.9-1.5-.9-2.6 0-1.2.4-2 1.2-2.6.8-.6 2-.9 3.7-.9l1.9-.1v-.5c0-1.1-.6-1.7-1.7-1.7-.9 0-1.9.3-3.1.8l-1-2c1.3-.7 2.6-1 4.2-1 1.5 0 2.6.3 3.4 1 .8.6 1.2 1.6 1.2 2.9v7.3h-2zm-.9-5.1h-1.2c-.9 0-1.5.2-1.9.5-.4.3-.6.7-.6 1.3 0 .8.5 1.3 1.4 1.3.7 0 1.2-.2 1.7-.6.4-.4.6-.9.6-1.6v-.9zm16.1-3c0 .6-.2 1.1-.6 1.5-.4.4-.9.7-1.6.8v.1c.8.1 1.4.4 1.8.8.5.4.7 1 .7 1.6 0 1.1-.4 1.9-1.3 2.4-.8.5-2 .8-3.6.8h-5.6v-10.9h5.6c1.5 0 2.6.3 3.4.7.9.6 1.2 1.3 1.2 2.2zm-2.7 4.6c0-.4-.2-.7-.5-.9-.3-.2-.8-.3-1.5-.3h-2.4v2.6h2.4c.6 0 1.1-.1 1.4-.3.4-.3.6-.6.6-1.1zm-.3-4.4c0-.7-.5-1-1.6-1h-2.5v2.2h2.2c.6 0 1.1-.1 1.4-.3.4-.2.5-.5.5-.9zm15.5 7.9h-3v-8.7h-2.7c-.2 2.4-.5 4.3-.8 5.5-.3 1.2-.7 2.1-1.2 2.6s-1.1.8-2 .8c-.7 0-1.3-.1-1.7-.3v-2.4c.3.1.6.2 1 .2s.7-.3.9-.8c.3-.5.5-1.4.7-2.7.2-1.3.4-3 .5-5.2h8.3v11zm7.7-9c-.6 0-1.1.2-1.5.6s-.6 1-.6 1.7h4.2c0-.7-.2-1.3-.6-1.7s-.9-.6-1.5-.6zm.4 9.2c-1.8 0-3.1-.5-4.1-1.5-1-1-1.5-2.3-1.5-4.1 0-1.8.5-3.2 1.4-4.2.9-1 2.2-1.5 3.8-1.5 1.5 0 2.7.4 3.6 1.3.9.9 1.3 2.1 1.3 3.6v1.4h-7c0 .8.3 1.5.8 2s1.1.7 2 .7c.7 0 1.3-.1 1.9-.2.6-.1 1.2-.3 1.8-.7v2.3c-.5.3-1.1.5-1.7.6-.7.2-1.4.3-2.3.3zm9.9-11.2v4.2h4.2v-4.2h3v10.9h-3v-4.5h-4.2v4.5h-3v-10.9h3zm13.1 0v4.3c0 .4-.1 1.6-.2 3.3l5-7.7h3.6v10.9h-2.9v-4.4c0-.8.1-1.9.2-3.3l-5 7.6h-3.6v-10.9h2.9zm16.1 2c-.6 0-1.1.2-1.5.6-.4.4-.6 1-.6 1.7h4.2c0-.7-.2-1.3-.6-1.7-.4-.4-.9-.6-1.5-.6zm.4 9.2c-1.8 0-3.1-.5-4.1-1.5-1-1-1.5-2.3-1.5-4.1 0-1.8.5-3.2 1.4-4.2.9-1 2.2-1.5 3.8-1.5 1.5 0 2.7.4 3.6 1.3.9.9 1.3 2.1 1.3 3.6v1.4h-7c0 .8.3 1.5.8 2s1.1.7 2 .7c.7 0 1.3-.1 1.9-.2.6-.1 1.2-.3 1.8-.7v2.3c-.5.3-1.1.5-1.7.6-.8.2-1.5.3-2.3.3zm16.5 0c-3.4 0-5.1-1.9-5.1-5.6 0-1.9.5-3.3 1.4-4.3.9-1 2.2-1.5 4-1.5 1.3 0 2.4.2 3.4.7l-.9 2.3c-.5-.2-.9-.3-1.3-.5-.4-.1-.8-.2-1.2-.2-1.5 0-2.3 1.1-2.3 3.3 0 2.1.8 3.2 2.3 3.2.6 0 1.1-.1 1.6-.2.5-.2 1-.4 1.5-.7v2.5c-.5.3-1 .5-1.5.6-.6.3-1.2.4-1.9.4zm15.9-8.3c0 .6-.2 1.1-.6 1.5-.4.4-.9.7-1.6.8v.1c.8.1 1.4.4 1.8.8.5.4.7 1 .7 1.6 0 1.1-.4 1.9-1.3 2.4-.8.5-2 .8-3.6.8h-5.6v-10.9h5.6c1.5 0 2.6.3 3.4.7.8.6 1.2 1.3 1.2 2.2zm-2.7 4.6c0-.4-.2-.7-.5-.9-.3-.2-.8-.3-1.5-.3h-2.4v2.6h2.4c.6 0 1.1-.1 1.4-.3.4-.3.6-.6.6-1.1zm-.3-4.4c0-.7-.5-1-1.6-1h-2.5v2.2h2.2c.6 0 1.1-.1 1.4-.3.3-.2.5-.5.5-.9zm8.1 2.4c0 1.1.2 1.9.5 2.4.4.6.9.8 1.7.8.8 0 1.4-.3 1.7-.8.4-.5.5-1.4.5-2.5s-.2-1.9-.5-2.4c-.4-.5-.9-.8-1.7-.8-.8 0-1.4.3-1.7.8-.3.6-.5 1.4-.5 2.5zm7.6 0c0 1.8-.5 3.2-1.4 4.2-.9 1-2.2 1.5-3.9 1.5-1 0-2-.2-2.8-.7-.8-.5-1.4-1.1-1.8-2-.4-.9-.6-1.9-.6-3 0-1.8.5-3.2 1.4-4.2.9-1 2.2-1.5 3.9-1.5 1 0 2 .2 2.8.7.8.5 1.4 1.1 1.8 2 .3.8.6 1.8.6 3zm5.3-5.5v4.3c0 .4-.1 1.6-.2 3.3l5-7.7h3.6v10.9h-2.9v-4.4c0-.8.1-1.9.2-3.3l-5 7.6h-3.6v-10.9h2.9zm25.3 11h-2.8v-8.6l-.2.6c-.4 1.4-.7 2.4-.9 3.1l-1.9 4.9h-2.1l-2-4.9c-.3-.7-.6-1.7-.9-3l-.2-.7v8.6h-2.8v-10.9h4.1l1.9 4.7c.2.5.4 1.1.5 1.7.2.7.3 1.2.3 1.7.2-1 .4-1.7.5-2.1.1-.4.3-.8.4-1.2s.8-1.9 1.9-4.8h4.1v10.9zm6-11v4.3c0 .4-.1 1.6-.2 3.3l5-7.7h3.6v10.9h-2.9v-4.4c0-.8.1-1.9.2-3.3l-5 7.6h-3.6v-10.9h2.9zM474 1191c-1.3 0-2.3-.5-3-1.4h-.2c.1.9.2 1.4.2 1.6v4.4h-3v-15.7h2.4l.4 1.4h.1c.7-1.1 1.7-1.6 3.1-1.6 1.3 0 2.3.5 3 1.5.7 1 1.1 2.4 1.1 4.2 0 1.2-.2 2.2-.5 3-.3.9-.8 1.5-1.5 2-.5.3-1.3.6-2.1.6zm-.9-9c-.7 0-1.3.2-1.6.7-.3.5-.5 1.2-.5 2.2v.3c0 1.2.2 2 .5 2.5.4.5.9.8 1.7.8 1.3 0 2-1.1 2-3.3 0-1.1-.2-1.9-.5-2.4-.4-.5-.9-.8-1.6-.8zm14.5 8.8l-.6-1.5h-.1c-.5.6-1 1.1-1.6 1.3-.5.2-1.2.4-2.1.4-1 0-1.9-.3-2.5-.9-.6-.6-.9-1.5-.9-2.6 0-1.2.4-2 1.2-2.6.8-.6 2-.9 3.7-.9l1.9-.1v-.5c0-1.1-.6-1.7-1.7-1.7-.9 0-1.9.3-3.1.8l-1-2c1.3-.7 2.7-1 4.2-1s2.6.3 3.4 1c.8.6 1.2 1.6 1.2 2.9v7.3h-2zm-.9-5.1h-1.2c-.9 0-1.5.2-1.9.5-.4.3-.6.7-.6 1.3 0 .8.5 1.3 1.4 1.3.7 0 1.2-.2 1.7-.6.4-.4.6-.9.6-1.6v-.9zm5.4-1.5c0-2.5.5-4.4 1.4-5.7 1-1.3 2.4-2.1 4.5-2.5 1-.2 2.5-.4 4.4-.6l.3 2.6c-.8.1-2.3.3-4.5.6-.8.1-1.4.3-1.8.6-.4.3-.7.6-.9 1.1-.2.5-.3 1.1-.4 1.9h.1c.3-.5.8-.9 1.4-1.2.6-.3 1.2-.4 1.8-.4 1.3 0 2.4.4 3.1 1.2.7.8 1.1 2 1.1 3.5 0 1.8-.5 3.2-1.4 4.1-.9 1-2.3 1.5-3.9 1.5-1.7 0-3-.6-3.9-1.8-.9-1.1-1.3-2.8-1.3-4.9zm5.5 4.3c1.4 0 2.1-1 2.1-2.9s-.6-2.8-1.9-2.8c-.4 0-.7.1-1.1.3-.3.2-.7.4-1 .6-.3.3-.5.5-.6.8 0 1.3.2 2.3.6 3 .5.7 1.1 1 1.9 1zm10-3.2c0 1.1.2 1.9.5 2.4.4.6.9.8 1.7.8.8 0 1.4-.3 1.7-.8.4-.5.5-1.4.5-2.5s-.2-1.9-.5-2.4c-.4-.5-.9-.8-1.7-.8-.8 0-1.4.3-1.7.8-.4.6-.5 1.4-.5 2.5zm7.5 0c0 1.8-.5 3.2-1.4 4.2-.9 1-2.2 1.5-3.9 1.5-1 0-2-.2-2.8-.7-.8-.5-1.4-1.1-1.8-2-.4-.9-.6-1.9-.6-3 0-1.8.5-3.2 1.4-4.2s2.2-1.5 3.9-1.5c1 0 2 .2 2.8.7.8.5 1.4 1.1 1.8 2 .4.8.6 1.8.6 3zm11.5-5.5v2.2H523v8.7h-3v-8.7h-3.6v-2.2h10.2zm9 11l-.6-1.5h-.1c-.5.6-1 1.1-1.6 1.3-.5.2-1.2.4-2.1.4-1 0-1.9-.3-2.5-.9-.6-.6-.9-1.5-.9-2.6 0-1.2.4-2 1.2-2.6.8-.6 2-.9 3.7-.9l1.9-.1v-.5c0-1.1-.6-1.7-1.7-1.7-.9 0-1.9.3-3.1.8l-1-2c1.3-.7 2.6-1 4.2-1 1.5 0 2.6.3 3.4 1 .8.6 1.2 1.6 1.2 2.9v7.3h-2zm-.9-5.1h-1.2c-.9 0-1.5.2-1.9.5-.4.3-.6.7-.6 1.3 0 .8.5 1.3 1.4 1.3.7 0 1.2-.2 1.6-.6.4-.4.6-.9.6-1.6v-.9zm19.8 5.1h-2.8v-8.6l-.2.6c-.4 1.4-.7 2.4-.9 3.1l-1.9 4.9h-2.1l-2-4.9c-.3-.7-.6-1.7-.9-3l-.2-.7v8.6h-2.8v-10.9h4.1l1.9 4.7c.2.5.4 1.1.5 1.7.2.7.3 1.2.3 1.7.2-1 .4-1.7.5-2.1.1-.4.3-.8.4-1.2.1-.4.8-1.9 1.9-4.8h4.1v10.9zm6-11v4.3c0 .4-.1 1.6-.2 3.3l5-7.7h3.6v10.9H566v-4.4c0-.8.1-1.9.2-3.3l-5 7.6h-3.6v-10.9h2.9z"/><path id="_x31_" class="st0" d="M19.1 21.8h-4.5V4.1H6.7v17.6H2.1V.3H19v21.5zM41.4.3l-6.6 15.1c-.8 1.9-1.6 3.3-2.3 4.1-.7.8-1.6 1.5-2.6 1.9-1 .4-2.2.6-3.6.6-1.2 0-2.4-.1-3.4-.4v-3.9c.9.4 1.9.5 3.2.5.8 0 1.5-.2 2-.6.5-.4.9-1 1.2-2L21.8.3h4.8l5.3 11.9h.1l.3-.7L36.7.3h4.7zm11 21.5h-4.5V4.1H42V.3h16.2v3.8h-5.8v17.7zm21.4 0H61.5V.3h12.3V4H66v4.7h7.3v3.7H66V18h7.8v3.8zM78.3.3H85c3 0 5.2.4 6.6 1.3 1.4.9 2.1 2.2 2.1 4.1 0 1.3-.3 2.3-.9 3.1-.6.8-1.4 1.3-2.4 1.5v.1c1.4.3 2.3.9 2.9 1.7.6.8.9 1.9.9 3.3 0 2-.7 3.5-2.1 4.6-1.4 1.1-3.3 1.6-5.7 1.6h-8V.3zm4.5 8.5h2.6c1.2 0 2.1-.2 2.7-.6.6-.4.8-1 .8-1.9 0-.8-.3-1.4-.9-1.8-.6-.4-1.5-.5-2.8-.5h-2.4v4.8zm0 3.6V18h3c1.3 0 2.2-.2 2.8-.7s.9-1.2.9-2.2c0-1.8-1.3-2.7-3.8-2.7h-2.9zm35.1-1.4c0 3.5-.9 6.3-2.6 8.2-1.8 1.9-4.3 2.9-7.6 2.9s-5.8-1-7.6-2.9c-1.8-1.9-2.6-4.6-2.6-8.2s.9-6.3 2.6-8.2c1.8-1.9 4.3-2.8 7.6-2.8s5.8.9 7.5 2.8c1.8 1.9 2.7 4.7 2.7 8.2zm-15.6 0c0 2.4.5 4.2 1.4 5.4.9 1.2 2.3 1.8 4.1 1.8 3.6 0 5.4-2.4 5.4-7.2 0-4.8-1.8-7.2-5.4-7.2-1.8 0-3.2.6-4.1 1.8-1 1.2-1.4 3-1.4 5.4zm17.5 7h1.7c1.4-2.8 2.5-5.7 3.4-8.5.8-2.8 1.4-5.9 1.8-9.2h12.5V18h2.9v10h-4.4v-6.2h-13.4V28h-4.4V18zm10.4-13.9c-.3 2.2-.8 4.6-1.6 7.1-.7 2.5-1.5 4.8-2.4 6.8h8.4V4.1h-4.4zM145.3.3h4.1v10.3l-.1 2.8-.1 3.1h.1L159.2.2h5.4v21.4h-4V11.5c0-1.4.1-3.4.3-6.1h-.1l-9.9 16.4h-5.5V.3zm32.9 21.5h-4.5V4.1h-5.8V.3H184v3.8h-5.8v17.7zm21.5 0h-12.3V.3h12.3V4h-7.8v4.7h7.3v3.7h-7.3V18h7.8v3.8zm21.4 0h-4.5V4.1h-5.2l-.2 2c-.6 5-1.1 8.5-1.6 10.5s-1.1 3.4-2 4.2c-.9.8-2.1 1.2-3.6 1.2-.8 0-1.5-.1-2.2-.3V18c.6.2 1.1.3 1.6.3s.9-.2 1.2-.7c.3-.5.6-1.4.8-2.6.3-1.3.6-3.4 1.1-6.3.5-2.9.8-5.7 1.1-8.3h13.5v21.4zm20.5-6.7c0 4.5-3 6.7-8.8 6.7h-6.2V.3h4.5v8.2h1.8c2.8 0 5 .6 6.5 1.7 1.4 1.2 2.2 2.8 2.2 4.9zM231 18h1.5c1.5 0 2.7-.2 3.4-.7.7-.5 1.1-1.2 1.1-2.2 0-1-.4-1.7-1.1-2.1-.7-.4-2-.7-3.7-.7H231V18zM19.7 62.8h-4.5v-9.2H6.7v9.2H2.1V41.3h4.5v8.4h8.5v-8.4h4.5v21.5zM44.6 52c0 3.5-.9 6.3-2.6 8.2-1.8 1.9-4.3 2.9-7.6 2.9s-5.8-1-7.6-2.9c-1.8-1.9-2.6-4.6-2.6-8.2s.9-6.3 2.6-8.2c1.8-1.9 4.3-2.8 7.6-2.8s5.8.9 7.5 2.8c1.8 1.9 2.7 4.7 2.7 8.2zm-15.7 0c0 2.4.5 4.2 1.4 5.4.9 1.2 2.3 1.8 4.1 1.8 3.6 0 5.4-2.4 5.4-7.2 0-4.8-1.8-7.2-5.4-7.2-1.8 0-3.2.6-4.1 1.8-.9 1.2-1.4 3-1.4 5.4zM49 41.3h6.7c3 0 5.2.4 6.6 1.3 1.4.9 2.1 2.2 2.1 4.1 0 1.3-.3 2.3-.9 3.1-.6.8-1.4 1.3-2.4 1.5v.1c1.4.3 2.3.9 2.9 1.7.6.8.9 1.9.9 3.3 0 2-.7 3.5-2.1 4.6-1.4 1.1-3.3 1.6-5.7 1.6h-8V41.3zm4.5 8.5h2.6c1.2 0 2.1-.2 2.7-.6.6-.4.8-1 .8-1.9 0-.8-.3-1.4-.9-1.8-.6-.4-1.5-.5-2.8-.5h-2.4v4.8zm0 3.6V59h3c1.3 0 2.2-.2 2.8-.7.6-.5.9-1.2.9-2.2 0-1.8-1.3-2.7-3.8-2.7h-2.9zM88.6 52c0 3.5-.9 6.3-2.6 8.2S81.7 63 78.4 63s-5.8-1-7.6-2.9c-1.8-1.9-2.6-4.6-2.6-8.2s.9-6.3 2.6-8.2c1.8-1.9 4.3-2.8 7.6-2.8s5.8.9 7.5 2.8c1.8 2 2.7 4.8 2.7 8.3zM73 52c0 2.4.5 4.2 1.4 5.4.9 1.2 2.3 1.8 4.1 1.8 3.6 0 5.4-2.4 5.4-7.2 0-4.8-1.8-7.2-5.4-7.2-1.8 0-3.2.6-4.1 1.8-1 1.2-1.4 3-1.4 5.4zm33.6-10.7v3.8h-9v17.7H93V41.3h13.6zM129.3 52c0 3.5-.9 6.3-2.6 8.2-1.8 1.9-4.3 2.9-7.6 2.9s-5.8-1-7.6-2.9c-1.8-1.9-2.6-4.6-2.6-8.2s.9-6.3 2.6-8.2c1.8-1.9 4.3-2.8 7.6-2.8s5.8.9 7.5 2.8c1.8 1.9 2.7 4.7 2.7 8.2zm-15.6 0c0 2.4.5 4.2 1.4 5.4.9 1.2 2.3 1.8 4.1 1.8 3.6 0 5.4-2.4 5.4-7.2 0-4.8-1.8-7.2-5.4-7.2-1.8 0-3.2.6-4.1 1.8-1 1.2-1.4 3-1.4 5.4zM11.2 85.8c-1.7 0-3 .6-4 1.9-.9 1.3-1.4 3.1-1.4 5.4 0 4.8 1.8 7.2 5.4 7.2 1.5 0 3.3-.4 5.5-1.1v3.8c-1.8.7-3.7 1.1-5.9 1.1-3.1 0-5.5-.9-7.1-2.8-1.7-1.9-2.5-4.6-2.5-8.1 0-2.2.4-4.2 1.2-5.8.8-1.7 2-3 3.5-3.9 1.5-.9 3.3-1.3 5.3-1.3 2.1 0 4.2.5 6.3 1.5L16 87.4c-.8-.4-1.6-.7-2.4-1-.8-.4-1.6-.6-2.4-.6zM40.7 93c0 3.5-.9 6.3-2.6 8.2-1.8 1.9-4.3 2.9-7.6 2.9s-5.8-1-7.6-2.9c-1.8-1.9-2.6-4.6-2.6-8.2 0-3.6.9-6.3 2.6-8.2 1.8-1.9 4.3-2.8 7.6-2.8s5.8.9 7.5 2.8c1.8 1.9 2.7 4.7 2.7 8.2zm-15.6 0c0 2.4.5 4.2 1.4 5.4.9 1.2 2.3 1.8 4.1 1.8 3.6 0 5.4-2.4 5.4-7.2 0-4.8-1.8-7.2-5.4-7.2-1.8 0-3.2.6-4.1 1.8-1 1.2-1.4 3-1.4 5.4zm28.3 10.8h-4.5V86.1h-5.8v-3.8h16.2v3.8h-5.8v17.7zm13.7-11.4h1.5c1.4 0 2.4-.3 3.1-.8.7-.6 1-1.4 1-2.4 0-1.1-.3-1.9-.9-2.4-.6-.5-1.5-.8-2.7-.8H67v6.4zM77.3 89c0 2.3-.7 4.1-2.2 5.3-1.4 1.2-3.5 1.8-6.1 1.8h-1.9v7.6h-4.5V82.3h6.8c2.6 0 4.6.6 5.9 1.7 1.3 1.1 2 2.8 2 5zm21-6.7l-6.6 15.1c-.8 1.9-1.6 3.3-2.3 4.1-.7.8-1.6 1.4-2.6 1.9-1 .4-2.2.6-3.6.6-1.2 0-2.4-.1-3.4-.4v-3.9c.9.4 1.9.5 3.2.5.8 0 1.5-.2 2-.6.5-.4.9-1 1.2-2l-7.4-15.4h4.8l5.3 11.9h.1l.3-.7 4.4-11.2h4.6zm.1 17.7h1.7c1.4-2.8 2.5-5.7 3.4-8.5.8-2.8 1.4-5.9 1.8-9.2h12.5V100h2.9v10h-4.4v-6.2h-13.4v6.2h-4.4v-10zm10.5-13.9c-.3 2.2-.8 4.6-1.6 7.1-.7 2.5-1.5 4.8-2.4 6.8h8.4V86.1h-4.4zm32.6 17.7H137v-9.2h-8.5v9.2H124V82.3h4.5v8.4h8.5v-8.4h4.5v21.5zm5.4-21.5h4.1v10.3l-.1 2.8-.1 3.2h.1l9.9-16.3h5.4v21.4h-4V93.5c0-1.4.1-3.4.3-6.1h-.1l-9.9 16.4H147V82.3zm42.1 21.5h-5.2L176 92.9v10.9h-4.5V82.3h4.5v10.4l7.7-10.4h4.8l-7.8 10.3 8.3 11.2zm15.8 0l-1.6-5.1h-7.8l-1.6 5.1H189l7.6-21.5h5.6l7.6 21.5h-5zm-2.6-9c-1.4-4.6-2.2-7.2-2.4-7.8-.2-.6-.3-1.1-.4-1.4-.3 1.3-1.2 4.3-2.8 9.3h5.6z"/><path d="M276.3 239.5l12.2 1.5-4.8-10.6-7.4 9.1zm207.5.9c.5.2 1.2 0 1.4-.5.3-.5 0-1.1-.5-1.3l-.9 1.8zm-204.6-.9c.5-.2.8-.8.6-1.3-.2-.5-.8-.8-1.4-.5l.8 1.8zm4.2-3.7c-.6.2-.8.8-.6 1.3.2.5.8.8 1.4.6l-.8-1.9zm5.7.2c.6-.2.9-.8.7-1.3-.2-.5-.8-.8-1.4-.6l.7 1.9zm4.4-3.5c-.6.2-.9.7-.7 1.3.2.5.8.8 1.3.6l-.6-1.9zm5.7.4c.6-.2.9-.7.7-1.2-.2-.5-.8-.8-1.3-.7l.6 1.9zm4.6-3.3c-.6.1-.9.7-.7 1.2.2.5.7.8 1.3.7l-.6-1.9zm5.7.6c.6-.1.9-.7.8-1.2-.1-.5-.7-.9-1.3-.7l.5 1.9zm4.6-3.1c-.6.1-.9.7-.8 1.2.1.5.7.9 1.3.7l-.5-1.9zm5.7.8c.6-.1.9-.7.8-1.2-.1-.5-.7-.9-1.3-.8l.5 2zm4.8-3c-.6.1-1 .6-.8 1.2.1.5.7.9 1.3.8l-.5-2zm5.7 1c.6-.1 1-.6.9-1.2-.1-.5-.7-.9-1.2-.8l.3 2zm4.8-2.9c-.6.1-1 .6-.9 1.2.1.5.7.9 1.2.8l-.3-2zm5.7 1.2c.6-.1 1-.6.9-1.1-.1-.5-.6-.9-1.2-.8l.3 1.9zm4.9-2.7c-.6.1-1 .6-.9 1.1.1.5.6.9 1.2.9l-.3-2zm5.6 1.3c.6-.1 1-.6.9-1.1-.1-.5-.6-.9-1.2-.9l.3 2zm5.1-2.5c-.6.1-1 .5-1 1.1.1.6.6.9 1.2.9l-.2-2zm5.5 1.5c.6 0 1-.5 1-1.1-.1-.6-.6-1-1.2-.9l.2 2zm5.2-2.3c-.6 0-1 .5-1 1.1 0 .6.5 1 1.1.9l-.1-2zm5.4 1.7c.6 0 1-.5 1-1 0-.6-.5-1-1.1-1l.1 2zm5.3-2.2c-.6 0-1.1.5-1 1 0 .6.5 1 1.1 1l-.1-2zm5.4 1.9c.6 0 1.1-.5 1.1-1 0-.6-.5-1-1.1-1v2zm5.3-2c-.6 0-1.1.4-1.1 1s.5 1 1.1 1v-2zm5.3 2.1c.6 0 1.1-.4 1.1-1s-.4-1-1-1l-.1 2zm5.4-1.8c-.6 0-1.1.4-1.1 1s.4 1 1 1l.1-2zm5.2 2.2c.6 0 1.1-.4 1.1-.9 0-.6-.4-1-1-1.1l-.1 2zm5.5-1.6c-.6 0-1.1.4-1.2.9s.4 1 1 1.1l.2-2zm5.1 2.5c.6.1 1.1-.3 1.2-.9.1-.5-.4-1-.9-1.1l-.3 2zm5.6-1.4c-.6-.1-1.1.3-1.2.9-.1.5.3 1.1.9 1.1l.3-2zm5 2.7c.6.1 1.1-.3 1.2-.8.1-.5-.3-1.1-.9-1.1l-.3 1.9zm5.6-1.1c-.6-.1-1.1.3-1.2.8-.1.5.3 1.1.9 1.2l.3-2zm4.8 2.9c.6.1 1.1-.2 1.3-.8.1-.5-.3-1.1-.8-1.2l-.5 2zm5.7-.9c-.6-.1-1.1.2-1.3.8-.1.5.2 1.1.8 1.2l.5-2zm4.7 3.1c.6.1 1.2-.2 1.3-.7.1-.5-.2-1.1-.8-1.2l-.5 1.9zm5.7-.6c-.6-.2-1.2.2-1.3.7-.2.5.2 1.1.7 1.2l.6-1.9zm4.5 3.4c.6.2 1.2-.1 1.3-.7.2-.5-.1-1.1-.7-1.3l-.6 2zm5.8-.4c-.6-.2-1.2.1-1.4.6-.2.5.1 1.1.7 1.3l.7-1.9zm4.3 3.6c.6.2 1.2-.1 1.4-.6.2-.5-.1-1.1-.6-1.3l-.8 1.9zm5.7-.1c-.5-.2-1.2 0-1.4.6-.2.5 0 1.1.6 1.3l.8-1.9zm4.1 3.8c.5.2 1.2 0 1.4-.5s0-1.1-.6-1.3l-.8 1.8zm5.8.2c-.5-.2-1.2 0-1.4.5-.3.5 0 1.1.5 1.3l.9-1.8zm-198.2.2c1.6-.6 3.3-1.1 5-1.7l-.7-1.9c-1.7.6-3.4 1.1-5 1.7l.7 1.9zm10.1-3.3c1.6-.5 3.3-1 5.1-1.5l-.6-1.9c-1.8.5-3.5 1-5.1 1.5l.6 1.9zm10.1-2.9c1.7-.4 3.4-.9 5.1-1.3l-.5-1.9c-1.8.4-3.5.9-5.2 1.3l.6 1.9zm10.3-2.5c1.7-.4 3.4-.8 5.2-1.1l-.5-2c-1.8.4-3.5.8-5.2 1.1l.5 2zm10.4-2.2c1.7-.3 3.5-.7 5.2-1l-.4-2c-1.8.3-3.5.6-5.2 1l.4 2zm10.5-1.8c1.7-.3 3.5-.5 5.3-.8l-.3-2c-1.8.3-3.5.5-5.3.8l.3 2zm10.5-1.5c1.7-.2 3.5-.4 5.3-.6l-.3-2c-1.8.2-3.6.4-5.3.6l.3 2zm10.6-1.2c1.8-.2 3.5-.3 5.3-.5l-.2-2c-1.8.1-3.6.3-5.3.5l.2 2zm10.6-.8c1.8-.1 3.5-.2 5.3-.3l-.1-2-5.4.3.2 2zm10.6-.5c1.8 0 3.5-.1 5.3-.1v-2c-1.8 0-3.6.1-5.4.1l.1 2zm10.7-.1c1.8 0 3.5 0 5.3.1l.1-2c-1.8 0-3.6-.1-5.4-.1v2zm10.6.3c1.8.1 3.5.2 5.3.3l.1-2-5.4-.3v2zm10.6.6c1.8.1 3.5.3 5.3.5l.2-2c-1.8-.2-3.6-.4-5.3-.5l-.2 2zm10.6 1.1c1.8.2 3.5.5 5.3.7l.3-2c-1.8-.3-3.5-.5-5.3-.7l-.3 2zm10.5 1.6c1.7.3 3.5.6 5.2.9l.4-2c-1.8-.3-3.5-.7-5.3-.9l-.3 2zm10.4 2c1.7.4 3.4.8 5.2 1.2l.5-1.9c-1.7-.4-3.5-.8-5.2-1.2l-.5 1.9zm10.3 2.4c1.7.5 3.4.9 5.1 1.4l.6-1.9c-1.7-.5-3.4-1-5.1-1.4l-.6 1.9zm10.2 3c1.7.5 3.3 1.1 5 1.7l.7-1.9c-1.7-.6-3.4-1.1-5.1-1.7l-.6 1.9zm9.9 3.5c1.6.6 3.3 1.3 4.9 1.9l.9-1.8c-1.6-.7-3.3-1.3-5-1.9l-.8 1.8zm9.8 3.9c.8.4 1.6.7 2.4 1.1l.9-1.8c-.8-.4-1.6-.7-2.4-1.1l-.9 1.8zm148.2 5.1l12 2.7-3.5-11.1-8.5 8.4zm2.9.2c.6-.2.9-.7.7-1.3-.2-.5-.8-.8-1.3-.7l.6 2zm4.4-3.5c-.6.2-.8.8-.6 1.3.2.5.8.8 1.4.6l-.8-1.9zm5.7.1c.5-.2.8-.8.6-1.3-.2-.5-.9-.8-1.4-.5l.8 1.8zm4.1-3.9c-.5.2-.8.8-.5 1.3.3.5.9.7 1.4.5l-.9-1.8zm5.7-.5c.5-.3.7-.9.4-1.4-.3-.5-.9-.7-1.4-.4l1 1.8zm3.6-4.2c-.5.3-.7.9-.4 1.4.3.5 1 .6 1.5.3l-1.1-1.7zm5.6-1c.5-.3.6-.9.3-1.4-.3-.5-1-.6-1.5-.3l1.2 1.7zm3.1-4.6c-.5.3-.5 1-.2 1.4.4.4 1 .5 1.5.2l-1.3-1.6zm5.4-1.7c.4-.4.5-1 .1-1.4-.4-.4-1.1-.5-1.5-.1l1.4 1.5zm2.5-4.8c-.4.4-.4 1 0 1.4.4.4 1.1.4 1.5 0l-1.5-1.4zm5.2-2.3c.4-.4.3-1-.1-1.4-.4-.4-1.1-.3-1.5.1l1.6 1.3zm1.7-5.2c-.4.4-.3 1.1.2 1.4.5.3 1.1.3 1.5-.2l-1.7-1.2zm4.9-2.8c.3-.5.2-1.1-.3-1.4-.5-.3-1.2-.2-1.5.3l1.8 1.1zm1-5.3c-.3.5-.1 1.1.4 1.4.5.3 1.2.1 1.5-.4l-1.9-1zm4.5-3.5c.3-.5 0-1.1-.5-1.3-.5-.2-1.2 0-1.4.4l1.9.9zm.3-5.3c-.2.5 0 1.1.6 1.3.5.2 1.2 0 1.4-.5l-2-.8zm3.9-4c.2-.5-.1-1.1-.7-1.3-.6-.2-1.2.1-1.4.6l2.1.7zm-.5-5.4c-.2.5.2 1.1.7 1.2.6.1 1.2-.2 1.3-.7l-2-.5zm3.3-4.4c.1-.5-.3-1.1-.8-1.2-.6-.1-1.1.2-1.3.8l2.1.4zm-1.2-5.2c-.1.5.3 1.1.9 1.1.6.1 1.1-.3 1.2-.9l-2.1-.2zm2.7-4.8c0-.6-.4-1-1-1.1-.6 0-1.1.4-1.1.9l2.1.2zm-2-5.1c0 .6.5 1 1.1 1 .6 0 1.1-.4 1.1-1h-2.2zm2-5c0-.6-.5-1-1.1-.9-.6 0-1 .5-1 1.1l2.1-.2zm-2.7-4.8c.1.5.6.9 1.2.9.6-.1 1-.6.9-1.1l-2.1.2zm1.2-5.3c-.1-.5-.7-.9-1.3-.8-.6.1-.9.7-.8 1.2l2.1-.4zm-3.4-4.3c.2.5.8.8 1.3.7.6-.2.9-.7.7-1.2l-2 .5zm.2-5.4c-.2-.5-.8-.8-1.4-.6-.5.2-.8.8-.6 1.3l2-.7zm-4.2-3.7c.3.5.9.7 1.4.4.5-.3.7-.9.5-1.3l-1.9.9zm-.8-5.3c-.3-.5-1-.6-1.5-.3s-.6.9-.3 1.4l1.8-1.1zM637.6 243c1.7-.6 3.4-1.2 5-1.8l-.8-1.8c-1.6.6-3.2 1.2-4.9 1.8l.7 1.8zm10-3.9c1.7-.7 3.3-1.5 4.8-2.3l-1-1.8c-1.5.8-3.1 1.5-4.7 2.2l.9 1.9zm9.5-4.8c1.6-.9 3.1-1.8 4.5-2.8l-1.2-1.6c-1.4.9-2.9 1.8-4.4 2.7l1.1 1.7zm8.9-5.7c1.4-1.1 2.8-2.1 4.2-3.2l-1.4-1.5c-1.3 1.1-2.7 2.1-4.1 3.2l1.3 1.5zm8.1-6.7c1.3-1.2 2.5-2.4 3.7-3.7l-1.6-1.3-3.6 3.6 1.5 1.4zm7.1-7.6c1.1-1.3 2.2-2.7 3.2-4.1l-1.8-1.1c-1 1.4-2 2.7-3.1 4l1.7 1.2zm6.1-8.4c.9-1.5 1.8-3 2.6-4.5l-1.9-.9c-.8 1.5-1.6 2.9-2.5 4.3l1.8 1.1zm4.8-9.1c.7-1.6 1.4-3.1 1.9-4.7l-2-.7c-.6 1.5-1.2 3.1-1.9 4.6l2 .8zm3.6-9.5c.5-1.6.9-3.3 1.3-4.9l-2.1-.4-1.2 4.8 2 .5zm2.1-10c.2-1.7.4-3.4.6-5l-2.1-.1c-.1 1.6-.3 3.3-.5 4.9l2 .2zm.8-10.1c0-1.7-.1-3.4-.2-5.1l-2.1.1c.1 1.6.2 3.3.2 4.9l2.1.1zm-.8-10.1c-.3-1.7-.6-3.4-1-5l-2.1.4c.4 1.6.7 3.2.9 4.8l2.2-.2zm-2.3-9.9c-.5-1.6-1.1-3.2-1.8-4.8l-2 .7c.6 1.5 1.2 3 1.7 4.6l2.1-.5zm-4.1-9.4c-.8-1.5-1.8-3-2.8-4.4l-1.8 1.1c.9 1.3 1.8 2.8 2.6 4.2l2-.9zm-310.5 941.4l-.6.8.6-.8zm-114.7 0l12 2.5-3.7-11-8.3 8.5zm2.8.2c.6-.2.9-.7.7-1.3-.2-.5-.8-.8-1.3-.7l.6 2zm4.6-3.3c-.6.2-.9.7-.7 1.2s.7.8 1.3.7l-.6-1.9zm5.7.7c.6-.1.9-.7.8-1.2-.1-.5-.7-.9-1.3-.7l.5 1.9zm4.7-3.2c-.6.1-.9.7-.8 1.2.1.5.7.9 1.3.8l-.5-2zm5.7.9c.6-.1.9-.6.8-1.2-.1-.5-.7-.9-1.3-.8l.5 2zm4.8-2.9c-.6.1-1 .6-.9 1.2.1.5.7.9 1.2.8l-.3-2zm5.7 1.1c.6-.1 1-.6.9-1.1-.1-.5-.6-.9-1.2-.8l.3 1.9zm4.9-2.8c-.6.1-1 .6-.9 1.1.1.6.6.9 1.2.9l-.3-2zm5.6 1.4c.6-.1 1-.6.9-1.1-.1-.6-.6-.9-1.2-.9l.3 2zm5.1-2.6c-.6.1-1 .5-1 1.1.1.6.6 1 1.2.9l-.2-2zm5.5 1.6c.6 0 1-.5 1-1.1 0-.6-.6-1-1.1-.9l.1 2zm5.3-2.3c-.6 0-1 .5-1 1 0 .6.5 1 1.1 1l-.1-2zm5.4 1.9c.6 0 1.1-.5 1.1-1 0-.6-.5-1-1.1-1v2zm5.3-2c-.6 0-1.1.4-1.1 1s.5 1 1 1l.1-2zm5.3 2.2c.6 0 1.1-.4 1.1-.9 0-.6-.4-1-1-1.1l-.1 2zm5.5-1.6c-.6-.1-1.1.3-1.2.9-.1.5.4 1 1 1.1l.2-2zm5.1 2.6c.6.1 1.1-.3 1.2-.8.1-.6-.3-1.1-.9-1.1l-.3 1.9zm5.6-1.1c-.6-.1-1.1.2-1.3.8-.1.5.3 1.1.8 1.2l.5-2zm4.7 3.1c.6.2 1.2-.2 1.3-.7.2-.5-.2-1.1-.7-1.2l-.6 1.9zm5.8-.4c-.6-.2-1.2.1-1.4.6-.2.5.1 1.1.6 1.3l.8-1.9zm4.1 3.8c.5.2 1.2 0 1.4-.5.2-.5 0-1.1-.5-1.3l-.9 1.8zm5.8.5c-.5-.3-1.2-.1-1.5.3-.3.5-.1 1.1.4 1.4l1.1-1.7zm3.4 4.4c.5.3 1.2.2 1.5-.3.3-.5.2-1.1-.4-1.4l-1.1 1.7zm5.8.8c-.5-.3-1.2-.1-1.4.4s-.1 1.1.5 1.3l.9-1.7zm4 4c.5.2 1.2 0 1.4-.5.2-.5 0-1.1-.6-1.3l-.8 1.8zm5.8 0c-.6-.2-1.2.1-1.4.6-.2.5.1 1.1.6 1.3l.8-1.9zm4.4 3.6c.6.2 1.2-.1 1.3-.6.2-.5-.1-1.1-.7-1.3l-.6 1.9zm5.8-.5c-.6-.1-1.2.2-1.3.7-.2.5.2 1.1.7 1.2l.6-1.9zm4.8 3.2c.6.1 1.2-.2 1.3-.7.1-.5-.2-1.1-.8-1.2l-.5 1.9zm5.7-.8c-.6-.1-1.1.2-1.3.8-.1.5.3 1.1.8 1.2l.5-2zm5 2.9c.6.1 1.1-.3 1.2-.8.1-.5-.3-1.1-.9-1.2l-.3 2zm5.7-1.2c-.6-.1-1.1.3-1.2.8-.1.6.3 1.1.9 1.1l.3-1.9zm5.1 2.6c.6.1 1.1-.3 1.2-.9.1-.6-.3-1-.9-1.1l-.3 2zm5.6-1.4c-.6-.1-1.1.3-1.2.9-.1.5.4 1 1 1.1l.2-2zm5.2 2.5c.6 0 1.1-.4 1.1-.9 0-.6-.4-1-1-1.1l-.1 2zm5.6-1.7c-.6 0-1.1.4-1.1.9 0 .6.4 1 1 1.1l.1-2zm5.3 2.3c.6 0 1.1-.4 1.1-1 0-.5-.4-1-1-1l-.1 2zm5.5-1.9c-.6 0-1.1.4-1.1 1 0 .5.5 1 1 1l.1-2zm5.4 2.1c.6 0 1.1-.4 1.1-1s-.5-1-1.1-1v2zm5.4-2.1c-.6 0-1.1.5-1.1 1 0 .6.5 1 1.1 1v-2zm5.5 1.9c.6 0 1.1-.5 1-1 0-.6-.5-1-1.1-1l.1 2zm5.3-2.2c-.6 0-1 .5-1 1.1 0 .6.5 1 1.1.9l-.1-2zm5.6 1.6c.6 0 1-.5 1-1.1 0-.6-.6-1-1.2-.9l.2 2zm-215-19.1c1.6-.4 3.4-.9 5.1-1.3l-.5-1.9c-1.8.4-3.5.9-5.2 1.3l.6 1.9zm10.4-2.4c1.7-.4 3.4-.7 5.2-1.1l-.4-2c-1.8.4-3.5.7-5.2 1.1l.4 2zm10.4-2c1.7-.3 3.5-.6 5.2-.9l-.3-2c-1.8.3-3.6.6-5.3.9l.4 2zm10.5-1.7c1.7-.2 3.5-.5 5.3-.7l-.3-2c-1.8.2-3.6.4-5.3.7l.3 2zm10.6-1.2c1.8-.2 3.5-.3 5.3-.4l-.2-2c-1.8.1-3.6.3-5.4.4l.3 2zm10.7-.7c1.8-.1 3.6-.1 5.3-.2v-2c-1.8 0-3.6.1-5.4.2l.1 2zm10.6-.1c1.8 0 3.6.1 5.3.2l.1-2c-1.8-.1-3.6-.2-5.4-.2v2zm10.6.6c1.8.2 3.5.4 5.3.6l.3-2c-1.8-.3-3.6-.5-5.4-.6l-.2 2zm10.5 1.5c1.7.3 3.5.7 5.1 1.2l.6-1.9c-1.7-.4-3.5-.8-5.3-1.2l-.4 1.9zm10.2 2.6c1.7.6 3.3 1.2 4.9 1.9l.9-1.8c-1.6-.7-3.3-1.3-5-1.9l-.8 1.8zm9.5 4.1c.8.4 1.5.8 2.2 1.3l1.2-1.7c-.8-.5-1.5-.9-2.3-1.4l-1.1 1.8zm2.2 1.3c.8.5 1.5.9 2.3 1.4l1.1-1.7c-.8-.4-1.5-.9-2.2-1.3l-1.2 1.6zm7.1 4c1.6.8 3.3 1.5 5 2.2l.9-1.8c-1.7-.7-3.3-1.4-4.8-2.2l-1.1 1.8zm10 4.1c1.7.6 3.4 1.2 5.2 1.7l.7-1.9c-1.7-.5-3.4-1.1-5.1-1.7l-.8 1.9zm10.5 3.1c1.7.4 3.5.9 5.3 1.3l.5-2c-1.8-.4-3.5-.8-5.2-1.3l-.6 2zm10.6 2.4c1.8.3 3.6.7 5.4.9l.4-2c-1.8-.3-3.5-.6-5.3-.9l-.5 2zm10.8 1.8c1.8.3 3.6.5 5.4.7l.3-2c-1.8-.2-3.6-.4-5.4-.7l-.3 2zm10.8 1.2c1.8.2 3.6.3 5.4.4l.2-2c-1.8-.1-3.6-.3-5.4-.4l-.2 2zm10.9.8c1.8.1 3.7.2 5.4.3l.1-2c-1.8-.1-3.6-.2-5.4-.2l-.1 1.9zm10.9.4c1.9 0 3.7.1 5.5.1v-2c-1.8 0-3.6 0-5.4-.1l-.1 2zm10.9 0c1.9 0 3.7-.1 5.4-.1l-.1-2c-1.7.1-3.5.1-5.4.1l.1 2zm10.9-.3c1.9-.1 3.7-.2 5.4-.4l-.2-2c-1.7.1-3.5.3-5.4.3l.2 2.1zM338.4 1401c-.5-.3-1.2-.2-1.5.3-.3.5-.2 1.1.3 1.4l1.2-1.7zm-16.6 148.9l11.7 3.7-2.4-11.3-9.3 7.6zm2.8.5c.6-.1.9-.7.8-1.2-.1-.5-.7-.9-1.3-.8l.5 2zm4.6-3.2c-.6.2-.9.7-.7 1.2.2.5.8.8 1.3.7l-.6-1.9zm5.7.3c.6-.2.8-.8.6-1.3-.2-.5-.8-.8-1.4-.6l.8 1.9zm4-3.7c-.5.2-.8.8-.5 1.3.3.5.9.7 1.4.5l-.9-1.8zm5.7-.6c.5-.3.7-.9.4-1.4-.3-.5-.9-.7-1.5-.4l1.1 1.8zm3.3-4.3c-.5.3-.6.9-.3 1.4.3.5 1 .6 1.5.3l-1.2-1.7zm5.5-1.4c.5-.3.5-1 .2-1.4-.4-.4-1-.5-1.5-.2l1.3 1.6zm2.6-4.7c-.4.4-.4 1 0 1.4.4.4 1.1.4 1.5 0l-1.5-1.4zm5.2-2.2c.4-.4.4-1-.1-1.4s-1.1-.3-1.5.1l1.6 1.3zm1.7-5.1c-.4.4-.3 1.1.2 1.4.5.3 1.1.3 1.5-.2l-1.7-1.2zm4.8-2.8c.3-.5.2-1.1-.3-1.4-.5-.3-1.2-.2-1.5.3l1.8 1.1zm1-5.3c-.3.5-.1 1.1.4 1.4.5.3 1.2.1 1.5-.4l-1.9-1zm4.3-3.4c.3-.5 0-1.1-.5-1.3-.5-.2-1.2 0-1.4.5l1.9.8zm.2-5.4c-.2.5 0 1.1.6 1.3.5.2 1.2 0 1.4-.6l-2-.7zm3.8-3.9c.2-.5-.1-1.1-.7-1.3-.6-.2-1.2.1-1.3.6l2 .7zm-.6-5.4c-.1.5.2 1.1.8 1.2.6.1 1.2-.2 1.3-.7l-2.1-.5zm3.3-4.3c.1-.5-.3-1.1-.8-1.2-.6-.1-1.1.2-1.3.8l2.1.4zm-1.2-5.2c-.1.5.3 1 .9 1.1.6.1 1.1-.3 1.2-.8l-2.1-.3zm2.7-4.7c0-.5-.4-1-1-1.1-.6-.1-1.1.4-1.2.9l2.2.2zm-1.9-5.1c0 .5.4 1 1 1s1.1-.4 1.1-1h-2.1zm2.1-4.9c0-.5-.5-1-1.1-1-.6 0-1.1.5-1 1h2.1zm-2.4-4.9c0 .6.6 1 1.2.9.6-.1 1-.5 1-1.1l-2.2.2zm1.6-5.1c-.1-.6-.6-.9-1.2-.9-.6.1-1 .6-.9 1.1l2.1-.2zm-3-4.5c.1.5.7.9 1.3.8.6-.1 1-.6.8-1.2l-2.1.4zm1-5.3c-.1-.5-.7-.9-1.3-.7s-.9.7-.8 1.2l2.1-.5zm-3.5-4.2c.2.5.8.8 1.3.7.6-.2.9-.7.7-1.3l-2 .6zm.4-5.4c-.2-.5-.8-.8-1.4-.6-.6.2-.8.8-.6 1.3l2-.7zm-4-3.8c.2.5.9.7 1.4.5.5-.2.8-.8.6-1.3l-2 .8zm-.2-5.4c-.3-.5-.9-.7-1.4-.5-.5.2-.7.8-.5 1.3l1.9-.8zm-4.4-3.4c.3.5.9.7 1.5.4.5-.3.7-.9.4-1.4l-1.9 1zm-.8-5.3c-.3-.5-1-.6-1.5-.3s-.6.9-.3 1.4l1.8-1.1zm-4.7-3c.3.5 1 .6 1.5.2.5-.3.6-.9.3-1.4l-1.8 1.2zm-1.5-5.1c-.4-.4-1-.5-1.5-.2s-.5 1-.2 1.4l1.7-1.2zm-5.1-2.5c.4.4 1.1.4 1.5.1.4-.4.5-1 .1-1.4l-1.6 1.3zm-2-5c-.4-.4-1.1-.4-1.5 0-.4.4-.4 1 0 1.4l1.5-1.4zm-5.3-1.9c.4.4 1.1.3 1.5-.1.4-.4.4-1-.1-1.4l-1.4 1.5zm-2.7-4.8c-.5-.3-1.1-.3-1.5.2-.4.4-.3 1.1.2 1.4l1.3-1.6zm-5.5-1.4c.5.3 1.1.2 1.5-.2.3-.4.2-1.1-.2-1.4l-1.3 1.6zm-9.5 145c1.7-.5 3.4-1 5.1-1.6l-.8-1.9c-1.6.6-3.2 1.1-4.9 1.5l.6 2zm10-3.5c1.6-.7 3.2-1.5 4.8-2.3l-1.1-1.7c-1.5.8-3 1.5-4.6 2.3l.9 1.7zm9.3-5c1.5-.9 2.9-1.9 4.3-3l-1.3-1.6c-1.3 1-2.7 2-4.2 2.9l1.2 1.7zm8.3-6.4c1.3-1.2 2.5-2.4 3.7-3.6l-1.6-1.3c-1.2 1.2-2.4 2.4-3.6 3.5l1.5 1.4zm7.2-7.4c1.1-1.3 2.1-2.7 3.1-4.1l-1.8-1.1c-1 1.3-2 2.7-3 4l1.7 1.2zm5.9-8.4c.9-1.5 1.7-2.9 2.5-4.5l-1.9-.9c-.8 1.5-1.6 2.9-2.4 4.3l1.8 1.1zm4.6-9c.7-1.5 1.3-3.1 1.8-4.7l-2-.6c-.5 1.5-1.1 3.1-1.8 4.6l2 .7zm3.4-9.5c.5-1.6.8-3.2 1.2-4.9l-2.1-.4c-.3 1.6-.7 3.2-1.2 4.8l2.1.5zm2.1-9.9c.2-1.7.4-3.3.6-5l-2.1-.2c-.1 1.6-.3 3.3-.6 4.9l2.1.3zm.8-9.9v-5l-2.1.1v4.9h2.1zm-.2-10c-.1-1.7-.3-3.3-.6-5l-2.1.3c.2 1.6.4 3.2.6 4.9l2.1-.2zm-1.5-9.9c-.3-1.6-.7-3.3-1.1-4.9l-2.1.5c.4 1.6.8 3.2 1.1 4.8l2.1-.4zm-2.5-9.7c-.5-1.6-1.1-3.2-1.7-4.7l-2 .7c.6 1.5 1.1 3.1 1.7 4.6l2-.6zm-3.7-9.4c-.7-1.5-1.4-3-2.2-4.5l-1.9.9c.8 1.5 1.5 2.9 2.2 4.4l1.9-.8zm-4.7-9c-.9-1.4-1.8-2.9-2.7-4.3l-1.8 1.1 2.7 4.2 1.8-1zm-5.7-8.4c-1-1.4-2.1-2.7-3.2-4l-1.7 1.3c1.1 1.3 2.1 2.6 3.1 3.9l1.8-1.2zm-6.7-7.8c-1.2-1.2-2.4-2.4-3.7-3.6l-1.5 1.4c1.2 1.2 2.4 2.3 3.6 3.6l1.6-1.4zm-7.5-7.1c-1.3-1.1-2.7-2.2-4.1-3.3l-1.3 1.5c1.4 1 2.7 2.1 4 3.2l1.4-1.4zm-8.3-6.3c-.7-.5-1.5-1-2.2-1.4l-1.2 1.6c.7.5 1.4 1 2.2 1.4l1.2-1.6zm-72.8-740.1l12 2.7-3.5-11.1-8.5 8.4zm2.8.2c.6-.2.9-.7.7-1.2-.2-.5-.8-.8-1.3-.7l.6 1.9zm4.5-3.2c-.6.1-.9.7-.7 1.2.2.5.7.8 1.3.7l-.6-1.9zm5.7.6c.6-.1.9-.7.8-1.2-.1-.5-.7-.9-1.3-.7l.5 1.9zm4.6-3.1c-.6.1-.9.7-.8 1.2.1.5.7.9 1.3.7l-.5-1.9zm5.6.8c.6-.1.9-.7.8-1.2-.1-.5-.7-.9-1.3-.8l.5 2zm4.7-3c-.6.1-.9.6-.8 1.2.1.5.7.9 1.3.8l-.5-2zm5.6 1c.6-.1 1-.6.8-1.2-.1-.5-.7-.9-1.3-.8l.5 2zm4.8-2.8c-.6.1-1 .6-.9 1.2.1.5.7.9 1.2.8l-.3-2zm5.6 1.1c.6-.1 1-.6.9-1.1-.1-.5-.6-.9-1.2-.8l.3 1.9zm4.9-2.7c-.6.1-1 .6-.9 1.1.1.5.6.9 1.2.8l-.3-1.9zm5.5 1.3c.6-.1 1-.6.9-1.1-.1-.5-.6-.9-1.2-.9l.3 2zm5-2.7c-.6.1-1 .6-.9 1.1.1.5.6.9 1.2.9l-.3-2zm5.5 1.5c.6-.1 1-.6 1-1.1-.1-.5-.6-.9-1.2-.9l.2 2zm5-2.5c-.6.1-1 .5-1 1.1.1.5.6 1 1.2.9l-.2-2zm5.5 1.6c.6 0 1-.5 1-1.1 0-.6-.6-1-1.2-.9l.2 2zm5.1-2.4c-.6 0-1 .5-1 1.1 0 .6.5 1 1.1.9l-.1-2zm5.4 1.7c.6 0 1-.5 1-1.1 0-.6-.5-1-1.1-.9l.1 2zm5.2-2.2c-.6 0-1 .5-1 1 0 .6.5 1 1.1 1l-.1-2zm5.3 1.8c.6 0 1.1-.5 1-1s-.5-1-1.1-1l.1 2zm5.2-2.1c-.6 0-1.1.5-1.1 1 0 .6.5 1 1.1 1v-2zm5.4 2c.6 0 1.1-.4 1.1-1s-.5-1-1.1-1v2zm5.3-1.9c-.6 0-1.1.4-1.1 1s.5 1 1.1 1v-2zm5.2 2.1c.6 0 1.1-.4 1.1-1s-.4-1-1-1l-.1 2zm5.3-1.9c-.6 0-1.1.4-1.1 1s.4 1 1 1l.1-2zm5.2 2.3c.6 0 1.1-.4 1.1-.9 0-.6-.4-1-1-1.1l-.1 2zm5.4-1.7c-.6 0-1.1.4-1.1.9 0 .6.4 1 1 1.1l.1-2zm5.1 2.4c.6 0 1.1-.4 1.2-.9.1-.5-.4-1-1-1.1l-.2 2zm5.5-1.5c-.6-.1-1.1.3-1.2.9-.1.5.4 1 1 1.1l.2-2zm5 2.5c.6.1 1.1-.3 1.2-.9.1-.5-.4-1-.9-1.1l-.3 2zm5.5-1.4c-.6-.1-1.1.3-1.2.9-.1.5.3 1 .9 1.1l.3-2zm4.9 2.7c.6.1 1.1-.3 1.2-.8.1-.5-.3-1.1-.9-1.1l-.3 1.9zm5.6-1.3c-.6-.1-1.1.3-1.2.8-.1.5.3 1.1.9 1.1l.3-1.9zm4.8 2.9c.6.1 1.1-.3 1.2-.8.1-.5-.3-1.1-.9-1.2l-.3 2zm5.6-1.1c-.6-.1-1.1.2-1.3.8-.1.5.3 1.1.8 1.2l.5-2zm4.7 3c.6.1 1.1-.2 1.3-.8.1-.5-.2-1.1-.8-1.2l-.5 2zm5.7-.8c-.6-.1-1.2.2-1.3.7-.1.5.2 1.1.8 1.2l.5-1.9zm4.6 3.2c.6.1 1.2-.2 1.3-.7.2-.5-.2-1.1-.7-1.2l-.6 1.9zm5.6-.5c-.6-.2-1.2.1-1.3.7-.2.5.1 1.1.7 1.2l.6-1.9zm4.4 3.4c.6.2 1.2-.1 1.4-.6.2-.5-.1-1.1-.7-1.3l-.7 1.9zm5.7-.3c-.6-.2-1.2.1-1.4.6-.2.5.1 1.1.6 1.3l.8-1.9zm4.1 3.7c.5.2 1.2 0 1.4-.5.2-.5 0-1.1-.6-1.3l-.8 1.8zm5.7.2c-.5-.2-1.2 0-1.4.5-.3.5 0 1.1.5 1.3l.9-1.8zm3.7 4c.5.3 1.2.1 1.5-.4.3-.5.1-1.1-.4-1.4l-1.1 1.8zm-211.6-8c1.7-.4 3.4-.9 5.1-1.3l-.5-1.9c-1.7.4-3.4.8-5.1 1.3l.5 1.9zm10.2-2.4c1.7-.4 3.4-.8 5.1-1.1l-.5-2c-1.7.4-3.4.7-5.2 1.1l.6 2zm10.3-2.2c1.7-.3 3.4-.7 5.2-1l-.4-2c-1.7.3-3.5.6-5.2 1l.4 2zm10.3-1.9c1.7-.3 3.5-.6 5.2-.8l-.3-2c-1.7.3-3.5.5-5.2.8l.3 2zm10.4-1.6c1.7-.2 3.5-.5 5.2-.7l-.3-2c-1.7.2-3.5.5-5.2.7l.3 2zm10.4-1.3c1.8-.2 3.5-.4 5.2-.6l-.2-2c-1.8.2-3.5.4-5.3.6l.3 2zm10.5-1c1.8-.2 3.5-.3 5.2-.4l-.2-2c-1.8.1-3.5.3-5.3.4l.3 2zm10.5-.8c1.8-.1 3.5-.2 5.3-.3l-.1-2c-1.8.1-3.5.2-5.3.3l.1 2zm10.5-.5c1.8-.1 3.5-.1 5.3-.2l-.1-2c-1.8 0-3.5.1-5.3.2l.1 2zm10.6-.3h5.3v-2h-5.3v2zm10.5.1c1.8 0 3.5.1 5.3.1l.1-2c-1.7 0-3.5-.1-5.3-.1l-.1 2zm10.6.2c1.8.1 3.5.2 5.3.2l.1-2c-1.8-.1-3.5-.2-5.3-.2l-.1 2zm10.5.6c1.8.1 3.5.2 5.3.4l.2-2c-1.7-.1-3.5-.3-5.3-.4l-.2 2zm10.5.8c1.8.2 3.5.3 5.2.5l.2-2c-1.7-.2-3.5-.4-5.3-.5l-.1 2zm10.4 1.2c1.8.2 3.5.4 5.2.7l.3-2c-1.7-.2-3.5-.5-5.3-.7l-.2 2zm10.5 1.4c1.8.3 3.5.6 5.2.8l.4-2c-1.7-.3-3.5-.6-5.2-.9l-.4 2.1zm10.3 1.8c1.7.3 3.5.7 5.1 1l.5-2c-1.7-.4-3.4-.7-5.2-1l-.4 2zm10.3 2.2l5.1 1.2.6-1.9c-1.7-.4-3.4-.8-5.1-1.3l-.6 2zm10.1 2.6c1.7.5 3.4 1 5 1.5l.7-1.9c-1.6-.5-3.3-1-5.1-1.5l-.6 1.9zm10 3.1c1.7.6 3.3 1.2 4.9 1.8l.8-1.8c-1.6-.6-3.2-1.2-4.9-1.8l-.8 1.8zm9.6 3.8c1.7.7 3.2 1.5 4.7 2.3l1-1.7c-1.5-.8-3.1-1.6-4.8-2.3l-.9 1.7zM83.1 290.4c.3-.5.2-1.1-.3-1.4-.5-.3-1.2-.2-1.5.3l1.8 1.1zm4.5 144l.2-11.5-10.8 5.5 10.6 6zm-7.7-142.9c-.3.5-.1 1.1.4 1.4.5.3 1.2.1 1.5-.3l-1.9-1.1zm-.8 5.4c.3-.5.1-1.1-.5-1.3-.5-.3-1.2-.1-1.4.4l1.9.9zm-4.3 3.6c-.2.5 0 1.1.5 1.3.5.2 1.2 0 1.4-.5l-1.9-.8zm-.1 5.4c.2-.5-.1-1.1-.6-1.3-.5-.2-1.2 0-1.4.6l2 .7zm-3.9 4.1c-.2.5.1 1.1.7 1.3.6.2 1.2-.1 1.4-.6l-2.1-.7zm.4 5.4c.2-.5-.2-1.1-.7-1.2-.6-.2-1.2.1-1.3.7l2 .5zm-3.5 4.3c-.1.5.2 1.1.8 1.2.6.1 1.2-.2 1.3-.7l-2.1-.5zm.8 5.4c.1-.5-.2-1.1-.8-1.2s-1.1.2-1.3.8l2.1.4zm-3.1 4.6c-.1.5.3 1.1.9 1.2.6.1 1.1-.3 1.2-.8l-2.1-.4zm1.3 5.3c.1-.5-.3-1.1-.9-1.1-.6-.1-1.1.3-1.2.9l2.1.2zm-2.8 4.7c-.1.5.4 1 1 1.1.6.1 1.1-.3 1.2-.9l-2.2-.2zm1.7 5.2c0-.6-.4-1-1-1.1-.6 0-1.1.4-1.1.9l2.1.2zm-2.4 5c0 .6.4 1 1 1s1.1-.4 1.1-1h-2.1zm2 5.1c0-.6-.5-1-1.1-1-.6 0-1.1.5-1.1 1h2.2zm-2 5c0 .6.5 1 1.1 1 .6 0 1.1-.5 1-1h-2.1zm2.4 5c0-.6-.6-1-1.1-.9-.6 0-1 .5-1 1.1l2.1-.2zm-1.7 5.2c.1.6.6.9 1.2.9.6-.1 1-.6 1-1.1l-2.2.2zm2.8 4.7c-.1-.5-.6-.9-1.2-.9-.6.1-1 .6-.9 1.1l2.1-.2zm-1.3 5.3c.1.5.7.9 1.2.8.6-.1 1-.6.9-1.2l-2.1.4zm3.1 4.6c-.1-.5-.7-.9-1.3-.8-.6.1-1 .6-.8 1.2l2.1-.4zm-.9 5.4c.1.5.7.9 1.3.7.6-.1.9-.7.8-1.2l-2.1.5zm3.4 4.4c-.2-.5-.7-.8-1.3-.7-.6.1-.9.7-.7 1.2l2-.5zm-.5 5.4c.2.5.8.8 1.3.7.6-.2.9-.7.7-1.3l-2 .6zm3.7 4.2c-.2-.5-.8-.8-1.4-.6-.6.2-.9.7-.7 1.3l2.1-.7zm-.2 5.4c.2.5.8.8 1.4.6.6-.2.8-.8.6-1.3l-2 .7zm4 4c-.2-.5-.8-.8-1.4-.5-.5.2-.8.8-.6 1.3l2-.8zm.1 5.4c.2.5.9.7 1.4.5s.8-.8.5-1.3l-1.9.8zm4.2 3.7c-.3-.5-.9-.7-1.4-.5-.5.2-.8.8-.5 1.3l1.9-.8zm.5 5.5c.3.5.9.7 1.4.4.5-.3.7-.9.5-1.3l-1.9.9zm4.4 3.5c-.3-.5-.9-.7-1.5-.4-.5.3-.7.9-.4 1.4l1.9-1zm-5.8-142.4c-.5.7-1 1.4-1.5 2.2l1.8 1c.5-.7 1-1.4 1.4-2.1l-1.7-1.1zm-4.2 6.6c-.8 1.4-1.6 3-2.4 4.6l1.9.8c.8-1.6 1.5-3.1 2.3-4.5l-1.8-.9zm-4.5 9.3c-.6 1.5-1.3 3.1-1.9 4.8l2 .7c.6-1.6 1.2-3.2 1.9-4.7l-2-.8zm-3.5 9.6c-.5 1.6-1 3.2-1.5 4.9l2.1.5c.5-1.7.9-3.3 1.4-4.8l-2-.6zm-2.8 9.9c-.4 1.6-.7 3.3-1.1 5l2.1.4c.3-1.7.7-3.3 1-4.9l-2-.5zm-1.9 10c-.2 1.7-.5 3.3-.7 5.1l2.1.2c.2-1.7.4-3.3.6-5l-2-.3zm-1.1 10.1l-.3 5.1 2.1.1c.1-1.7.1-3.4.3-5l-2.1-.2zm-.3 10.2c0 1.7 0 3.4.1 5.1l2.1-.1c-.1-1.7-.1-3.4-.1-5h-2.1zm.4 10.1c.1 1.7.3 3.4.5 5.1l2.1-.2c-.2-1.7-.3-3.3-.5-5l-2.1.1zm1.1 10.1c.2 1.7.5 3.3.8 5l2.1-.3c-.3-1.7-.6-3.3-.8-5l-2.1.3zm1.8 10c.4 1.6.8 3.3 1.2 5l2.1-.5c-.4-1.6-.8-3.3-1.2-4.9l-2.1.4zm2.6 9.9c.5 1.6 1 3.2 1.5 4.9l2-.6-1.5-4.8-2 .5zm3.2 9.7l1.8 4.8 2-.7c-.6-1.6-1.2-3.2-1.8-4.7l-2 .6zm3.8 9.5c.7 1.6 1.4 3.1 2.1 4.7l2-.8c-.7-1.5-1.4-3.1-2.1-4.6l-2 .7zm4.4 9.3c.8 1.5 1.6 3 2.4 4.6l1.9-.9-2.4-4.5-1.9.8zm188.4 463.6c-.5-.3-1.1-.2-1.5.2-.3.4-.2 1.1.2 1.4l1.3-1.6zm92.6 16.2l-.3-.9.3.9zm116.1-28.6l-8.7-8.2-3.3 11.1 12-2.9zm-207.7 15.5c.5.3 1.2.2 1.5-.3.3-.5.2-1.1-.3-1.4l-1.2 1.7zm5.8 1.2c-.5-.3-1.2-.2-1.5.3-.3.5-.2 1.1.3 1.4l1.2-1.7zm3.6 4.3c.5.3 1.2.1 1.5-.4.3-.5.1-1.1-.4-1.4l-1.1 1.8zm5.8.7c-.5-.3-1.2-.1-1.4.4-.3.5-.1 1.1.5 1.3l.9-1.7zm4 4c.5.2 1.2 0 1.4-.5.2-.5 0-1.1-.5-1.3l-.9 1.8zm5.9.1c-.5-.2-1.2.1-1.4.6-.2.5.1 1.1.6 1.3l.8-1.9zm4.4 3.7c.6.2 1.2-.1 1.4-.6.2-.5-.1-1.1-.7-1.3l-.7 1.9zm5.8-.4c-.6-.1-1.2.2-1.3.7-.2.5.2 1.1.7 1.2l.6-1.9zm4.8 3.1c.6.1 1.1-.2 1.3-.8.1-.5-.2-1.1-.8-1.2l-.5 2zm5.8-1c-.6-.1-1.1.3-1.2.8s.3 1.1.9 1.1l.3-1.9zm5.1 2.7c.6.1 1.1-.3 1.2-.9s-.4-1-1-1.1l-.2 2zm5.6-1.6c-.6 0-1.1.4-1.1 1s.4 1 1 1l.1-2zm5.5 2.1c.6 0 1.1-.5 1.1-1 0-.6-.5-1-1.1-1v2zm5.3-2.3c-.6 0-1 .5-1 1.1 0 .6.6 1 1.1.9l-.1-2zm5.7 1.5c.6-.1 1-.6.9-1.1-.1-.5-.6-.9-1.2-.9l.3 2zm5.1-2.8c-.6.1-1 .6-.9 1.2.1.5.7.9 1.2.8l-.3-2zm5.8.9c.6-.1.9-.7.8-1.2-.1-.5-.7-.9-1.3-.7l.5 1.9zm4.7-3.3c-.6.2-.9.7-.7 1.2.2.5.8.8 1.3.7l-.6-1.9zm5.7.3c.6-.2.8-.8.6-1.3-.2-.5-.8-.8-1.4-.6l.8 1.9zm4-3.8c-.5.2-.8.8-.5 1.3.3.5.9.7 1.4.5l-.9-1.8zm5.7-.5c.5-.3.7-.9.4-1.4-.3-.5-.9-.7-1.5-.4l1.1 1.8zm3.4-4.2c-.5.3-.6.9-.3 1.4.3.5 1 .6 1.5.3l-1.2-1.7zm5.5-1c.5-.3.6-.9.3-1.4-.3-.5-1-.6-1.5-.3l1.2 1.7zm3.1-4.5c-.5.3-.6.9-.2 1.4.3.4 1 .5 1.5.2l-1.3-1.6zm5.5-1.3c.5-.3.6-1 .2-1.4-.3-.4-1-.5-1.5-.2l1.3 1.6zm3-4.5c-.5.3-.6.9-.3 1.4.3.5 1 .6 1.5.2l-1.2-1.6zm5.5-1.1c.5-.3.6-.9.3-1.4-.3-.5-1-.6-1.5-.3l1.2 1.7zm3.4-4.3c-.5.3-.7.9-.4 1.4.3.5 1 .6 1.5.3l-1.1-1.7zm5.6-.6c.5-.3.7-.9.5-1.3-.3-.5-.9-.7-1.4-.4l.9 1.7zm3.8-3.9c-.5.2-.8.8-.6 1.3.2.5.9.7 1.4.5l-.8-1.8zm5.7.1c.6-.2.9-.7.7-1.3-.2-.5-.8-.8-1.4-.6l.7 1.9zm4.4-3.3c-.6.1-.9.7-.8 1.2.1.5.7.9 1.3.7l-.5-1.9zm5.6.9c.6-.1 1-.6.9-1.2-.1-.5-.7-.9-1.2-.8l.3 2zm4.9-2.6c-.6.1-1 .5-1 1.1.1.6.6 1 1.2.9l-.2-2zm5.4 1.6c.6 0 1.1-.5 1-1 0-.6-.5-1-1.1-1l.1 2zm5.2-2c-.6 0-1.1.4-1.1 1s.5 1 1 1l.1-2zm5.2 2.3c.6 0 1.1-.4 1.1-.9s-.4-1-1-1.1l-.1 2zm5.4-1.5c-.6-.1-1.1.3-1.2.9-.1.5.3 1 .9 1.1l.3-2zm4.9 2.7c.6.1 1.1-.3 1.2-.8.1-.5-.3-1.1-.9-1.2l-.3 2zm5.5-1.1c-.6-.1-1.1.2-1.3.8-.1.5.3 1.1.8 1.2l.5-2zm4.7 3c.6.1 1.2-.2 1.3-.7.1-.5-.2-1.1-.8-1.2l-.5 1.9zm5.6-.7c-.6-.1-1.2.2-1.3.7-.2.5.2 1.1.8 1.2l.5-1.9zm-207.6 15.6c.7.5 1.5 1 2.2 1.5l1.2-1.6c-.8-.5-1.5-1-2.2-1.5l-1.2 1.6zm6.8 4.4c1.5.9 3.1 1.8 4.7 2.7l1.1-1.7c-1.6-.9-3.2-1.7-4.6-2.6l-1.2 1.6zm9.6 5.1c1.6.8 3.3 1.5 5 2.2l.9-1.8c-1.7-.7-3.3-1.4-4.9-2.2l-1 1.8zm10.1 4.2c1.7.6 3.4 1.2 5.2 1.8l.7-1.9c-1.7-.5-3.4-1.1-5.1-1.7l-.8 1.8zm10.5 3.3c1.7.5 3.5.9 5.4 1.2l.5-2c-1.8-.4-3.5-.8-5.2-1.2l-.7 2zm10.7 2.2c1.8.3 3.6.5 5.5.7l.2-2c-1.8-.2-3.6-.4-5.4-.7l-.3 2zm11 1.1c1.8.1 3.7.1 5.5.1v-2c-1.8 0-3.6 0-5.4-.1l-.1 2zm11.1-.2c1.8-.1 3.6-.3 5.5-.5l-.3-2c-1.8.2-3.6.4-5.4.5l.2 2zm11-1.3c1.8-.3 3.6-.7 5.4-1.1l-.5-1.9c-1.8.4-3.5.8-5.3 1.1l.4 1.9zm10.7-2.5c.9-.3 1.8-.5 2.6-.8l-.7-1.9c-.9.3-1.7.5-2.6.8l.7 1.9zm2.6-.8c.9-.3 1.7-.5 2.5-.8l-.8-1.9c-.8.3-1.6.6-2.4.8l.7 1.9zm7.4-2.8c1.6-.7 3.2-1.5 4.7-2.3l-1-1.7c-1.5.8-3 1.5-4.6 2.2l.9 1.8zm9.3-4.8c1.5-.9 3-1.8 4.4-2.7l-1.2-1.6c-1.4.9-2.9 1.8-4.3 2.7l1.1 1.6zm8.7-5.6c1.4-1 2.8-1.9 4.3-2.9l-1.3-1.6c-1.4 1-2.8 1.9-4.2 2.9l1.2 1.6zm8.5-5.7c1.4-.9 2.8-1.9 4.3-2.8l-1.2-1.7c-1.5.9-2.9 1.8-4.4 2.8l1.3 1.7zm8.8-5.4c1.5-.8 3-1.6 4.5-2.3l-1-1.8c-1.6.8-3.1 1.6-4.6 2.4l1.1 1.7zm9.2-4.4c1.6-.6 3.2-1.2 4.8-1.7l-.7-1.9c-1.7.5-3.4 1.1-5 1.8l.9 1.8zm9.7-3.1c1.6-.4 3.3-.7 5-1l-.4-2c-1.8.3-3.5.6-5.2 1l.6 2zm10.2-1.6c1.7-.2 3.4-.3 5.2-.3l-.1-2c-1.8.1-3.6.2-5.3.3l.2 2zm10.4-.4c1.7 0 3.4.1 5.2.3l.2-2c-1.8-.1-3.6-.2-5.3-.3l-.1 2zm10.3.8c1.7.2 3.4.4 5.2.7l.4-2c-1.8-.3-3.5-.5-5.2-.7l-.4 2zm10.3 1.6c1.7.3 3.3.7 5.1 1.1l.5-1.9c-1.8-.4-3.5-.7-5.1-1.1l-.5 1.9zM2.1 1222.4c0 .6-.5 1-1.1 1-.6 0-1.1-.4-1.1-1h2.2zm92.5 113.5l-11.9 3 3.2-11.2 8.7 8.2zm-2.9.3c-.6-.1-.9-.7-.7-1.2.2-.5.7-.8 1.3-.7l-.6 1.9zm-4.5-3.3c.6.2.9.7.7 1.3-.2.5-.8.8-1.3.7l.6-2zm-5.8.3c-.6-.2-.9-.8-.7-1.3.2-.5.8-.8 1.4-.6l-.7 1.9zm-4.3-3.6c.6.2.8.8.6 1.3-.2.5-.8.8-1.4.6l.8-1.9zm-5.8-.1c-.5-.2-.8-.8-.6-1.3.2-.5.9-.7 1.4-.5l-.8 1.8zm-4.1-3.9c.5.2.8.8.5 1.3-.3.5-.9.7-1.4.5l.9-1.8zm-5.7-.4c-.5-.3-.7-.9-.4-1.4.3-.5.9-.7 1.4-.4l-1 1.8zm-3.7-4.2c.5.3.7.9.4 1.4-.3.5-1 .6-1.5.4l1.1-1.8zm-5.7-.9c-.5-.3-.6-.9-.3-1.4.3-.5 1-.6 1.5-.3l-1.2 1.7zm-3.3-4.5c.5.3.6 1 .3 1.4-.3.4-1 .6-1.5.2l1.2-1.6zm-5.6-1.4c-.5-.3-.5-1-.2-1.4.4-.4 1-.5 1.5-.2l-1.3 1.6zm-2.8-4.7c.4.4.5 1 .1 1.4-.4.4-1.1.5-1.5.1l1.4-1.5zm-5.4-1.9c-.4-.4-.4-1 0-1.4.4-.4 1.1-.4 1.5 0l-1.5 1.4zm-2.3-5c.4.4.4 1 0 1.4s-1.1.4-1.5 0l1.5-1.4zm-5.2-2.4c-.4-.4-.3-1 .1-1.4.4-.4 1.1-.3 1.5.1l-1.6 1.3zm-1.7-5.2c.4.4.3 1.1-.2 1.4-.5.3-1.1.3-1.5-.2l1.7-1.2zm-4.9-2.8c-.3-.5-.2-1.1.3-1.4.5-.3 1.2-.2 1.5.3l-1.8 1.1zm-1.2-5.4c.3.5.2 1.1-.3 1.4s-1.2.2-1.5-.3l1.8-1.1zm-4.5-3.3c-.3-.5-.1-1.1.4-1.4.5-.3 1.2-.1 1.5.4l-1.9 1zm-.6-5.4c.3.5 0 1.1-.5 1.3-.5.2-1.2 0-1.4-.5l1.9-.8zm-4.2-3.7c-.2-.5 0-1.1.6-1.3.5-.2 1.2 0 1.4.5l-2 .8zm0-5.4c.2.5-.1 1.1-.6 1.3-.6.2-1.2-.1-1.4-.6l2-.7zm-3.8-4.1c-.2-.5.1-1.1.7-1.3.6-.2 1.2.1 1.3.6l-2 .7zm.5-5.4c.2.5-.2 1.1-.7 1.2-.6.2-1.2-.2-1.3-.7l2-.5zm-3.4-4.4c-.1-.5.2-1.1.8-1.2.6-.1 1.1.2 1.3.8l-2.1.4zm1-5.4c.1.6-.3 1.1-.9 1.2-.6.1-1.1-.3-1.2-.8l2.1-.4zm-3-4.6c-.1-.6.3-1.1.9-1.1.6-.1 1.1.3 1.2.8l-2.1.3zm1.4-5.3c.1.6-.4 1.1-.9 1.1-.6.1-1.1-.3-1.2-.9l2.1-.2zM.5 1235c0-.6.4-1 1-1.1.6 0 1.1.4 1.1.9l-2.1.2zm1.8-5.1c0 .5-.4 1-1 1s-1.1-.4-1.1-1h2.1zm-2.3-5c0-.6.5-1 1.1-1 .6 0 1.1.4 1.1 1H0zm0-5.1c0-.5.5-1 1.1-1 .6 0 1.1.5 1.1 1H0zm2.3-4.9c0 .6-.5 1-1.1 1-.6 0-1.1-.5-1-1h2.1zm-2-5.1c0-.5.5-1 1.1-.9.6 0 1 .5 1 1.1l-2.1-.2zm2.5-4.8c0 .6-.6 1-1.1.9-.6 0-1-.5-1-1.1l2.1.2zm-1.6-5.2c.1-.5.6-.9 1.2-.9.6.1 1 .6 1 1.1l-2.2-.2zm2.7-4.6c-.1.5-.6.9-1.2.9-.6-.1-1-.6-.9-1.1l2.1.2zm-1.4-5.3c.1-.6.6-.9 1.2-.8.6.1 1 .6.9 1.2l-2.1-.4zm3-4.5c-.1.5-.7.9-1.2.8-.6-.1-1-.6-.9-1.2l2.1.4zm-1-5.3c.1-.5.7-.9 1.3-.8.6.1.9.7.8 1.2l-2.1-.4zm3.3-4.4c-.1.5-.7.9-1.3.7-.6-.1-.9-.7-.8-1.2l2.1.5zm-.7-5.3c.2-.5.8-.8 1.3-.7.6.2.9.7.7 1.2l-2-.5zm3.6-4.2c-.2.5-.8.8-1.4.6-.6-.2-.9-.7-.7-1.3l2.1.7zm-.2-5.4c.2-.5.8-.8 1.4-.6.6.2.8.8.6 1.3l-2-.7zm3.9-3.8c-.2.5-.9.8-1.4.5-.5-.2-.8-.8-.6-1.3l2 .8zm.2-5.4c.3-.5.9-.7 1.4-.5.5.2.8.8.5 1.3l-1.9-.8zm4.3-3.5c-.3.5-.9.7-1.4.4-.5-.3-.7-.9-.4-1.3l1.8.9zm.8-5.4c.3-.5 1-.6 1.5-.3s.7.9.4 1.4l-1.9-1.1zm4.6-3.1c-.3.5-1 .6-1.5.3s-.6-.9-.3-1.4l1.8 1.1zm1.3-5.3c.4-.4 1-.5 1.5-.2s.6.9.2 1.4l-1.7-1.2zm4.9-2.7c-.4.4-1 .5-1.5.1-.5-.3-.5-1-.1-1.4l1.6 1.3zm1.9-5c.4-.4 1.1-.4 1.5-.1.4.4.5 1 .1 1.4l-1.6-1.3zm5.3-2.2c-.4.4-1.1.4-1.5 0-.4-.4-.4-1 0-1.4l1.5 1.4zm2.4-4.8c.4-.4 1.1-.3 1.5.1.4.4.3 1-.1 1.4l-1.4-1.5zm5.5-1.6c-.5.3-1.1.3-1.5-.2-.4-.4-.3-1.1.2-1.4l1.3 1.6zm3.1-4.6c.5-.3 1.2-.2 1.5.3.3.5.2 1.1-.3 1.4l-1.2-1.7zm5.6-.9c-.5.3-1.2.1-1.5-.3-.3-.5-.1-1.1.4-1.4l1.1 1.7zm3.6-4.2c.5-.3 1.2-.1 1.4.4.3.5.1 1.1-.5 1.3l-.9-1.7zm5.8-.3c-.5.2-1.2 0-1.4-.5-.2-.5 0-1.1.6-1.3l.8 1.8zm4.2-3.6c.6-.2 1.2.1 1.4.6.2.5-.1 1.1-.7 1.3l-.7-1.9zm5.7.5c-.6.1-1.2-.2-1.3-.7-.1-.5.2-1.1.8-1.2l.5 1.9zm12.9 229.9c-1.7-.5-3.4-1-5.1-1.6l.7-1.9c1.7.5 3.4 1.1 5.1 1.6l-.7 1.9zm-10.2-3.4c-1.7-.6-3.4-1.3-5-1.9l.8-1.8c1.6.7 3.3 1.3 4.9 1.9l-.7 1.8zm-10-4c-1.6-.7-3.3-1.5-4.8-2.3l1-1.8c1.6.8 3.2 1.5 4.8 2.2l-1 1.9zm-9.6-4.7c-1.6-.8-3.1-1.7-4.6-2.7l1.2-1.7c1.5.9 3 1.8 4.6 2.6l-1.2 1.8zm-9.1-5.5c-1.5-1-2.9-2-4.4-3l1.3-1.6c1.4 1 2.8 2 4.3 3l-1.2 1.6zM39 1311c-1.4-1.1-2.7-2.2-4-3.4l1.5-1.4c1.3 1.2 2.6 2.3 4 3.3L39 1311zm-7.8-7c-1.2-1.2-2.5-2.5-3.6-3.8l1.6-1.3c1.2 1.3 2.4 2.5 3.6 3.7l-1.6 1.4zm-7.1-7.7c-1.1-1.3-2.2-2.7-3.2-4.1l1.8-1.1c1 1.4 2.1 2.7 3.1 4l-1.7 1.2zm-6.2-8.4c-.9-1.4-1.9-2.9-2.7-4.4l1.9-1c.9 1.5 1.8 2.9 2.7 4.3l-1.9 1.1zm-5.2-8.9c-.8-1.5-1.5-3.1-2.3-4.6l2-.8c.7 1.6 1.4 3.1 2.2 4.5l-1.9.9zm-4.3-9.3l-1.8-4.8 2-.6c.6 1.6 1.1 3.2 1.7 4.7l-1.9.7zm-3.3-9.7c-.5-1.6-.9-3.3-1.3-4.9l2.1-.4c.4 1.6.8 3.3 1.3 4.8l-2.1.5zm-2.5-9.9c-.3-1.6-.6-3.3-.9-5l2.1-.3c.3 1.7.6 3.3.9 4.9l-2.1.4zm-1.6-10c-.2-1.7-.4-3.3-.5-5.1l2.1-.2c.1 1.7.3 3.3.5 5l-2.1.3zM.2 1230c-.1-1.7-.1-3.3-.2-5h2.1c0 1.7.1 3.3.2 5H.2zm-.2-7.6v-2.6h2.1v2.5H0zm.1-7.6c.1-1.7.1-3.3.2-5l2.1.1c-.1 1.6-.2 3.3-.2 4.9H.1zm.6-10c.1-1.7.3-3.4.5-5l2.1.2c-.2 1.6-.3 3.3-.5 4.9l-2.1-.1zm1.1-9.9c.2-1.7.5-3.4.8-5l2.1.3c-.3 1.6-.5 3.3-.7 4.9l-2.2-.2zm1.6-9.9c.3-1.7.7-3.3 1.1-4.9l2.1.4c-.4 1.6-.7 3.2-1 4.9l-2.2-.4zm2.3-9.8c.4-1.6.9-3.2 1.4-4.8l2.1.6c-.5 1.5-.9 3.1-1.4 4.7l-2.1-.5zm3-9.6c.6-1.6 1.2-3.2 1.8-4.7l2 .7c-.6 1.5-1.2 3.1-1.8 4.7l-2-.7zm3.8-9.4c.7-1.6 1.4-3.1 2.2-4.6l1.9.8-2.1 4.5-2-.7zm4.5-9.1c.9-1.5 1.7-3 2.6-4.4l1.8 1c-.9 1.4-1.7 2.8-2.6 4.3l-1.8-.9zm5.5-8.6c1-1.4 2-2.8 3.1-4.1l1.7 1.2c-1 1.3-2 2.6-3 4l-1.8-1.1zm6.4-8.1c1.2-1.3 2.3-2.6 3.5-3.8l1.6 1.4c-1.2 1.2-2.3 2.4-3.5 3.7l-1.6-1.3zm7.3-7.4c1.3-1.2 2.6-2.3 4-3.4l1.4 1.5c-1.3 1-2.6 2.2-3.9 3.3l-1.5-1.4zm8.1-6.6c1.5-1.1 2.9-2 4.4-2.9l1.2 1.7c-1.4.9-2.8 1.8-4.3 2.9l-1.3-1.7zm8.9-5.7c1.6-.9 3.2-1.7 4.7-2.4l1 1.8c-1.5.7-3 1.5-4.6 2.3l-1.1-1.7zm9.6-4.5c1.8-.7 3.5-1.3 5-1.8l.7 1.9c-1.5.5-3.1 1.1-4.9 1.8l-.8-1.9zm10.3-3.3c.8-.2 1.5-.3 1.9-.4.2 0 .4-.1.5-.1h.1l.2 1 .2 1h-.1c-.1 0-.3.1-.5.1-.4.1-1 .2-1.8.4l-.5-2zm6.1-241l-6.1-10-6.3 10h12.4zm14.7-175.4c-.6.1-.9.7-.7 1.2.2.5.7.8 1.3.7l-.6-1.9zm-4.5 3.5c.5-.2.8-.8.6-1.3-.2-.5-.8-.8-1.4-.6l.8 1.9zm-5.7.2c-.5.2-.8.8-.5 1.3s.9.7 1.4.5l-.9-1.8zm-3.8 4c.5-.3.7-.9.4-1.4-.3-.5-.9-.7-1.5-.4l1.1 1.8zm-5.7.9c-.5.3-.7.9-.3 1.4.3.5 1 .6 1.5.3l-1.2-1.7zm-3.3 4.4c.5-.3.6-.9.3-1.4-.3-.5-1-.6-1.5-.2l1.2 1.6zm-5.6 1.4c-.5.3-.6 1-.2 1.4.4.4 1 .5 1.5.2l-1.3-1.6zm-2.9 4.7c.4-.4.5-1 .1-1.4-.4-.4-1.1-.5-1.5-.1l1.4 1.5zm-5.4 1.9c-.4.4-.5 1 0 1.4.4.4 1.1.4 1.5 0l-1.5-1.4zm-2.3 4.9c.4-.4.4-1 0-1.4-.4-.4-1.1-.4-1.5 0l1.5 1.4zm-5.2 2.4c-.4.4-.3 1 .1 1.4.4.4 1.1.3 1.5-.1l-1.6-1.3zm-1.8 5.1c.4-.4.3-1.1-.2-1.4-.5-.3-1.1-.3-1.5.2l1.7 1.2zm-5 2.9c-.3.5-.2 1.1.3 1.4.5.3 1.1.2 1.5-.2l-1.8-1.2zm-1.2 5.2c.3-.5.2-1.1-.3-1.4-.5-.3-1.2-.2-1.5.3l1.8 1.1zm-4.5 3.4c-.3.5-.1 1.1.4 1.4.5.3 1.2.1 1.5-.4l-1.9-1zm-.6 5.4c.3-.5 0-1.1-.5-1.3-.5-.2-1.2 0-1.4.5l1.9.8zm-4 3.8c-.2.5.1 1.1.6 1.3s1.2 0 1.4-.6l-2-.7zm.2 5.4c.2-.5-.1-1.1-.7-1.3-.6-.2-1.2.1-1.3.6l2 .7zm-3.6 4.3c-.1.5.2 1.1.8 1.2.6.1 1.2-.2 1.3-.7l-2.1-.5zm1 5.3c.1-.5-.3-1.1-.9-1.2-.6-.1-1.1.3-1.2.8l2.1.4zm-2.9 4.7c-.1.5.4 1 1 1.1.6.1 1.1-.3 1.2-.9l-2.2-.2zm1.8 5.2c0-.6-.4-1-1-1s-1.1.4-1.1 1h2.1zm-2.2 5c0 .6.5 1 1.1 1s1.1-.5 1.1-1h-2.2zm2.4 4.9c0-.6-.5-1-1.1-.9-.6 0-1 .5-1 1.1l2.1-.2zm-1.8 5.2c.1.5.6 1 1.2.9.6 0 1-.5 1-1.1l-2.2.2zm2.7 4.7c-.1-.5-.6-.9-1.2-.9-.6.1-1 .6-.9 1.1l2.1-.2zm-1.3 5.3c.1.5.7.9 1.2.8.6-.1 1-.6.9-1.2l-2.1.4zm3.1 4.6c-.1-.5-.7-.9-1.3-.8-.6.1-.9.6-.8 1.2l2.1-.4zm-.8 5.3c.1.5.7.9 1.3.7.6-.1.9-.7.8-1.2l-2.1.5zm3.5 4.3c-.2-.5-.8-.8-1.3-.7-.6.2-.9.7-.7 1.2l2-.5zm-.4 5.4c.2.5.8.8 1.4.6.6-.2.8-.8.7-1.3l-2.1.7zm3.9 4c-.2-.5-.8-.8-1.4-.5-.5.2-.8.8-.6 1.3l2-.8zm.2 5.4c.2.5.9.7 1.4.5.5-.2.8-.8.5-1.3l-1.9.8zm4.3 3.6c-.3-.5-.9-.7-1.4-.4-.5.3-.7.9-.5 1.3l1.9-.9zm.7 5.3c.3.5 1 .6 1.5.4.5-.3.7-.9.4-1.4l-1.9 1zm4.6 3.2c-.3-.5-1-.6-1.5-.3s-.6.9-.3 1.4l1.8-1.1zm1.3 5.3c.3.4 1 .5 1.5.2s.6-.9.2-1.4l-1.7 1.2zm5 2.8c-.4-.4-1-.5-1.5-.2s-.5 1-.2 1.4l1.7-1.2zm1.8 5.1c.4.4 1.1.5 1.5.1.4-.4.5-1 .1-1.4l-1.6 1.3zm5.2 2.3c-.4-.4-1.1-.4-1.5 0-.4.4-.4 1 0 1.4l1.5-1.4zm2.4 5c.4.4 1.1.3 1.5-.1.4-.4.4-1-.1-1.4l-1.4 1.5zm5.4 1.7c-.5-.4-1.1-.3-1.5.1-.4.4-.3 1.1.1 1.4l1.4-1.5zm3 4.7c.5.3 1.1.2 1.5-.2.3-.4.2-1.1-.2-1.4l-1.3 1.6zm5.6 1.2c-.5-.3-1.2-.2-1.5.3-.3.5-.2 1.1.3 1.4l1.2-1.7zm19-173.9c-.9.2-1.7.4-2.7.6l.6 1.9c.9-.2 1.7-.4 2.5-.6l-.4-1.9zm-7.8 2.2c-1.6.6-3.3 1.3-5 2l.9 1.8c1.7-.8 3.3-1.4 4.9-2l-.8-1.8zm-9.9 4.4c-1.5.8-3.1 1.7-4.7 2.6l1.1 1.7c1.5-.9 3.1-1.8 4.6-2.5l-1-1.8zm-9.2 5.4c-1.5 1-2.9 2-4.4 3l1.3 1.6c1.4-1 2.9-2 4.3-3l-1.2-1.6zm-8.5 6.2c-1.4 1.1-2.7 2.2-4 3.4l1.5 1.5c1.3-1.1 2.6-2.3 4-3.3l-1.5-1.6zm-8 7c-1.2 1.2-2.5 2.4-3.7 3.7l1.6 1.3c1.2-1.3 2.4-2.5 3.6-3.7l-1.5-1.3zm-7.1 7.6c-1.1 1.3-2.2 2.7-3.3 4.1l1.7 1.2c1-1.4 2.1-2.7 3.2-4l-1.6-1.3zm-6.3 8.3c-1 1.4-1.9 2.9-2.8 4.4l1.9 1c.9-1.5 1.8-2.9 2.7-4.3l-1.8-1.1zm-5.2 8.9c-.8 1.5-1.5 3.1-2.2 4.7l2 .7c.7-1.5 1.4-3.1 2.1-4.6l-1.9-.8zm-4 9.5c-.6 1.6-1 3.2-1.5 4.9l2.1.5c.4-1.6.9-3.2 1.4-4.8l-2-.6zm-2.6 9.9c-.3 1.7-.6 3.3-.8 5l2.1.2c.2-1.7.4-3.3.7-4.9l-2-.3zm-1.1 10.1v2.6h2.1v-2.5l-2.1-.1zm-.1 2.5v2.6h2.1V768h-2.1zm.2 7.6c.1 1.7.2 3.4.4 5l2.1-.2c-.2-1.6-.3-3.3-.4-5l-2.1.2zm1 10.1c.2 1.7.5 3.4.8 5l2.1-.3c-.3-1.6-.6-3.3-.8-4.9l-2.1.2zm1.8 10c.4 1.7.8 3.3 1.2 4.9l2.1-.5-1.2-4.8-2.1.4zm2.7 9.8c.5 1.6 1.1 3.2 1.7 4.8l2-.7c-.6-1.5-1.1-3.1-1.7-4.7l-2 .6zm3.6 9.5c.7 1.6 1.4 3.1 2.2 4.6l1.9-.8c-.7-1.5-1.4-3-2.1-4.6l-2 .8zm4.6 9.2c.9 1.5 1.7 3 2.6 4.4l1.8-1c-.9-1.4-1.7-2.8-2.6-4.3l-1.8.9zm5.4 8.7c1 1.5 2 2.8 3.1 4.2l1.7-1.2c-1-1.3-2-2.7-3-4.1l-1.8 1.1zm6.4 8.2c1.2 1.4 2.3 2.7 3.5 3.9l1.6-1.3c-1.1-1.2-2.3-2.5-3.4-3.8l-1.7 1.2zm7.2 7.6c1.3 1.3 2.6 2.4 3.9 3.5l1.4-1.5c-1.2-1.1-2.5-2.2-3.8-3.5l-1.5 1.5zm8 6.9c1.5 1.2 3 2.2 4.3 3.1l1.3-1.6c-1.3-.9-2.7-1.9-4.2-3l-1.4 1.5zm608-202.6l10.5-6.1-10.9-5.4.4 11.5zm.8-160.6c-.3-.4-1-.6-1.5-.2-.5.3-.6.9-.2 1.4l1.7-1.2zm1.4 158.8c.3-.5.1-1.1-.4-1.4-.5-.3-1.2-.1-1.4.4l1.8 1zm.5-5.3c-.3.5-.1 1.1.5 1.3.5.2 1.2 0 1.4-.4l-1.9-.9zm4.2-3.6c.3-.5 0-1.1-.5-1.3-.5-.2-1.2 0-1.4.5l1.9.8zm.3-5.3c-.2.5 0 1.1.5 1.3.5.2 1.2 0 1.4-.5l-1.9-.8zm4.1-3.8c.2-.5 0-1.1-.6-1.3-.5-.2-1.2 0-1.4.5l2 .8zm0-5.4c-.2.5.1 1.1.6 1.3.6.2 1.2-.1 1.4-.6l-2-.7zm3.9-3.9c.2-.5-.1-1.1-.6-1.3-.6-.2-1.2.1-1.4.6l2 .7zm-.3-5.4c-.2.5.1 1.1.7 1.3.6.2 1.2-.1 1.4-.6l-2.1-.7zm3.7-4.1c.2-.5-.1-1.1-.7-1.2-.6-.2-1.2.1-1.3.7l2 .5zm-.6-5.4c-.2.5.2 1.1.7 1.2.6.1 1.2-.2 1.3-.7l-2-.5zm3.4-4.3c.1-.5-.2-1.1-.8-1.2-.6-.1-1.2.2-1.3.7l2.1.5zm-.9-5.3c-.1.5.2 1.1.8 1.2.6.1 1.1-.2 1.3-.8l-2.1-.4zm3.2-4.5c.1-.5-.3-1.1-.9-1.2s-1.1.3-1.2.8l2.1.4zm-1.2-5.2c-.1.5.3 1.1.9 1.1.6.1 1.1-.3 1.2-.8l-2.1-.3zm2.8-4.6c.1-.5-.3-1-.9-1.1-.6-.1-1.1.3-1.2.9l2.1.2zm-1.5-5.2c-.1.5.4 1 1 1.1.6 0 1.1-.4 1.2-.9l-2.2-.2zm2.5-4.8c0-.6-.4-1-1-1.1-.6 0-1.1.4-1.1.9l2.1.2zm-2-5.1c0 .6.5 1 1 1 .6 0 1.1-.4 1.1-1h-2.1zm2.2-4.9c0-.6-.5-1-1.1-1-.6 0-1.1.5-1.1 1h2.2zm-2.3-5c0 .6.5 1 1.1.9.6 0 1-.5 1-1.1l-2.1.2zm1.7-5.1c-.1-.5-.6-1-1.2-.9-.6 0-1 .5-1 1.1l2.2-.2zm-2.7-4.7c.1.5.6.9 1.2.9.6-.1 1-.6.9-1.1l-2.1.2zm1.4-5.2c-.1-.5-.6-.9-1.2-.8-.6.1-1 .6-.9 1.2l2.1-.4zm-3.1-4.5c.1.5.7.9 1.3.8.6-.1.9-.6.8-1.2l-2.1.4zm.8-5.3c-.1-.5-.7-.9-1.3-.7-.6.1-.9.7-.8 1.2l2.1-.5zm-3.4-4.3c.2.5.8.8 1.3.7.6-.2.9-.7.7-1.2l-2 .5zm.4-5.3c-.2-.5-.8-.8-1.4-.6-.6.2-.9.7-.7 1.3l2.1-.7zm-3.8-4c.2.5.8.8 1.4.6.6-.2.8-.8.6-1.3l-2 .7zm-.1-5.4c-.2-.5-.9-.7-1.4-.5-.5.2-.8.8-.6 1.3l2-.8zm-4.1-3.7c.3.5.9.7 1.4.5.5-.2.8-.8.5-1.3l-1.9.8zm-.5-5.3c-.3-.5-.9-.7-1.4-.4-.5.3-.7.9-.4 1.4l1.8-1zm-4.5-3.4c.3.5 1 .6 1.5.4.5-.3.7-.9.4-1.4l-1.9 1zm-1-5.3c-.3-.5-1-.6-1.5-.3s-.6.9-.3 1.4l1.8-1.1zm-4.7-3c.3.5 1 .6 1.5.3s.6-.9.3-1.4l-1.8 1.1zm4 151.2c.8-1.4 1.5-2.9 2.4-4.5l-1.9-.9c-.8 1.6-1.6 3.1-2.3 4.5l1.8.9zm4.6-9c.7-1.5 1.4-3 2.1-4.6l-2-.8c-.7 1.6-1.4 3.1-2.1 4.5l2 .9zm4.1-9.3c.6-1.5 1.3-3.1 1.9-4.7l-2-.7c-.6 1.6-1.2 3.1-1.9 4.6l2 .8zm3.6-9.4c.6-1.6 1.1-3.1 1.6-4.8l-2-.6c-.5 1.6-1.1 3.2-1.6 4.7l2 .7zm3.2-9.5c.5-1.6.9-3.2 1.4-4.8l-2.1-.5c-.4 1.6-.9 3.2-1.3 4.8l2 .5zm2.5-9.7c.4-1.6.7-3.3 1.1-4.9l-2.1-.4c-.3 1.6-.7 3.3-1 4.8l2 .5zm2-9.9c.3-1.6.5-3.3.7-5l-2.1-.2c-.2 1.6-.5 3.3-.7 4.9l2.1.3zm1.3-9.9c.2-1.7.3-3.3.4-5l-2.1-.1c-.1 1.7-.2 3.3-.4 4.9l2.1.2zm.6-10v-5H700v4.9l2.1.1zm-.2-10.1c-.1-1.7-.2-3.3-.4-5l-2.1.2c.2 1.6.3 3.3.4 4.9l2.1-.1zm-1-9.9c-.2-1.6-.5-3.3-.8-5l-2.1.3c.3 1.6.6 3.3.8 4.9l2.1-.2zm-1.7-9.9c-.4-1.6-.8-3.3-1.2-4.9l-2.1.5 1.2 4.8 2.1-.4zm-2.7-9.8c-.5-1.6-1-3.2-1.6-4.8l-2 .6c.6 1.6 1.1 3.1 1.6 4.7l2-.5zm-3.4-9.4c-.6-1.5-1.3-3.1-2-4.6l-2 .8c.7 1.5 1.4 3 2 4.6l2-.8zm-4.3-9.2l-2.4-4.5-1.9.9c.8 1.5 1.6 2.9 2.4 4.4l1.9-.8zm-5.1-8.9c-.9-1.4-1.8-2.9-2.8-4.3l-1.8 1.1c1 1.4 1.9 2.8 2.8 4.2l1.8-1zm-5.7-8.4c-.5-.7-1-1.4-1.6-2.1l-1.7 1.2c.5.7 1 1.4 1.5 2l1.8-1.1zm-20.1 596.5l12.3-1.2-7.3-9.3-5 10.5zm18.4-191.8c-.5-.4-1.1-.3-1.5.1-.4.4-.3 1.1.1 1.4l1.4-1.5zm-15.6 191.1c.5-.3.6-.9.2-1.4-.4-.4-1-.5-1.5-.2l1.3 1.6zm2.9-4.6c-.5.4-.5 1-.2 1.4.4.4 1 .5 1.5.1l-1.3-1.5zm5.4-1.7c.4-.4.5-1 .1-1.4-.4-.4-1.1-.4-1.5-.1l1.4 1.5zm2.5-4.9c-.4.4-.4 1 0 1.4.4.4 1.1.4 1.5 0l-1.5-1.4zm5.2-2.1c.4-.4.4-1 0-1.4-.4-.4-1.1-.4-1.5 0l1.5 1.4zm2-5c-.4.4-.3 1.1.1 1.4.4.4 1.1.3 1.5-.1l-1.6-1.3zm5.1-2.6c.4-.4.3-1.1-.2-1.4-.5-.3-1.1-.3-1.5.2l1.7 1.2zm1.5-5.1c-.4.4-.3 1.1.2 1.4.5.3 1.1.2 1.5-.2l-1.7-1.2zm4.9-2.9c.3-.4.2-1.1-.3-1.4-.5-.3-1.2-.2-1.5.3l1.8 1.1zm1.1-5.2c-.3.5-.2 1.1.3 1.4.5.3 1.2.2 1.5-.3l-1.8-1.1zm4.6-3.3c.3-.5.1-1.1-.4-1.4-.5-.3-1.2-.1-1.5.4l1.9 1zm.7-5.3c-.3.5-.1 1.1.4 1.3.5.3 1.2.1 1.4-.4l-1.8-.9zm4.3-3.5c.3-.5 0-1.1-.5-1.3s-1.2 0-1.4.5l1.9.8zm.3-5.4c-.2.5 0 1.1.5 1.3.5.2 1.2 0 1.4-.5l-1.9-.8zm4-3.8c.2-.5 0-1.1-.6-1.3-.5-.2-1.2 0-1.4.6l2 .7zm-.1-5.3c-.2.5.1 1.1.6 1.3.6.2 1.2-.1 1.4-.6l-2-.7zm3.7-4.1c.2-.5-.1-1.1-.7-1.3-.6-.2-1.2.1-1.3.6l2 .7zm-.5-5.3c-.2.5.2 1.1.7 1.2.6.2 1.2-.2 1.3-.7l-2-.5zm3.4-4.3c.1-.5-.2-1.1-.8-1.2-.6-.1-1.2.2-1.3.7l2.1.5zm-1-5.3c-.1.5.3 1.1.8 1.2s1.1-.2 1.3-.8l-2.1-.4zm3.1-4.5c.1-.5-.3-1.1-.9-1.1-.6-.1-1.1.3-1.2.8l2.1.3zm-1.3-5.2c-.1.5.3 1 .9 1.1.6.1 1.1-.3 1.2-.9l-2.1-.2zm2.7-4.8c.1-.5-.4-1-1-1.1-.6 0-1.1.4-1.2.9l2.2.2zm-1.7-5.1c0 .5.4 1 1 1s1.1-.4 1.1-.9l-2.1-.1zm2.3-4.9c0-.6-.5-1-1-1-.6 0-1.1.4-1.1 1h2.1zm-2.1-4.9c0 .6.5 1 1.1 1 .6 0 1.1-.5 1-1h-2.1zm1.9-5.1c0-.6-.5-1-1.1-.9-.6 0-1 .5-1 1.1l2.1-.2zm-2.5-4.8c.1.5.6 1 1.2.9.6-.1 1-.5 1-1.1l-2.2.2zm1.5-5.1c-.1-.5-.6-.9-1.2-.9-.6.1-1 .6-.9 1.1l2.1-.2zm-2.9-4.6c.1.5.7.9 1.2.8.6-.1 1-.6.9-1.2l-2.1.4zm1-5.3c-.1-.5-.7-.9-1.3-.8s-.9.7-.8 1.2l2.1-.4zm-3.3-4.4c.2.5.7.8 1.3.7.6-.1.9-.7.8-1.2l-2.1.5zm.5-5.3c-.2-.5-.8-.8-1.3-.7-.6.2-.9.7-.7 1.3l2-.6zm-3.7-4c.2.5.8.8 1.4.6.6-.2.8-.8.6-1.3l-2 .7zm0-5.4c-.2-.5-.9-.7-1.4-.5-.5.2-.8.8-.6 1.3l2-.8zm-4.1-3.7c.3.5.9.7 1.4.5.5-.2.8-.8.5-1.3l-1.9.8zm-.5-5.3c-.3-.5-.9-.7-1.4-.4-.5.3-.7.9-.4 1.4l1.8-1zm-4.5-3.4c.3.5 1 .6 1.5.3s.7-.9.4-1.4l-1.9 1.1zm-1.1-5.2c-.3-.5-1-.6-1.5-.3s-.6.9-.3 1.4l1.8-1.1zm-4.8-2.9c.4.4 1 .5 1.5.2s.6-1 .2-1.4l-1.7 1.2zm-1.6-5.1c-.4-.4-1.1-.5-1.5-.1-.5.4-.5 1-.1 1.4l1.6-1.3zm-5.1-2.4c.4.4 1.1.4 1.5 0 .4-.4.5-1 .1-1.4l-1.6 1.4zm-2.2-5c-.4-.4-1.1-.4-1.5 0-.4.4-.4 1 0 1.4l1.5-1.4zm-5.4-1.9c.4.4 1.1.3 1.5-.1.4-.4.3-1-.1-1.4l-1.4 1.5zm-12 184.9c1.4-1.1 2.7-2.1 4.1-3.3l-1.4-1.5c-1.3 1.1-2.6 2.2-4 3.2l1.3 1.6zm8-6.7c1.3-1.2 2.5-2.3 3.8-3.6l-1.6-1.4c-1.2 1.2-2.4 2.4-3.7 3.5l1.5 1.5zm7.4-7.2c1.2-1.3 2.3-2.5 3.4-3.8l-1.7-1.3c-1.1 1.3-2.2 2.5-3.4 3.8l1.7 1.3zm6.7-7.8c1.1-1.3 2.1-2.7 3.1-4.1l-1.8-1.1c-1 1.4-2 2.7-3.1 4l1.8 1.2zm6.1-8.3c1-1.4 1.9-2.8 2.8-4.3l-1.9-1-2.7 4.2 1.8 1.1zm5.4-8.6l2.4-4.5-1.9-.9c-.8 1.5-1.6 2.9-2.4 4.4l1.9 1zm4.6-9c.7-1.5 1.4-3.1 2.1-4.6l-2-.7c-.6 1.5-1.3 3-2 4.6l1.9.7zm4-9.3c.6-1.6 1.2-3.2 1.7-4.8l-2-.6c-.5 1.6-1.1 3.1-1.7 4.7l2 .7zm3.2-9.6c.5-1.6.9-3.2 1.3-4.8l-2.1-.5c-.4 1.6-.9 3.2-1.3 4.8l2.1.5zm2.5-9.7c.4-1.6.7-3.3 1-4.9l-2.1-.3c-.3 1.6-.6 3.2-1 4.8l2.1.4zm1.8-9.9c.2-1.7.4-3.3.6-5l-2.1-.2c-.2 1.6-.4 3.3-.6 4.9l2.1.3zm1-10c.1-1.7.2-3.3.2-5h-2.1c0 1.6-.1 3.3-.2 4.9l2.1.1zm.2-10c0-1.7-.1-3.3-.2-5l-2.1.1c.1 1.6.2 3.3.2 4.9h2.1zm-.6-10c-.2-1.7-.4-3.3-.6-5l-2.1.3c.2 1.6.4 3.3.6 4.9l2.1-.2zm-1.4-9.9c-.3-1.6-.7-3.3-1.1-4.9l-2.1.4c.4 1.6.7 3.2 1 4.8l2.2-.3zm-2.4-9.8l-1.5-4.8-2 .6c.5 1.6 1 3.1 1.5 4.7l2-.5zm-3.2-9.5c-.6-1.6-1.3-3.1-2-4.7l-2 .8c.7 1.5 1.3 3 1.9 4.6l2.1-.7zm-4.2-9.3l-2.4-4.5-1.9 1c.8 1.4 1.6 2.9 2.4 4.4l1.9-.9zm-5.1-8.8c-.9-1.4-1.9-2.8-2.9-4.2l-1.8 1.1c1 1.4 1.9 2.7 2.8 4.1l1.9-1zm-6-8.3l-3.3-3.9-1.6 1.3c1.1 1.3 2.2 2.5 3.3 3.8l1.6-1.2zm-6.9-7.7c-1.2-1.2-2.5-2.4-3.8-3.6l-1.5 1.4c1.3 1.1 2.5 2.3 3.7 3.5l1.6-1.3zm-7.7-7c-.7-.5-1.4-1.1-2.1-1.6l-1.4 1.5c.7.5 1.4 1.1 2 1.6l1.5-1.5zM257.1 57.5c-.5-.3-1.2-.1-1.4.4-.3.5-.1 1.1.4 1.4l1-1.8zm208.4.9l-12.3.3 6.5 9.8 5.8-10.1zm-207.2 2c.5.3 1.2.1 1.5-.4.3-.5.1-1.1-.4-1.4l-1.1 1.8zm5.7.7c-.5-.3-1.2-.1-1.5.4-.3.5-.1 1.1.4 1.4l1.1-1.8zm3.6 4.1c.5.3 1.2.1 1.5-.4.3-.5.1-1.1-.4-1.4l-1.1 1.8zm5.7.6c-.5-.3-1.2-.1-1.4.4-.3.5-.1 1.1.4 1.4l1-1.8zm3.7 4.1c.5.3 1.2.1 1.4-.4.3-.5.1-1.1-.5-1.3l-.9 1.7zm5.7.4c-.5-.2-1.2 0-1.4.5-.3.5 0 1.1.5 1.3l.9-1.8zm3.8 3.9c.5.2 1.2 0 1.4-.5.2-.5 0-1.1-.5-1.3l-.9 1.8zm5.7.2c-.5-.2-1.2 0-1.4.5-.2.5 0 1.1.6 1.3l.8-1.8zm4 3.8c.5.2 1.2 0 1.4-.5.2-.5 0-1.1-.6-1.3l-.8 1.8zm5.8 0c-.6-.2-1.2.1-1.4.6-.2.5.1 1.1.6 1.3l.8-1.9zm4.2 3.5c.6.2 1.2-.1 1.4-.6.2-.5-.1-1.1-.7-1.3l-.7 1.9zm5.7-.3c-.6-.2-1.2.1-1.3.7-.2.5.1 1.1.7 1.3l.6-2zm4.5 3.3c.6.2 1.2-.2 1.3-.7.2-.5-.2-1.1-.7-1.2l-.6 1.9zm5.6-.6c-.6-.1-1.2.2-1.3.7-.1.5.2 1.1.8 1.2l.5-1.9zm4.7 3c.6.1 1.1-.2 1.3-.8.1-.5-.2-1.1-.8-1.2l-.5 2zm5.6-1c-.6-.1-1.1.3-1.2.8-.1.5.3 1.1.9 1.2l.3-2zm4.8 2.8c.6.1 1.1-.3 1.2-.8s-.3-1.1-.9-1.1l-.3 1.9zm5.6-1.3c-.6-.1-1.1.3-1.2.9-.1.5.4 1 .9 1.1l.3-2zm5 2.5c.6 0 1.1-.4 1.2-.9 0-.6-.4-1-1-1.1l-.2 2zm5.4-1.7c-.6 0-1.1.4-1.1 1s.4 1 1 1l.1-2zm5.3 2.1c.6 0 1.1-.4 1.1-1s-.5-1-1.1-1v2zm5.3-2c-.6 0-1.1.5-1 1 0 .6.5 1 1.1 1l-.1-2zm5.3 1.8c.6 0 1-.5 1-1.1 0-.6-.5-1-1.1-.9l.1 2zm5.1-2.3c-.6 0-1 .5-1 1.1.1.6.6 1 1.2.9l-.2-2zm5.5 1.5c.6-.1 1-.6.9-1.1-.1-.5-.6-.9-1.2-.9l.3 2zm5-2.7c-.6.1-1 .6-.9 1.1.1.5.6.9 1.2.8l-.3-1.9zm5.5 1.2c.6-.1 1-.6.9-1.2-.1-.5-.7-.9-1.2-.8l.3 2zm4.8-2.9c-.6.1-.9.6-.8 1.2.1.5.7.9 1.3.8l-.5-2zm5.7.8c.6-.1.9-.7.8-1.2-.1-.5-.7-.9-1.3-.7l.5 1.9zm4.5-3.2c-.6.1-.9.7-.7 1.2.2.5.7.8 1.3.7l-.6-1.9zm5.7.6c.6-.2.9-.7.7-1.2-.2-.5-.8-.8-1.3-.7l.6 1.9zm4.4-3.4c-.6.2-.9.7-.7 1.3.2.5.8.8 1.4.6l-.7-1.9zm5.7.2c.6-.2.8-.8.6-1.3-.2-.5-.8-.8-1.4-.6l.8 1.9zm4.2-3.6c-.5.2-.8.8-.6 1.3s.8.8 1.4.6l-.8-1.9zm5.7 0c.5-.2.8-.8.6-1.3-.2-.5-.9-.7-1.4-.5l.8 1.8zm4-3.8c-.5.2-.8.8-.5 1.3.2.5.9.7 1.4.5l-.9-1.8zm5.7-.3c.5-.2.8-.8.5-1.3s-.9-.7-1.4-.5l.9 1.8zm3.8-4c-.5.2-.7.9-.5 1.3.3.5.9.7 1.4.4l-.9-1.7zm5.6-.5c.5-.3.7-.9.4-1.4-.3-.5-.9-.7-1.4-.4l1 1.8zm3.7-4.1c-.5.3-.7.9-.4 1.4.3.5.9.7 1.5.4l-1.1-1.8zm5.6-.7c.5-.3.7-.9.4-1.4-.3-.5-1-.6-1.5-.4l1.1 1.8zm3.5-4.3c-.5.3-.7.9-.4 1.4.3.5 1 .6 1.5.3l-1.1-1.7zm-206.7.4c.7.4 1.5.8 2.3 1.2l1-1.8c-.8-.4-1.6-.8-2.3-1.2l-1 1.8zm7 3.6c1.5.8 3 1.6 4.6 2.4l1-1.8c-1.6-.8-3.1-1.6-4.6-2.4l-1 1.8zm9.3 4.8c1.5.8 3.1 1.5 4.7 2.3l1-1.8c-1.6-.8-3.2-1.5-4.7-2.3l-1 1.8zm9.4 4.5l4.8 2.1.9-1.8-4.8-2.1-.9 1.8zm9.6 4.2c1.6.7 3.2 1.3 4.9 1.9l.8-1.9c-1.6-.6-3.3-1.3-4.8-1.9l-.9 1.9zm9.9 3.7c1.6.6 3.3 1.1 5 1.7l.7-1.9c-1.7-.5-3.3-1.1-4.9-1.7l-.8 1.9zm10.1 3.3c1.7.5 3.4 1 5.1 1.4l.6-1.9c-1.7-.5-3.4-.9-5-1.4l-.7 1.9zm10.2 2.7c1.7.4 3.4.8 5.2 1.1l.5-2c-1.7-.3-3.4-.7-5.1-1.1l-.6 2zm10.4 2.1c1.7.3 3.5.6 5.3.8l.3-2c-1.7-.2-3.5-.5-5.2-.8l-.4 2zm10.5 1.5c1.7.2 3.5.4 5.3.5l.2-2c-1.8-.1-3.5-.3-5.2-.5l-.3 2zm10.6.8c1.8.1 3.5.1 5.3.2v-2c-1.8 0-3.5-.1-5.2-.2l-.1 2zm10.7.1c1.8 0 3.5-.1 5.3-.2l-.1-2c-1.8.1-3.5.1-5.2.2v2zm10.6-.5c1.8-.1 3.5-.3 5.3-.5l-.3-2c-1.8.2-3.5.4-5.2.5l.2 2zm10.6-1.2c1.7-.2 3.5-.5 5.2-.8l-.4-2c-1.7.3-3.5.6-5.2.8l.4 2zm10.5-1.8c1.7-.3 3.4-.7 5.2-1.1L400 84c-1.7.4-3.4.8-5.1 1.1l.5 1.9zm10.3-2.3c1.7-.4 3.4-.9 5.1-1.4l-.6-1.9c-1.7.5-3.4 1-5.1 1.4l.6 1.9zm10.2-2.9c1.7-.5 3.3-1.1 5-1.7l-.7-1.9c-1.7.6-3.3 1.1-5 1.6l.7 2zm9.9-3.5c1.6-.6 3.3-1.2 4.9-1.9l-.8-1.8c-1.6.6-3.3 1.3-4.9 1.9l.8 1.8zm9.8-3.8l4.8-2.1-.9-1.8-4.8 2.1.9 1.8zm9.6-4.3c1.6-.7 3.1-1.5 4.7-2.3l-1-1.8c-1.6.8-3.1 1.5-4.7 2.3l1 1.8zm9.4-4.7c1.5-.8 3.1-1.6 4.6-2.5l-1.1-1.7c-1.5.8-3.1 1.6-4.6 2.4l1.1 1.8zM249.8 425.6c-.6.2-.9.7-.7 1.3.2.5.8.8 1.3.7l-.6-2zm66.2 14.2c-.4-.4-1.1-.3-1.5.1-.4.4-.4 1 .1 1.4l1.4-1.5zm180 33.3l-12.1-2.5 3.7 11 8.4-8.5zm-243-46.3c.6-.2.9-.7.7-1.2-.2-.5-.8-.8-1.3-.7l.6 1.9zm4.8-3.2c-.6.1-.9.7-.8 1.2.1.5.7.9 1.3.7l-.5-1.9zm5.7 1c.6-.1 1-.6.9-1.1-.1-.5-.6-.9-1.2-.8l.3 1.9zm5.2-2.6c-.6 0-1 .5-1 1.1 0 .6.6 1 1.1.9l-.1-2zm5.5 1.9c.6 0 1.1-.4 1.1-1s-.4-1-1-1l-.1 2zm5.6-1.6c-.6-.1-1.1.3-1.2.9-.1.5.3 1.1.9 1.1l.3-2zm4.9 2.9c.6.1 1.2-.2 1.3-.7.1-.5-.2-1.1-.8-1.2l-.5 1.9zm5.8-.4c-.6-.2-1.2.1-1.4.6-.2.5.1 1.1.6 1.3l.8-1.9zm4.2 3.8c.5.2 1.2 0 1.4-.5.3-.5 0-1.1-.5-1.3l-.9 1.8zm5.8.6c-.5-.3-1.2-.1-1.5.4-.3.5-.1 1.1.4 1.4l1.1-1.8zm3.5 4.4c.5.3 1.2.2 1.5-.3.3-.5.2-1.1-.3-1.4l-1.2 1.7zm5.7 1.3c-.5-.3-1.1-.3-1.5.2-.4.4-.3 1.1.2 1.4l1.3-1.6zm2.9 4.8c.5.4 1.1.3 1.5-.1.4-.4.3-1.1-.1-1.4l-1.4 1.5zm4.1 3.3c.4.4 1.1.3 1.5-.1.4-.4.3-1-.1-1.4l-1.4 1.5zm5.4 1.8c-.5-.4-1.1-.3-1.5.1-.4.4-.3 1.1.1 1.4l1.4-1.5zm2.8 4.8c.5.4 1.1.3 1.5-.1s.3-1.1-.1-1.4l-1.4 1.5zm5.6 1.6c-.5-.3-1.1-.3-1.5.2-.4.4-.3 1.1.2 1.4l1.3-1.6zm3 4.7c.5.3 1.1.2 1.5-.2.4-.4.3-1.1-.2-1.4l-1.3 1.6zm5.6 1.3c-.5-.3-1.1-.2-1.5.2-.3.5-.2 1.1.3 1.4l1.2-1.6zm3.2 4.5c.5.3 1.2.2 1.5-.3.3-.5.2-1.1-.3-1.4l-1.2 1.7zm5.7 1.1c-.5-.3-1.2-.1-1.5.3-.3.5-.2 1.1.3 1.4l1.2-1.7zm3.6 4.3c.5.3 1.2.1 1.5-.4.3-.5.1-1.1-.4-1.4l-1.1 1.8zm5.7.7c-.5-.3-1.2-.1-1.4.4-.3.5-.1 1.1.4 1.4l1-1.8zm3.9 4.1c.5.2 1.2 0 1.4-.5.3-.5 0-1.1-.5-1.3l-.9 1.8zm5.8.4c-.5-.2-1.2 0-1.4.5-.2.5 0 1.1.5 1.3l.9-1.8zm4.1 3.8c.5.2 1.2 0 1.4-.6.2-.5 0-1.1-.6-1.3l-.8 1.9zm5.8-.1c-.6-.2-1.2.1-1.4.6-.2.5.1 1.1.6 1.3l.8-1.9zm4.5 3.5c.6.2 1.2-.1 1.3-.7s-.1-1.1-.7-1.3l-.6 2zm5.8-.5c-.6-.1-1.2.2-1.3.7-.2.5.2 1.1.8 1.2l.5-1.9zm4.7 3.1c.6.1 1.1-.2 1.3-.8.1-.5-.2-1.1-.8-1.2l-.5 2zm5.7-.9c-.6-.1-1.1.3-1.2.8-.1.5.3 1.1.9 1.2l.3-2zm5 2.8c.6.1 1.1-.3 1.2-.8.1-.5-.3-1.1-.9-1.1l-.3 1.9zm5.7-1.3c-.6-.1-1.1.3-1.2.9-.1.5.4 1 .9 1.1l.3-2zm5.1 2.5c.6 0 1.1-.4 1.1-.9 0-.6-.4-1-1-1.1l-.1 2zm5.6-1.8c-.6 0-1.1.4-1.1 1s.4 1 1 1l.1-2zm5.3 2.2c.6 0 1.1-.4 1.1-1s-.5-1-1.1-1v2zm5.4-2.1c-.6 0-1.1.5-1 1 0 .6.5 1 1.1 1l-.1-2zm5.5 1.8c.6 0 1-.5 1-1.1 0-.6-.5-1-1.1-.9l.1 2zm5.2-2.3c-.6 0-1 .5-1 1.1 0 .6.6 1 1.2.9l-.2-2zm5.6 1.5c.6-.1 1-.6.9-1.1-.1-.5-.6-.9-1.2-.9l.3 2zm5.1-2.6c-.6.1-1 .6-.9 1.1s.6.9 1.2.9l-.3-2zm5.7 1.2c.6-.1 1-.6.9-1.1s-.6-.9-1.2-.8l.3 1.9zm4.9-2.8c-.6.1-1 .6-.9 1.2.1.5.7.9 1.2.8l-.3-2zm5.7.9c.6-.1.9-.6.8-1.2-.1-.5-.7-.9-1.3-.8l.5 2zm4.9-3c-.6.1-.9.7-.8 1.2.1.5.7.9 1.3.7l-.5-1.9zm5.7.7c.6-.1.9-.7.8-1.2-.1-.5-.7-.9-1.3-.7l.5 1.9zm4.7-3.2c-.6.1-.9.7-.7 1.2.2.5.7.8 1.3.7l-.6-1.9zm5.8.6c.6-.2.9-.7.7-1.2-.2-.5-.8-.8-1.3-.7l.6 1.9zm4.6-3.4c-.6.2-.9.7-.7 1.3.2.5.8.8 1.3.7l-.6-2zm-242.6-45.4c.9-.3 1.7-.5 2.6-.7l-.6-1.9c-.9.2-1.7.5-2.6.8l.6 1.8zm7.7-2c1.8-.4 3.5-.7 5.3-1l-.3-2c-1.8.3-3.6.6-5.4 1l.4 2zm10.6-1.5c1.8-.1 3.6-.2 5.3-.1l.1-2c-1.8 0-3.7 0-5.5.1l.1 2zm10.7.3c1.7.2 3.5.5 5.2.9l.5-1.9c-1.8-.4-3.6-.7-5.5-1l-.2 2zm10.3 2.4c1.6.5 3.3 1.2 4.9 1.9l.9-1.8c-1.7-.8-3.4-1.4-5.1-2l-.7 1.9zm9.7 4.2c1.5.8 3 1.7 4.6 2.7l1.2-1.7c-1.6-1-3.1-1.9-4.7-2.7l-1.1 1.7zm8.9 5.6c1.4 1 2.8 2 4.2 3.2l1.4-1.5c-1.4-1.1-2.9-2.2-4.3-3.2l-1.3 1.5zm6.2 4.8c.7.6 1.4 1.1 2 1.7l1.4-1.5c-.7-.6-1.3-1.1-2-1.7l-1.4 1.5zm6.2 5l4.2 3.3 1.4-1.5c-1.4-1.1-2.8-2.1-4.1-3.2l-1.5 1.4zm8.4 6.5c1.4 1 2.9 2.1 4.3 3.1l1.3-1.6c-1.4-1-2.9-2-4.3-3.1l-1.3 1.6zm8.7 6.1c1.5 1 3 1.9 4.5 2.9l1.2-1.7c-1.5-.9-3-1.9-4.4-2.9l-1.3 1.7zm9 5.6c1.5.9 3.1 1.8 4.7 2.6l1.1-1.7c-1.6-.8-3.1-1.7-4.6-2.6l-1.2 1.7zm9.4 5.1c1.6.8 3.2 1.6 4.8 2.3l.9-1.8c-1.6-.7-3.2-1.5-4.8-2.3l-.9 1.8zm9.8 4.5c1.6.7 3.3 1.3 5 2l.8-1.9c-1.7-.6-3.3-1.3-4.9-2l-.9 1.9zm10.1 3.8c1.7.6 3.4 1.1 5.2 1.6l.6-1.9c-1.7-.5-3.4-1-5.1-1.6l-.7 1.9zm10.4 3c1.7.4 3.5.8 5.3 1.2l.5-1.9c-1.8-.4-3.5-.8-5.2-1.2l-.6 1.9zm10.6 2.3c1.8.3 3.6.6 5.4.8l.3-2c-1.8-.2-3.6-.5-5.3-.8l-.4 2zm10.8 1.5c1.8.2 3.6.3 5.4.5l.2-2c-1.8-.1-3.6-.3-5.3-.5l-.3 2zm10.9.7c1.8.1 3.6.1 5.4.1v-2c-1.8 0-3.6-.1-5.4-.1v2zm10.8.1c1.8 0 3.6-.1 5.4-.2l-.1-2c-1.8.1-3.6.2-5.4.2l.1 2zm10.9-.5c1.8-.1 3.6-.3 5.4-.5l-.2-2c-1.8.2-3.6.3-5.3.5l.1 2zm10.8-1.1c1.8-.2 3.6-.5 5.4-.8l-.3-2c-1.8.3-3.6.5-5.3.7l.2 2.1zm10.7-1.7c1.8-.3 3.5-.6 5.3-1l-.4-2c-1.8.3-3.5.7-5.3 1l.4 2zm10.7-2.1c1.7-.4 3.5-.8 5.3-1.2l-.5-1.9c-1.8.4-3.5.8-5.2 1.2l.4 1.9zm10.5-2.4c1.7-.4 3.5-.9 5.2-1.4l-.6-1.9c-1.8.5-3.5.9-5.2 1.4l.6 1.9z" fill="#fff" fill-opacity=".6"/></svg>