<svg xmlns="http://www.w3.org/2000/svg" viewBox="0 0 1277.83 797.29"><path d="M1267.34 163.7a1 1 0 10-1.78.9zm-.89 88.45l9.88-6-10.12-5.56zm.17-85.31a1 1 0 101.82-.83zm3.8 3.93a1 1 0 10-1.87.71zm-.2 5.44a1 1 0 101.9-.63zm3.38 4.27a1 1 0 00-1.92.54zm-.69 5.41a1.025 1.025 0 102-.45zm3 4.56a1.017 1.017 0 10-2 .37zm-1.15 5.33a1 1 0 001.13.85 1 1 0 00.85-1.13zm2.58 4.8a1.005 1.005 0 00-2 .19zm-1.63 5.2a1.001 1.001 0 002-.09zm2.12 5a1 1 0 00-2 0zm-2.13 5a1.002 1.002 0 002 .11zm1.59 5.22a1.005 1.005 0 10-2-.21zm-2.66 4.76a1 1 0 00.83 1.14 1 1 0 001.15-.82zm1 5.36a1.025 1.025 0 00-2-.45zm-3.21 4.4a1 1 0 00.68 1.24 1 1 0 001.24-.67zm.32 5.44a1 1 0 10-1.88-.68zm-3.76 4a1 1 0 101.83.81zm-.41 5.43a1 1 0 10-1.77-.93zm-3-85.79c.34.7.7 1.44 1.06 2.24l1.82-.83c-.37-.81-.73-1.58-1.1-2.31zm3 6.88q.86 2.22 1.67 4.73l1.9-.63c-.55-1.69-1.12-3.3-1.7-4.81zm3.13 9.54c.43 1.57.85 3.19 1.23 4.87l2-.45c-.39-1.7-.81-3.36-1.26-5zm2.26 9.8c.3 1.62.58 3.27.82 5l2-.28c-.25-1.72-.52-3.4-.83-5zm1.41 10c.15 1.65.28 3.32.36 5l2-.09c-.09-1.73-.21-3.43-.37-5.11zm.48 10c0 1.66 0 3.33-.13 5l2 .11c.09-1.72.13-3.43.13-5.12zm-.53 10c-.17 1.65-.39 3.31-.67 5l2 .32c.28-1.7.5-3.39.68-5.08zm-1.63 9.88q-.54 2.43-1.26 4.85l1.92.57q.73-2.49 1.29-5zm-2.82 9.61c-.57 1.55-1.19 3.1-1.88 4.64l1.83.81q1.05-2.37 1.93-4.77zm-145.32 69.84a1.005 1.005 0 10-.2-2zm-115.1-19.5l-.56.83zm-119 0l11.27 2.5-3.47-11zm2.72.19a1 1 0 00-.59-1.91zm4.31-3.34a1 1 0 10.54 1.92zm5.44.6a1 1 0 00.72-1.21 1 1 0 00-1.19-.74zm4.47-3.16a1.002 1.002 0 10.46 1.95zm5.41.83a1 1 0 00.77-1.19 1 1 0 00-1.19-.77zm4.58-3a1.019 1.019 0 10.39 2zm5.38 1a1 1 0 00.81-1.16 1 1 0 00-1.16-.81zm4.7-2.82a1.012 1.012 0 10.31 2zm5.32 1.24a1 1 0 00.86-1.13 1 1 0 00-1.13-.85zm4.8-2.63a1.007 1.007 0 00.24 2zm5.28 1.46a1 1 0 00.9-1.09 1 1 0 00-1.09-.9zm4.91-2.42a1.002 1.002 0 00.14 2zm5.2 1.71a1.001 1.001 0 10-.09-2zm5-2.16a1 1 0 100 2zm5.1 2a1 1 0 001-1 1 1 0 00-1-1zm5.15-1.85a1 1 0 00-1 .95 1 1 0 001 1.05zm5 2.33a1.004 1.004 0 00.17-2zm5.28-1.46a1.008 1.008 0 10-.25 2zm4.74 2.73a1 1 0 001.16-.81 1 1 0 00-.81-1.16zm5.39-.95a1 1 0 10-.45 1.95zm4.41 3.24a1.001 1.001 0 00.57-1.92zm5.47-.27a1 1 0 00-1.29.58 1 1 0 00.58 1.29zm3.9 3.83a1 1 0 10.86-1.8zm5.43.65a1 1 0 10-1 1.71zm3.16 4.41a1 1 0 001.38-.33 1 1 0 00-.32-1.37zm5.28.73a1 1 0 10-.94 1.76zm3.52 4a1.002 1.002 0 10.84-1.82zm5.33.11a1.003 1.003 0 00-.75 1.86zm3.92 3.6a1 1 0 10.66-1.88zm5.3-.36a1 1 0 10-.59 1.91zm4.18 3.28a1 1 0 10.52-1.93zm5.28-.73a1 1 0 10-.46 1.94zm4.38 3a1 1 0 001.18-.78 1 1 0 00-.78-1.18zm5.22-1a1.015 1.015 0 00-.35 2zm4.53 2.79a1.012 1.012 0 10.31-2zm5.17-1.28a1.008 1.008 0 10-.26 2zm4.65 2.58a1.006 1.006 0 10.22-2zm5.11-1.49a1.005 1.005 0 00-.19 2zm4.75 2.41a1.003 1.003 0 00.15-2zm5-1.67a1.002 1.002 0 10-.11 2zm4.83 2.23a1 1 0 00.08-2zm5-1.84a1 1 0 100 2zm4.9 2.08a1 1 0 100-2zm4.93-2a1 1 0 100 2zm5 1.92a1 1 0 001-1 1 1 0 00-1-1zm4.87-2.17a1 1 0 00-1 1.05 1 1 0 001 .95zm5 1.75a1.002 1.002 0 10-.12-2zm4.76-2.35a1.004 1.004 0 10.17 2zm-223.89-19q2.35-.66 4.9-1.32l-.47-1.93q-2.57.66-4.94 1.33zm9.83-2.53c1.61-.38 3.26-.76 5-1.12l-.42-2c-1.7.37-3.37.75-5 1.13zm9.92-2.15c1.63-.32 3.3-.63 5-.93l-.35-2c-1.7.3-3.38.61-5 .94zm10-1.77c1.65-.26 3.33-.51 5-.74l-.27-2c-1.7.23-3.39.48-5 .74zm10-1.38c1.67-.2 3.35-.37 5-.53l-.19-2c-1.7.16-3.4.33-5.09.53zm10.09-.95c1.69-.12 3.38-.22 5.06-.29l-.09-2c-1.7.08-3.4.18-5.11.29zm10.13-.45h5.06v-2h-5.13zm10.12.14c1.69.08 3.38.19 5 .33l.17-2c-1.69-.14-3.4-.25-5.12-.33zm10.07.85c1.69.22 3.35.47 5 .75l.35-2c-1.68-.29-3.37-.54-5.09-.76zm9.93 1.75c1.65.39 3.27.81 4.86 1.29l.57-1.92c-1.63-.49-3.29-.92-5-1.32zm9.62 2.89q2.37.9 4.61 2l.86-1.8a51.35 51.35 0 00-4.76-2zm9 4.32c.72.43 1.42.88 2.1 1.34l1.12-1.66c-.71-.48-1.44-.95-2.19-1.39zm2.1 1.34c.69.46 1.38.91 2.09 1.36l1.06-1.7c-.69-.43-1.37-.87-2-1.32zm6.43 3.85q2.18 1.15 4.46 2.21l.84-1.82c-1.49-.68-3-1.4-4.36-2.15zm9 4.18c1.53.61 3.08 1.19 4.67 1.74l.66-1.88q-2.34-.83-4.58-1.72zm9.38 3.29c1.57.48 3.17.94 4.77 1.37l.52-1.93q-2.37-.64-4.7-1.35zm9.59 2.58c1.6.38 3.22.74 4.84 1.07l.4-2c-1.6-.33-3.2-.68-4.78-1zm9.71 2c1.62.29 3.25.56 4.88.82l.31-2c-1.62-.25-3.23-.52-4.84-.81zm9.79 1.52c1.64.22 3.28.42 4.91.6l.22-2-4.87-.6zm9.83 1.11c1.66.15 3.3.29 4.94.41l.15-2c-1.63-.12-3.26-.25-4.9-.41zm9.88.73c1.66.1 3.31.18 4.94.24l.08-2c-1.62-.06-3.26-.14-4.91-.23zm9.88.4c1.67 0 3.33.07 5 .08v-2c-1.62 0-3.26 0-4.92-.08zm9.9.08c1.69 0 3.33 0 4.94-.08v-2c-1.6 0-3.23.07-4.91.08zm9.89-.25c1.72-.07 3.37-.16 4.94-.25l-.12-2c-1.56.1-3.2.18-4.9.25zm9.87-.61l2.47-.23-.2-2-2.44.22zm-576.03-21.19l5.91 9.92 5.64-10.08zm1.7 2.1a1 1 0 001.36-.4 1 1 0 00-.39-1.35zm5.33.58a1.002 1.002 0 10-.92 1.78zm3.55 4a1 1 0 10.88-1.79zm5.35.33a1.002 1.002 0 00-.84 1.82zm3.74 3.86a1.001 1.001 0 00.79-1.84zm5.36.07a1.003 1.003 0 00-.75 1.86zm3.91 3.67a1 1 0 001.29-.58 1 1 0 00-.58-1.29zm5.37-.18a1 1 0 00-1.28.62 1 1 0 00.62 1.27zm4.07 3.49a1.004 1.004 0 00.62-1.91zm5.36-.43a1 1 0 10-.58 1.91zm4.23 3.29a1 1 0 10.53-1.93zm5.32-.67a1 1 0 00-.49 1.94zm4.39 3.1a1 1 0 00.44-1.95zm5.28-.91a1.02 1.02 0 10-.4 2zm4.51 2.91a1 1 0 001.17-.81 1 1 0 00-.81-1.16zm5.25-1.14a1.012 1.012 0 00-.31 2zm4.63 2.71a1.01 1.01 0 00.27-2zm5.19-1.35a1.007 1.007 0 10-.23 2zm4.75 2.51a1.005 1.005 0 00.19-2zm5.12-1.57a1.003 1.003 0 00-.15 2zm4.84 2.33a1 1 0 001.06-1 1 1 0 00-.95-1zm5.07-1.77a1 1 0 10-.07 2zm4.92 2.13a1 1 0 001-1 1 1 0 00-1-1zm5-2a1 1 0 000 2zm5 1.94a1 1 0 000-2zm4.91-2.15a1 1 0 10.08 2zm5.06 1.75a1.002 1.002 0 10-.12-2zm4.85-2.34a1.003 1.003 0 00.15 2zm5.13 1.57a1.005 1.005 0 00-.19-2zm4.74-2.51a1.007 1.007 0 10.23 2zm5.18 1.37a1.01 1.01 0 00-.27-2zm4.66-2.68a1 1 0 00-.84 1.14 1 1 0 001.14.84zm5.24 1.18a1.014 1.014 0 10-.34-2zm4.54-2.85a1.018 1.018 0 00.38 2zm5.27 1a1 1 0 00.78-1.19 1 1 0 00-1.19-.77zm4.43-3a1 1 0 10.45 1.95zm5.3.79a1 1 0 00.73-1.22 1 1 0 00-1.21-.72zm4.32-3.2a1 1 0 10.53 1.93zm5.34.57a1 1 0 10-.56-1.92zm4.17-3.38a1.003 1.003 0 00.61 1.91zm5.35.32a1 1 0 00-.65-1.89zm4-3.58a1 1 0 00-.58 1.29 1 1 0 001.3.58zm5.39 0a1 1 0 10-.77-1.84zm-199-7.43q2.24 1.16 4.47 2.25l.88-1.79q-2.22-1.08-4.43-2.24zm9 4.4q2.28 1 4.58 2l.79-1.84c-1.51-.65-3-1.33-4.53-2zm9.19 4c1.55.62 3.11 1.23 4.66 1.81l.71-1.87q-2.31-.87-4.62-1.8zm9.37 3.52c1.58.55 3.15 1.08 4.73 1.6l.62-1.91q-2.36-.75-4.69-1.58zm9.51 3.08c1.61.49 3.21.94 4.81 1.38l.53-1.93c-1.59-.43-3.17-.89-4.76-1.36zm9.64 2.65c1.63.41 3.25.79 4.88 1.16l.44-1.95c-1.61-.36-3.22-.75-4.83-1.15zm9.76 2.21c1.64.34 3.28.65 4.91.95l.36-2c-1.62-.29-3.24-.61-4.87-.94zm9.85 1.79c1.65.26 3.3.5 4.94.73l.27-2c-1.63-.22-3.26-.47-4.9-.73zm9.9 1.36c1.66.2 3.32.37 5 .53l.19-2c-1.64-.16-3.29-.33-4.94-.52zm10 1l5 .33.11-2q-2.46-.14-5-.33zm10 .55c1.67.07 3.34.11 5 .14v-2c-1.65 0-3.3-.07-5-.13zm10 .17q2.52 0 5-.06v-2c-1.64 0-3.3.06-5 .06zm10-.21c1.67-.07 3.33-.15 5-.25l-.12-2c-1.63.1-3.28.18-4.94.25zm10-.59c1.68-.13 3.34-.28 5-.43l-.19-2c-1.63.16-3.28.31-4.94.43zm9.95-1c1.66-.19 3.31-.39 5-.61l-.27-2c-1.62.21-3.26.42-4.91.61zm9.91-1.31c1.66-.26 3.31-.52 4.94-.8l-.34-2c-1.61.27-3.25.54-4.9.79zm9.86-1.69c1.65-.31 3.29-.63 4.89-1l-.41-2c-1.59.33-3.21.66-4.86 1zm9.77-2c1.65-.38 3.27-.77 4.85-1.16l-.48-1.94c-1.58.39-3.18.78-4.82 1.15zm9.7-2.43c1.64-.44 3.25-.9 4.81-1.36l-.56-1.92q-2.34.69-4.78 1.35zm9.59-2.83q2.46-.8 4.74-1.59l-.65-1.89q-2.26.8-4.7 1.57zm9.46-3.3q2.44-.94 4.67-1.87l-.77-1.84q-2.19.92-4.62 1.84zm-194.08 472.7l7.26 9 4.15-10.78zm2 1.83a1 1 0 001.28-.59 1 1 0 00-.58-1.28zm5.38-.17a1.003 1.003 0 10-.67 1.89zm4.09 3.5a1 1 0 10.63-1.9zm5.37-.4a1 1 0 00-1.24.67 1 1 0 00.66 1.24zm4.22 3.33a1 1 0 10.55-1.92zm5.35-.6a1 1 0 10-.51 1.93zm4.35 3.18a1 1 0 10.48-1.94zm5.33-.78a1 1 0 00-1.2.75 1 1 0 00.75 1.2zm4.44 3a1 1 0 10.42-1.95zm5.3-.95a1 1 0 00-1.18.79 1 1 0 00.79 1.17zm4.53 2.91a1.016 1.016 0 00.36-2zm5.27-1.1a1.014 1.014 0 00-.33 2zm4.62 2.77a1.011 1.011 0 10.3-2zm5.23-1.23a1.01 1.01 0 10-.28 2zm4.68 2.65a1.008 1.008 0 10.26-2zm5.21-1.36a1.007 1.007 0 10-.23 2zm4.74 2.54a1.005 1.005 0 10.21-2zm5.17-1.49a1 1 0 00-1.09.9 1 1 0 00.91 1.09zm4.81 2.43a1.003 1.003 0 00.16-2zm5.11-1.56a1.003 1.003 0 10-.15 2zm4.85 2.32a1 1 0 001.06-.94 1 1 0 00-.94-1.06zm5.1-1.72a1.001 1.001 0 00-.1 2zm4.91 2.21a1 1 0 001-1 1 1 0 00-1-1zm5.06-1.83a1 1 0 00-.06 2zm5 2.11a1 1 0 100-2zm5-1.94a1 1 0 100 2zm5 2a1 1 0 000-2zm5-2a1 1 0 000 2zm5 1.9a1 1 0 10-.05-2zm4.93-2.16a1 1 0 00.08 2zm5.08 1.79a1.001 1.001 0 00-.09-2zm4.89-2.26a1 1 0 00-.94 1.06 1 1 0 001.05.93zm5.11 1.67a1.002 1.002 0 10-.14-2zm4.83-2.37a1 1 0 00-.91 1.08 1 1 0 001.08.91zm5.16 1.56a1.005 1.005 0 00-.19-2zm4.78-2.49a1.005 1.005 0 10.21 2zm5.18 1.44a1.007 1.007 0 00-.23-2zm4.72-2.6a1.008 1.008 0 10.25 2zm5.22 1.3a1.01 1.01 0 10-.28-2zm4.65-2.71a1.012 1.012 0 10.31 2zm5.25 1.16a1.014 1.014 0 00-.34-2zm4.57-2.84a1.016 1.016 0 10.36 2zm5.29 1a1 1 0 00.78-1.18 1 1 0 00-1.17-.78zm-203.1-10.49q2.36.83 4.76 1.61l.63-1.9q-2.4-.78-4.72-1.6zm9.55 3.12q2.38.74 4.8 1.42l.55-1.92q-2.4-.69-4.77-1.41zm9.64 2.75q2.4.65 4.86 1.25l.48-1.94c-1.62-.4-3.23-.82-4.83-1.24zm9.74 2.42q2.43.55 4.89 1.08l.42-1.95q-2.45-.53-4.86-1.08zm9.8 2.09c1.63.33 3.27.64 4.92 1l.36-2c-1.64-.3-3.27-.62-4.89-.94zm9.86 1.82c1.64.28 3.29.55 5 .8l.3-2-4.92-.8zm9.9 1.55c1.65.23 3.3.46 5 .67l.26-2c-1.65-.21-3.3-.44-4.94-.67zm9.94 1.29c1.65.2 3.31.38 5 .56l.21-2-4.95-.55zm10 1.06l5 .44.16-2c-1.66-.13-3.31-.28-5-.43zm10 .82c1.67.12 3.33.23 5 .33l.12-2c-1.66-.09-3.32-.2-5-.32zm10 .61l5 .21.07-2-5-.22zm10 .38c1.67 0 3.34.08 5 .11v-2c-1.66 0-3.32-.06-5-.11zm10 .17h5v-2h-5zm10 0c1.68 0 3.34-.06 5-.1l-.05-2c-1.66 0-3.32.08-5 .1zm10-.26c1.67-.06 3.34-.13 5-.21l-.09-2c-1.66.08-3.32.15-5 .21zm10-.48c1.67-.09 3.34-.2 5-.32l-.14-2-5 .32zm10-.7c1.67-.13 3.33-.28 5-.43l-.19-2c-1.65.15-3.31.3-5 .43zm10-.93c1.66-.17 3.32-.36 5-.55l-.23-2c-1.65.19-3.3.38-5 .55zm9.94-1.17c1.67-.21 3.32-.44 5-.68l-.28-2c-1.64.24-3.29.46-4.94.68zm9.93-1.42c1.65-.26 3.3-.53 4.94-.81l-.34-2c-1.63.28-3.27.55-4.91.81zm9.87-1.69c1.66-.3 3.3-.62 4.93-.95l-.39-2-4.9 1zM182.45 260.65l11.54.42-5.41-10.2zm2.67-.28a1.002 1.002 0 00-.92-1.78zm3.51-4a1 1 0 10.89 1.79zm5.34-.35a1.002 1.002 0 00-.84-1.82zm3.68-3.87a1 1 0 00-.52 1.32 1 1 0 001.32.51zm5.36-.11a1.002 1.002 0 00-.77-1.85zm3.84-3.69a1 1 0 10.72 1.86zm5.36.13a1 1 0 00.6-1.28 1 1 0 00-1.28-.61zm4-3.52a1 1 0 00.63 1.9zm5.33.38a1 1 0 10-.59-1.91zm4.19-3.33a1.003 1.003 0 00.55 1.93zm5.29.64a1.002 1.002 0 10-.5-1.94zm4.35-3.14a1.002 1.002 0 00.46 1.95zm5.27.88a1 1 0 00.81-1.24 1 1 0 00-1.18-.78zm4.47-2.92a1.017 1.017 0 10.37 2zm5.24 1.12a1 1 0 00.82-1.15 1 1 0 00-1.14-.83zm4.59-2.71a1 1 0 00-.85 1.12 1 1 0 001.13.86zm5.18 1.36a1.007 1.007 0 10-.23-2zm4.73-2.5a1.004 1.004 0 00.18 2zm5.09 1.6a1 1 0 00.93-1.07 1 1 0 00-1.07-.93zm4.85-2.28a1.001 1.001 0 10.09 2zm5 1.83a1 1 0 000-2zm4.92-2.05a1 1 0 000 2zm4.95 2.06a1 1 0 001-1 1 1 0 00-1-1zm5-1.83a1.001 1.001 0 10-.09 2zm4.83 2.27a1.002 1.002 0 00.13-2zm5.09-1.6a1 1 0 00-1.08.9 1 1 0 00.91 1.09zm4.75 2.49a1.006 1.006 0 00.22-2zm5.16-1.38a1 1 0 00-1.12.86 1 1 0 00.85 1.12zm4.61 2.7a1.012 1.012 0 00.31-2zm5.22-1.15a1.015 1.015 0 00-.35 2zm4.51 2.9a1 1 0 001.17-.78 1 1 0 00-.78-1.18zm5.26-.91a1 1 0 00-.44 1.95zm4.36 3.09a1 1 0 001.21-.72 1 1 0 00-.72-1.22zm5.29-.67a1 1 0 00-.53 1.92zm4.21 3.28a1 1 0 001.25-.67 1 1 0 00-.67-1.24zm5.34-.42a1 1 0 10-.62 1.9zm4.16 3.48a1 1 0 10.67-1.88zm5.35-.16a1 1 0 10-.71 1.86zm3.87 3.68a1 1 0 10.76-1.85zm5.34.12a1 1 0 10-.81 1.82zm3.65 3.9a1 1 0 10.87-1.8zm5.32.44a1 1 0 00-.93 1.77zm3.39 4.16a1 1 0 101-1.73zm-194.85-2.14c1.48-.74 3-1.45 4.45-2.14l-.84-1.82q-2.25 1.07-4.5 2.17zm8.93-4.2c1.52-.67 3-1.31 4.56-1.94l-.77-1.85c-1.53.63-3.06 1.29-4.59 2zm9.12-3.77c1.55-.6 3.09-1.18 4.64-1.73l-.68-1.89c-1.56.57-3.12 1.15-4.68 1.76zm9.29-3.35c1.57-.53 3.14-1 4.7-1.52l-.59-1.91q-2.37.74-4.74 1.53zm9.44-2.92c1.58-.46 3.16-.88 4.74-1.29l-.5-1.94c-1.59.41-3.19.85-4.79 1.3zm9.55-2.48c1.61-.38 3.21-.73 4.81-1.07l-.41-2c-1.62.34-3.23.7-4.86 1.08zm9.65-2c1.63-.3 3.25-.58 4.87-.84l-.32-2c-1.63.27-3.27.55-4.92.86zm9.74-1.57c1.64-.23 3.27-.44 4.9-.62l-.23-2q-2.46.28-4.95.63zm9.81-1.13c1.64-.15 3.28-.28 4.91-.39l-.14-2c-1.64.12-3.29.25-4.95.4zm9.85-.67c1.65-.07 3.3-.13 4.93-.17v-2c-1.65 0-3.31.1-5 .17zm9.85-.22q2.49 0 4.95.06l.05-2c-1.66 0-3.32-.06-5-.06zm9.89.22c1.65.08 3.29.17 4.92.28l.13-2c-1.64-.11-3.3-.21-5-.28zm9.84.67c1.65.15 3.29.32 4.92.5l.22-2c-1.64-.18-3.29-.35-5-.5zm9.81 1.1c1.65.23 3.27.47 4.88.72l.31-2q-2.43-.37-4.92-.72zm9.75 1.54q2.46.45 4.86.93l.39-2c-1.61-.33-3.24-.64-4.9-.94zm9.68 2q2.43.56 4.8 1.14l.49-1.94c-1.59-.4-3.21-.78-4.85-1.15zm9.56 2.39c1.61.44 3.19.9 4.74 1.36l.58-1.91c-1.57-.47-3.16-.93-4.79-1.37zm9.46 2.84q2.4.78 4.68 1.58l.67-1.88q-2.31-.83-4.73-1.6zm9.32 3.28c1.57.6 3.09 1.21 4.58 1.82l.76-1.85c-1.5-.62-3.05-1.23-4.63-1.83zm9.11 3.76c1.54.69 3 1.39 4.46 2.08l.87-1.8c-1.45-.7-2.95-1.41-4.52-2.1zm8.85 4.29c1.52.8 3 1.6 4.32 2.39l1-1.73q-2.07-1.2-4.4-2.43zM186.45 753.99l11.54.42-5.41-10.2zm2.67-.28a1.002 1.002 0 10-.92-1.78zm3.51-4a1 1 0 00.89 1.79zm5.34-.35a1 1 0 00.48-1.33 1 1 0 00-1.32-.48zm3.68-3.87a1 1 0 00-.52 1.32 1 1 0 001.32.51zm5.36-.11a1.002 1.002 0 00-.77-1.85zm3.84-3.69a1 1 0 10.72 1.86zm5.36.13a1 1 0 10-.68-1.88zm4-3.52a1 1 0 00.63 1.9zm5.33.38a1 1 0 00-.59-1.91zm4.19-3.33a1.003 1.003 0 00.55 1.93zm5.29.64a1.002 1.002 0 10-.5-1.94zm4.35-3.14a1.026 1.026 0 00.46 2zm5.27.88a1 1 0 00.77-1.18 1 1 0 00-1.18-.78zm4.47-2.92a1.017 1.017 0 10.37 2zm5.24 1.12a1 1 0 00.82-1.15 1 1 0 00-1.14-.83zm4.59-2.72a1.01 1.01 0 00.28 2zm5.18 1.37a1.007 1.007 0 00-.23-2zm4.73-2.5a1.004 1.004 0 00.18 2zm5.09 1.6a1.002 1.002 0 10-.14-2zm4.85-2.28a1.001 1.001 0 10.09 2zm5 1.83a1 1 0 100-2zm4.92-2a1 1 0 100 2zm4.95 2.06a1 1 0 001-1 1 1 0 00-1-1zm5-1.83a1.001 1.001 0 10-.09 2zm4.83 2.27a1.002 1.002 0 10.13-2zm5.09-1.6a1.004 1.004 0 10-.17 2zm4.75 2.49a1.006 1.006 0 00.22-2zm5.16-1.38a1.01 1.01 0 00-.27 2zm4.61 2.7a1.012 1.012 0 00.31-2zm5.22-1.15a1 1 0 00-1.16.81 1 1 0 00.81 1.16zm4.51 2.9a1 1 0 001.17-.78 1 1 0 00-.78-1.18zm5.26-.91a1.024 1.024 0 00-.44 2zm4.36 3.09a1 1 0 001.21-.72 1 1 0 00-.72-1.22zm5.29-.67a1 1 0 00-.53 1.92zm4.21 3.29a1 1 0 001.25-.68 1 1 0 00-.67-1.24zm5.34-.43a1 1 0 00-.62 1.9zm4.06 3.49a1 1 0 001.28-.62 1 1 0 00-.61-1.27zm5.35-.17a1 1 0 00-1.29.57 1 1 0 00.58 1.3zm3.87 3.68a1.051 1.051 0 10.88-1.91zm5.34.12a1 1 0 00-1.32.51 1 1 0 00.51 1.32zm3.65 3.9a1 1 0 10.87-1.8zm5.32.44a1 1 0 00-.93 1.77zm3.39 4.16a1 1 0 001-1.73zm-194.82-2.13c1.48-.73 3-1.45 4.45-2.14l-.84-1.81q-2.25 1.05-4.5 2.16zm8.93-4.18c1.52-.67 3-1.31 4.56-1.94l-.77-1.85c-1.53.63-3.06 1.29-4.59 2zm9.12-3.77c1.55-.6 3.09-1.18 4.64-1.73l-.68-1.88q-2.34.84-4.68 1.75zm9.29-3.35c1.57-.53 3.14-1 4.7-1.52l-.59-1.91q-2.37.74-4.74 1.53zm9.44-2.92q2.37-.68 4.74-1.29l-.5-1.94c-1.59.41-3.19.85-4.79 1.3zm9.55-2.48c1.61-.38 3.21-.73 4.81-1.07l-.41-2c-1.62.34-3.23.7-4.86 1.08zm9.65-2c1.63-.3 3.25-.58 4.87-.84l-.32-2c-1.63.27-3.27.55-4.92.86zm9.74-1.57c1.64-.23 3.27-.44 4.9-.62l-.23-2c-1.64.19-3.29.4-4.95.62zm9.81-1.13c1.64-.15 3.28-.28 4.91-.39l-.14-2q-2.46.16-4.95.39zm9.85-.67c1.65-.07 3.3-.13 4.93-.17v-2c-1.65 0-3.31.1-5 .17zm9.85-.22q2.49 0 4.95.06l.05-2c-1.66 0-3.32-.06-5-.06zm9.89.22c1.65.08 3.29.17 4.92.28l.13-2c-1.64-.11-3.3-.21-5-.28zm9.84.67c1.65.15 3.29.32 4.92.5l.22-2c-1.64-.18-3.29-.35-5-.5zm9.81 1.11c1.65.22 3.27.46 4.88.71l.31-2q-2.43-.37-4.92-.72zm9.75 1.53q2.46.45 4.86.93l.39-2c-1.61-.33-3.24-.64-4.9-.94zm9.68 2q2.43.56 4.8 1.14l.49-1.94c-1.59-.39-3.21-.78-4.85-1.15zm9.56 2.39c1.61.45 3.19.9 4.74 1.37l.58-1.92c-1.57-.47-3.16-.93-4.79-1.37zm9.46 2.84q2.4.78 4.68 1.59l.67-1.89c-1.54-.54-3.12-1.08-4.73-1.6zm9.32 3.29c1.57.59 3.09 1.2 4.58 1.81l.88-1.97c-1.5-.61-3.05-1.23-4.63-1.83zm9.11 3.76c1.54.68 3 1.38 4.46 2.07l.87-1.8c-1.45-.7-2.95-1.4-4.52-2.1zm8.85 4.28c1.52.8 3 1.6 4.32 2.39l1-1.73q-2.07-1.2-4.4-2.43zm540.6-731.62a1.003 1.003 0 10.8 1.84zm194.9.92l-6.52-9.5-5 10.41zm-191.85 0a1 1 0 10-.75-1.85zm4-3.7a1 1 0 00-.58 1.29 1 1 0 001.28.58zm5.37.19a1.001 1.001 0 00-.66-1.89zm4.09-3.49a1.004 1.004 0 00.62 1.91zm5.37.42a1 1 0 00.67-1.24 1 1 0 00-1.25-.67zm4.24-3.31a1 1 0 10.54 1.92zm5.35.62a1 1 0 10-.5-1.93zm4.36-3.16a1.027 1.027 0 00.47 2zm5.33.81a1 1 0 00-.43-1.95zm4.47-3a1.02 1.02 0 10.4 2zm5.28 1a1.017 1.017 0 10-.37-2zm4.51-2.88a1.014 1.014 0 10.34 2zm5.25 1.17a1.011 1.011 0 00-.3-2zm4.67-2.7a1.01 1.01 0 10.27 2zm5.22 1.35a1.007 1.007 0 00-.24-2zm4.74-2.54a1 1 0 00-.9 1.1 1 1 0 001.1.89zm5.16 1.53a1.004 1.004 0 00-.17-2zm4.83-2.37a1.002 1.002 0 00.13 2zm5.11 1.72a1 1 0 001-1.05 1 1 0 00-1-.95zm4.91-2.2a1 1 0 10.06 2zm5 1.9a1 1 0 000-2zm5-2a1 1 0 100 2zm5 2.09a1 1 0 00.06-2zm5.07-1.81a1.001 1.001 0 10-.1 2zm4.87 2.28a1 1 0 001.06-.92 1 1 0 00-.93-1.07zm5.14-1.6a1.004 1.004 0 00-.18 2zm4.77 2.49a1.006 1.006 0 10.22-2zm5.2-1.38a1.008 1.008 0 00-.26 2zm4.67 2.7a1.012 1.012 0 00.31-2zm5.26-1.15a1 1 0 00-1.16.81 1 1 0 00.8 1.16zm4.52 2.91a1.02 1.02 0 00.41-2zm5.31-.89a1 1 0 10-.45 1.95zm4.39 3.13a1.002 1.002 0 00.5-1.94zm5.39-.63a1 1 0 10-.54 1.92zm4.22 3.34a1 1 0 001.25-.66 1 1 0 00-.65-1.25zm5.38-.35a1.004 1.004 0 00-.65 1.9zm4 3.56a1 1 0 001.28-.58 1 1 0 00-.59-1.29zm5.38-.05a1 1 0 10-.75 1.85zm3.84 3.78a1 1 0 00.8-1.83zm5.37.24a1.002 1.002 0 00-.86 1.81zm-192.29 2.9l2.25-1-.75-1.85c-.79.32-1.56.64-2.3 1zm6.9-2.78q2.2-.84 4.67-1.64l-.66-1.89q-2.44.86-4.71 1.7zm9.38-3.26q2.31-.75 4.75-1.49l-.58-1.89q-2.46.73-4.79 1.49zm9.53-2.88q2.35-.66 4.81-1.3l-.5-1.93c-1.65.43-3.27.86-4.85 1.31zm9.64-2.51q2.4-.59 4.86-1.14l-.43-1.95q-2.49.55-4.9 1.14zm9.73-2.18c1.61-.33 3.23-.65 4.88-1l-.37-2c-1.66.31-3.3.64-4.91 1zm9.78-1.81c1.62-.28 3.26-.55 4.91-.8l-.3-2q-2.51.39-5 .81zm9.85-1.52q2.44-.33 5-.63l-.24-2c-1.67.2-3.33.42-5 .64zm9.89-1.18c1.64-.16 3.29-.32 5-.46l-.17-2c-1.68.14-3.34.3-5 .46zm9.92-.83c1.65-.11 3.31-.2 5-.28l-.09-2c-1.68.08-3.36.17-5 .28zm10-.48c1.65 0 3.31-.08 5-.1v-2c-1.68 0-3.35 0-5 .1zm10-.11c1.65 0 3.32 0 5 .09l.06-2c-1.68-.05-3.36-.07-5-.09zm10 .28c1.65.08 3.31.17 5 .28l.13-2c-1.67-.11-3.34-.21-5-.29zm9.93.68c1.65.14 3.3.31 5 .49l.22-2c-1.66-.18-3.33-.35-5-.5zm9.89 1.09c1.64.22 3.28.46 4.93.72l.31-2q-2.49-.39-5-.72zm9.66 1.51c1.63.3 3.26.61 4.88.94l.41-2c-1.65-.33-3.29-.65-4.93-1zm9.74 2q2.43.56 4.84 1.18l.5-1.94c-1.63-.42-3.26-.81-4.89-1.19zm9.64 2.47c1.59.45 3.17.93 4.76 1.42l.6-1.91c-1.61-.5-3.21-1-4.82-1.43zm9.49 3c1.56.53 3.12 1.09 4.68 1.66l.69-1.87c-1.57-.58-3.14-1.15-4.72-1.69zm9.31 3.46q2.3.93 4.59 1.93l.8-1.83q-2.31-1-4.64-2zM18.78 378.71a1.001 1.001 0 10-1.66-1.12zm4.17 143.94l.2-11.5-10.1 5.6zm-7.21-142.9a1 1 0 101.71 1zm-.73 5.4a1.002 1.002 0 00-1.78-.92zm-4 3.66a1 1 0 001.82.82zm-.13 5.44a1 1 0 00-.57-1.3 1 1 0 00-1.29.56zm-3.63 4a1.001 1.001 0 101.89.66zm.36 5.43a1 1 0 00-.68-1.24 1 1 0 00-1.24.67zm-3.28 4.33a1 1 0 00.72 1.22 1 1 0 001.22-.72zm.79 5.37a1.023 1.023 0 00-2-.43zm-2.94 4.56a1 1 0 00.81 1.16 1 1 0 001.16-.81zm1.18 5.31a1.01 1.01 0 10-2-.28zm-2.59 4.77a1.005 1.005 0 102 .2zm1.56 5.2a1.002 1.002 0 00-2-.13zm-2.25 4.93a1 1 0 001 1 1 1 0 001-1zM2 443.22a1 1 0 00-1-1 1 1 0 00-1 1zm-1.9 5.09a1 1 0 002-.07zm2.27 4.93a1.002 1.002 0 00-2 .14zm-1.55 5.2a1.005 1.005 0 002-.2zm2.63 4.79a1 1 0 00-1.12-.85 1 1 0 00-.86 1.12zm-1.2 5.29a1.014 1.014 0 002-.34zm2.87 4.63a1 1 0 00-1.18-.77 1 1 0 00-.78 1.18zm-.85 5.36a1 1 0 101.94-.46zm3.18 4.34a1 1 0 00-1.93.53zm-.5 5.41a1 1 0 001.25.66 1 1 0 00.66-1.25zm3.5 4.19a1 1 0 00-1.89.65zm-.18 5.43a1 1 0 001.29.58 1 1 0 00.58-1.29zm3.71 3.95a1 1 0 00-1.31-.54 1 1 0 00-.54 1.3zm.14 5.43a1 1 0 001.83-.81zm3.93 3.75a1 1 0 10-1.8.87zm.45 5.42a1 1 0 101.78-.91zm4.12 3.51a1.008 1.008 0 00-1.75 1zm-5.5-142.35q-.69 1-1.38 2.16l1.71 1c.45-.73.89-1.43 1.33-2.08zm-3.89 6.62c-.74 1.43-1.49 3-2.22 4.58l1.82.82c.72-1.58 1.45-3.08 2.18-4.48zm-4.21 9.28q-.91 2.28-1.77 4.76l1.89.66c.56-1.62 1.14-3.19 1.74-4.68zm-3.33 9.66c-.47 1.59-.93 3.22-1.36 4.9l1.94.5c.42-1.66.87-3.26 1.34-4.83zm-2.53 9.84c-.35 1.63-.68 3.29-1 5l2 .35c.3-1.67.62-3.31 1-4.91zm-1.78 10c-.23 1.65-.44 3.33-.61 5.05l2 .2c.18-1.68.38-3.34.61-5zm-1 10.12c-.11 1.67-.2 3.36-.25 5.08l2 .06c0-1.69.13-3.36.25-5zm-.33 10.16c0 1.67 0 3.36.1 5.08l2-.07c-.06-1.69-.1-3.37-.1-5zm.37 10.15c.12 1.67.27 3.36.45 5.06l2-.2c-.18-1.69-.33-3.35-.44-5zm1.03 10.08c.23 1.66.49 3.33.78 5l2-.34q-.43-2.5-.78-4.95zm1.73 10q.51 2.46 1.11 4.95l1.94-.46c-.39-1.65-.76-3.28-1.09-4.9zm2.37 9.87c.45 1.62.92 3.25 1.43 4.88l1.91-.59q-.75-2.41-1.41-4.82zm3 9.72q.81 2.39 1.71 4.78l1.87-.71q-.88-2.37-1.69-4.72zm3.57 9.49q.95 2.32 2 4.67l1.83-.81c-.69-1.55-1.35-3.08-2-4.62zm4.12 9.29q1.06 2.28 2.21 4.56l1.78-.91q-1.15-2.26-2.23-4.51zm549.15 32.88a1.002 1.002 0 10-.88 1.8zm88.06.9l-.48-.88zm102-47l-9.41-6.7-1.09 11.5zm-188.62 49a1 1 0 10.84-1.81zm5.5.22a1 1 0 10-.76 1.85zm4.06 3.69a1 1 0 00.67-1.88zm5.48-.29a1 1 0 00-.59 1.91zm4.39 3.3a1 1 0 00.49-1.93zm5.43-.81a1.02 1.02 0 00-.4 2zm4.69 2.86a1 1 0 001.14-.84 1 1 0 00-.84-1.14zm5.33-1.36a1.005 1.005 0 10-.19 2zm5 2.35a1 1 0 001-1 1 1 0 00-1-1zm5.14-1.93a1 1 0 00-1 1 1 1 0 001 1zm5.2 1.78a1 1 0 00.93-1.07 1 1 0 00-1.07-.92zm4.89-2.5a1.008 1.008 0 00.25 2zm5.37 1.17a1.018 1.018 0 00-.38-2zm4.56-3.05a1 1 0 00.48 1.94zm5.47.53a1.001 1.001 0 00-.6-1.91zm4.11-3.56a1 1 0 00-.58 1.29 1 1 0 001.29.58zm5.5-.09a1 1 0 10-.81-1.83zm3.75-4a1 1 0 00.91 1.78zm5.38-.67a1 1 0 00-1-1.72zm3-4.36a1 1 0 101.16 1.63zm5.11-1.39a1 1 0 00.15-1.4 1 1 0 00-1.41-.15zm2.41-4.72a1.002 1.002 0 001.35 1.48zm4.94-1.94a1 1 0 000-1.41 1 1 0 00-1.42 0zm2-4.89a1 1 0 001.44 1.39zm4.91-2.14a1 1 0 10-1.44-1.39zm2-4.92a1 1 0 000 1.42 1 1 0 001.41 0zm4.9-2a1 1 0 00.05-1.41 1 1 0 00-1.42 0zm2.31-4.77a1 1 0 00-.1 1.41 1 1 0 001.4.11zm5.07-1.53a1 1 0 00.2-1.4 1 1 0 00-1.41-.2zm2.86-4.47a1.004 1.004 0 001.1 1.68zm5.24-.81a1.008 1.008 0 10-1-1.75zm3.51-4a1 1 0 00.82 1.82zm5.29 0a1 1 0 00.6-1.28 1 1 0 00-1.28-.6zm4.07-3.4a1 1 0 00-.7 1.23 1 1 0 001.24.7zm5.26.76a1 1 0 00-.42-1.95zm4.47-2.84a1 1 0 00-.84 1.14 1 1 0 001.14.84zm5.11 1.39a1 1 0 00.9-1.1 1 1 0 00-1.09-.89zm4.75-2.36a1.001 1.001 0 00.1 2zm5 1.86a1 1 0 000-2zm4.93-2a1 1 0 00-1 1 1 1 0 001 1zm4.8 2.22a1.002 1.002 0 00.12-2zm5-1.63a1.004 1.004 0 10-.18 2zm-188.51 49.2c.74.36 1.51.73 2.32 1.1l.84-1.81c-.79-.37-1.55-.73-2.28-1.09zm7.06 3.17c1.52.62 3.13 1.24 4.82 1.84l.67-1.88c-1.66-.59-3.24-1.2-4.73-1.81zm9.71 3.46c1.61.49 3.27 1 5 1.39l.49-1.93q-2.52-.65-4.88-1.37zm10 2.55c1.66.33 3.36.63 5.09.89l.3-2c-1.7-.25-3.36-.55-5-.88zm10.23 1.52c1.68.17 3.4.29 5.15.36l.08-2c-1.71-.07-3.39-.19-5-.35zm10.32.43c1.7 0 3.43-.09 5.17-.22l-.14-2c-1.71.12-3.39.19-5.06.21zm10.31-.73c1.69-.22 3.4-.49 5.12-.82l-.38-2c-1.68.32-3.34.58-5 .79zm10.16-1.93c1.66-.42 3.32-.88 5-1.41l-.6-1.91c-1.64.52-3.26 1-4.87 1.38zm9.87-3.1q2.38-.9 4.79-2l-.81-1.83q-2.36 1-4.69 1.92zm9.45-4.18c.77-.39 1.53-.8 2.3-1.21l-1-1.76c-.75.41-1.5.8-2.25 1.19zm2.3-1.21c.74-.4 1.46-.82 2.17-1.24l-1-1.72c-.69.41-1.39.81-2.11 1.2zm6.35-4c1.37-1 2.68-2 3.95-3l-1.26-1.55q-1.86 1.53-3.85 2.94zm7.71-6.26c1.23-1.12 2.42-2.26 3.59-3.42l-1.41-1.42c-1.15 1.14-2.32 2.26-3.53 3.36zm7.06-6.92c1.14-1.17 2.28-2.36 3.41-3.53l-1.44-1.39-3.41 3.53zm6.83-7q1.73-1.73 3.49-3.41l-1.37-1.45q-1.8 1.71-3.53 3.45zm7.1-6.66c1.22-1 2.47-2.07 3.77-3l-1.21-1.6q-2 1.53-3.86 3.13zm7.73-5.84q2-1.31 4.14-2.49l-1-1.75c-1.49.81-2.91 1.67-4.28 2.56zm8.47-4.65c1.43-.64 2.91-1.24 4.47-1.81l-.68-1.88c-1.6.58-3.14 1.21-4.61 1.87zm9.08-3.28c1.51-.43 3.08-.82 4.72-1.17l-.42-1.95q-2.52.53-4.84 1.19zm9.49-2c1.55-.23 3.15-.43 4.81-.59l-.19-2q-2.55.24-4.92.6zm9.66-1c1.58-.08 3.2-.13 4.88-.14v-2c-1.7 0-3.36.06-5 .14zm9.76-.1c1.57.05 3.19.12 4.85.22l.12-2c-1.68-.1-3.32-.17-4.92-.22zm172.79 274.33l11 3.41-2.5-11.26zm2.67.42a1 1 0 10-.49-1.94zm4.2-3.35a1.015 1.015 0 00.63 1.93zm5.37.07a1 1 0 10-.78-1.84zm3.7-3.91a1.004 1.004 0 00.89 1.8zm5.35-.57a1 1 0 00.38-1.37 1 1 0 00-1.36-.38zm3.24-4.28a1 1 0 001.08 1.68zm5.27-1.12a1 1 0 00.24-1.4 1 1 0 00-1.39-.24zm2.83-4.59a1 1 0 101.22 1.58zm5.12-1.59a1 1 0 00.12-1.41 1 1 0 00-1.41-.11zm2.39-4.81a1.001 1.001 0 001.37 1.46zm5-2a1 1 0 000-1.42 1 1 0 00-1.41 0zm2-5a1 1 0 001.49 1.33zm4.77-2.48a1 1 0 10-1.54-1.27zm1.52-5.16a1 1 0 00.2 1.4 1 1 0 001.4-.2zm4.53-2.89a1 1 0 10-1.64-1.13zm1.07-5.27a1 1 0 101.69 1.06zm4.27-3.26a1 1 0 00-.38-1.36 1 1 0 00-1.36.37zm.61-5.34a1 1 0 00.43 1.34 1 1 0 001.35-.43zm4-3.62a1 1 0 00-1.81-.83zm.16-5.37a1 1 0 00.54 1.3 1 1 0 001.31-.54zm3.66-3.94a1 1 0 10-1.88-.68zm-.29-5.37a1.003 1.003 0 101.91.61zm3.33-4.22a1 1 0 10-1.92-.53zm-.71-5.34a1.026 1.026 0 002 .46zm3-4.45a1.018 1.018 0 00-2-.38zm-1.12-5.26a1.012 1.012 0 102 .31zm2.66-4.67a1.007 1.007 0 00-2-.23zm-1.49-5.18a1 1 0 00.91 1.08 1 1 0 001.08-.91zm2.32-4.85a1.001 1.001 0 10-2-.09zm-1.84-5a1 1 0 002 0zm2-5.1a1 1 0 00-1-1 1 1 0 00-1 1zm-2.13-5a1 1 0 102-.08zm1.73-5.21a1.002 1.002 0 10-2 .14zm-2.4-4.88a1.005 1.005 0 102-.19zm1.43-5.27a1.007 1.007 0 00-2 .24zm-2.69-4.77a1.012 1.012 0 102-.31zm.97-5.37a1.016 1.016 0 00-2 .36zm-3-4.59a1.022 1.022 0 102-.42zm.77-5.41a1 1 0 00-1.21-.73 1 1 0 00-.73 1.22zm-3.26-4.38a1 1 0 001.24.69 1 1 0 00.68-1.24zm.43-5.42a1 1 0 00-1.9.62zm-3.55-4.16a1.001 1.001 0 001.88-.69zm0-5.47a1 1 0 10-1.85.75zm-3.83-3.89a1.003 1.003 0 001.83-.82zm-.34-5.45a1 1 0 10-1.79.88zm-4.09-3.6a1.002 1.002 0 001.77-.94zm-.73-5.4a1 1 0 00-1.72 1zm-4.34-3.31a1 1 0 001.38.31 1 1 0 00.31-1.38zm-1.13-5.34a1 1 0 10-1.65 1.13zm-4.58-3a1 1 0 101.6-1.19zm-1.52-5.24a1.003 1.003 0 00-1.56 1.26zm-4.79-2.62a1.003 1.003 0 001.52-1.31zm-1.92-5.12a1 1 0 00-1.41-.05 1 1 0 00-.05 1.41zm-5-2.26a1 1 0 101.41-1.42zm-2.3-5a1 1 0 00-1.41.06 1 1 0 00.06 1.42zm-5.13-1.84a1 1 0 001.41-.12 1 1 0 00-.12-1.41zm-2.7-4.76a1 1 0 00-1.4.18 1 1 0 00.18 1.4zm-5.28-1.4a1.002 1.002 0 001.15-1.64zm-3.16-4.47a1 1 0 00-1.38.33 1 1 0 00.34 1.37zm-9.55 239.13c1.53-.53 3.11-1.14 4.72-1.82l-.72-1.88c-1.57.67-3.11 1.25-4.59 1.77zm9.31-3.93q2.2-1.1 4.46-2.37l-1-1.75a84.94 84.94 0 01-4.37 2.32zm8.78-5c1.39-.88 2.79-1.82 4.19-2.8l-1.15-1.64q-2.07 1.46-4.12 2.76zm8.24-5.81q2-1.51 3.9-3.17l-1.23-1.53c-1.28 1.08-2.55 2.12-3.83 3.11zm7.66-6.52q1.82-1.69 3.6-3.51l-1.42-1.41c-1.17 1.2-2.36 2.35-3.55 3.46zm7-7.19q1.66-1.85 3.28-3.81l-1.54-1.27c-1.06 1.28-2.14 2.54-3.23 3.75zm6.4-7.77c1-1.32 2-2.69 2.93-4.09l-1.64-1.13q-1.43 2.07-2.89 4zm5.69-8.3c.88-1.4 1.74-2.85 2.58-4.32l-1.74-1c-.82 1.45-1.67 2.87-2.53 4.25zm5-8.75c.75-1.48 1.49-3 2.19-4.53l-1.81-.83q-1.05 2.26-2.16 4.45zm4.2-9.14c.63-1.54 1.23-3.1 1.81-4.7l-1.88-.68q-.86 2.35-1.78 4.62zm3.43-9.46c.5-1.59 1-3.2 1.42-4.83l-1.92-.53c-.45 1.61-.91 3.19-1.41 4.75zm2.66-9.71c.37-1.62.72-3.25 1-4.91l-2-.38c-.32 1.63-.66 3.25-1 4.83zm1.9-9.86c.25-1.64.48-3.3.68-5l-2-.23c-.19 1.65-.42 3.29-.67 4.9zm1.18-10c.14-1.65.25-3.33.33-5l-2-.09c-.08 1.67-.19 3.32-.32 4.94zm.49-10v-2.54h-2v2.51zm0-2.54v-2.59h-2v2.56zm-.15-7.67q-.11-2.6-.27-5.13l-2 .14q.17 2.49.27 5.07zm-.68-10.2c-.17-1.72-.35-3.41-.56-5.08l-2 .24c.21 1.66.39 3.33.56 5zm-1.21-10.15c-.27-1.69-.55-3.37-.86-5l-2 .36c.31 1.63.59 3.28.85 5zm-1.9-10c-.37-1.69-.76-3.36-1.18-5l-1.94.49c.41 1.61.8 3.26 1.17 4.92zm-2.5-10c-.47-1.65-1-3.28-1.49-4.87l-1.9.62q.77 2.36 1.47 4.8zm-3.16-9.72c-.6-1.62-1.21-3.22-1.84-4.78l-1.85.75q.93 2.31 1.81 4.72zm-3.84-9.49q-1.07-2.37-2.17-4.63l-1.79.88q1.1 2.23 2.13 4.57zm-4.49-9.17q-1.23-2.29-2.5-4.46l-1.72 1q1.25 2.14 2.45 4.4zm-5.15-8.84q-1.4-2.2-2.82-4.27l-1.65 1.13c.93 1.36 1.86 2.77 2.78 4.21zm-5.8-8.44c-1-1.4-2.08-2.75-3.12-4l-1.56 1.26q1.54 1.92 3.08 4zm-6.39-8c-1.16-1.33-2.3-2.6-3.44-3.81l-1.46 1.36q1.68 1.8 3.38 3.76zm-7-7.49q-1.89-1.87-3.71-3.53l-1.35 1.48q1.78 1.62 3.65 3.47zm-7.55-6.9q-2.1-1.77-4-3.23l-1.22 1.58c1.23 1 2.55 2 3.92 3.18zm-8.12-6.22a89.51 89.51 0 00-4.31-2.83l-1 1.7a89.4 89.4 0 014.2 2.77zm-728.52-7.61a1.012 1.012 0 00-1 1.76zm159.52.88l-11.5 1 6.63 9.45zm-158.28 2a1 1 0 00.93-1.77zm5.32.48a1 1 0 00-1.34.45 1 1 0 00.45 1.34zm3.63 4a1 1 0 001.33-.48 1 1 0 00-.48-1.33zm5.33.25a1 1 0 10-.81 1.83zm3.78 3.81a1.002 1.002 0 00.77-1.85zm5.37 0a1 1 0 10-.73 1.86zm4 3.63a1 1 0 00.68-1.88zm5.36-.25a1 1 0 10-.64 1.89zm4.13 3.42a1 1 0 10.59-1.91zm5.34-.53a1.002 1.002 0 00-.54 1.93zm4.3 3.2a1.004 1.004 0 00.48-1.95zm5.3-.83a1.022 1.022 0 10-.42 2zm4.48 2.95a1.017 1.017 0 00.37-2zm5.24-1.14a1.012 1.012 0 00-.31 2zm4.65 2.67a1.008 1.008 0 00.25-2zm5.16-1.46a1.004 1.004 0 00-.18 2zm4.82 2.35a1 1 0 001.06-.94 1 1 0 00-.95-1.06zm5.05-1.81a1 1 0 100 2zm5 2a1 1 0 000-2zm4.91-2.17a1.001 1.001 0 00.1 2zm5.1 1.64a1.004 1.004 0 00-.18-2zm4.72-2.53a1.008 1.008 0 00.26 2zm5.21 1.25a1.014 1.014 0 10-.33-2zm4.52-2.9a1.022 1.022 0 00.42 2zm5.31.82a1 1 0 10-.49-1.93zm4.26-3.24a1.001 1.001 0 00.57 1.92zm5.34.39a1 1 0 10-.64-1.89zm4-3.58a1 1 0 00.72 1.86zm5.37 0a1 1 0 10-.8-1.83zm3.69-3.89a1 1 0 10.87 1.8zm5.33-.46a1 1 0 00.41-1.36 1 1 0 00-1.35-.41zm3.37-4.18a1 1 0 001 1.73zm5.31-.89a1 1 0 00-1.07-1.69zm3-4.4a1 1 0 001.13 1.65zm-157.86.26l2.2 1.17.93-1.77-2.17-1.16zm6.63 3.44c1.42.71 2.92 1.45 4.52 2.2l.85-1.81q-2.37-1.11-4.48-2.18zm9 4.28c1.47.65 3 1.32 4.59 2l.77-1.85c-1.57-.65-3.09-1.31-4.55-2zm9.23 3.85c1.52.6 3.09 1.19 4.69 1.77l.68-1.88q-2.39-.87-4.64-1.75zm9.41 3.41c1.56.53 3.15 1 4.77 1.53l.59-1.91c-1.61-.49-3.18-1-4.72-1.51zm9.57 2.93c1.59.44 3.21.86 4.84 1.27l.48-1.95q-2.43-.58-4.78-1.25zm9.72 2.4c1.61.35 3.25.68 4.9 1l.37-2c-1.64-.3-3.25-.63-4.85-1zm9.88 1.83c1.64.25 3.29.49 5 .69l.25-2c-1.65-.2-3.28-.43-4.9-.68zm9.94 1.22c1.66.15 3.32.27 5 .36l.11-2c-1.65-.09-3.3-.21-4.93-.35zm10 .55h5v-2h-4.95zm10-.15c1.66-.09 3.32-.21 5-.36l-.18-2c-1.65.15-3.29.27-4.92.35zm10-.9c1.64-.22 3.3-.46 4.95-.74l-.33-2c-1.63.27-3.26.51-4.88.72zm9.89-1.68q2.43-.51 4.89-1.14l-.52-1.9c-1.61.4-3.22.78-4.82 1.11zm9.72-2.46c1.59-.48 3.18-1 4.77-1.53l-.64-1.89c-1.57.54-3.13 1-4.7 1.5zm9.48-3.25c1.55-.6 3.1-1.23 4.65-1.91l-.8-1.83c-1.52.66-3.05 1.29-4.57 1.88zm9.21-4c1.49-.72 3-1.47 4.46-2.26l-.94-1.77c-1.46.78-2.93 1.52-4.39 2.23zm8.84-4.71c1.43-.84 2.87-1.71 4.3-2.62l-1.07-1.69c-1.41.9-2.83 1.76-4.24 2.58zm-169.6-466a1.012 1.012 0 10-1 1.76zm195 .88l-11.48.31 6 9.84zm-193.83 2a1.008 1.008 0 101-1.75zm5.31.65a1.042 1.042 0 00-.96 1.85zm3.36 4.13a1.008 1.008 0 101-1.75zm5.3.59a1.002 1.002 0 00-.94 1.77zm3.48 4.13a1 1 0 001.35-.44 1 1 0 00-.44-1.34zm5.32.43a1 1 0 00-1.34.46 1 1 0 00.46 1.34zm3.58 3.93a1 1 0 00.84-1.81zm5.33.21a1 1 0 10-.8 1.83zm3.78 3.77a1 1 0 001.3-.54 1 1 0 00-.55-1.31zm5.34 0a1 1 0 00-1.29.59 1 1 0 00.58 1.28zm4 3.57a1.009 1.009 0 00.65-1.91zm5.33-.34a1.001 1.001 0 10-.6 1.91zm4.22 3.28a1 1 0 001.24-.69 1 1 0 00-.69-1.23zm5.3-.66a1 1 0 00-1.21.73 1 1 0 00.73 1.21zm4.36 3.07a1.022 1.022 0 10.42-2zm5.24-1a1.016 1.016 0 10-.36 2zm4.55 2.78a1.011 1.011 0 10.3-2zm5.18-1.34a1.007 1.007 0 10-.23 2zm4.73 2.47a1 1 0 001.08-.91 1 1 0 00-.91-1.08zm5.06-1.67a1.001 1.001 0 10-.1 2zm4.88 2.15a1 1 0 001-1 1 1 0 00-1-1zm4.95-2a1 1 0 100 2zm5 1.82a1.002 1.002 0 00-.11-2zm4.78-2.34a1.004 1.004 0 00.17 2zm5.14 1.49a1.007 1.007 0 00-.24-2zm4.64-2.64a1 1 0 00-.84 1.13 1 1 0 001.14.84zm5.19 1.16a1.016 1.016 0 10-.36-2zm4.48-2.93a1.022 1.022 0 00.42 2zm5.27.84a1 1 0 00-.48-1.94zm4.25-3.18a1 1 0 10.53 1.92zm5.34.52a1 1 0 10-.58-1.91zm4.06-3.39a1 1 0 00.63 1.9zm5.34.25a1 1 0 00.6-1.29 1 1 0 00-1.28-.59zm3.91-3.63a1.004 1.004 0 00.73 1.87zm5.34 0a1.004 1.004 0 00-.78-1.85zm3.74-3.82a1.003 1.003 0 00.82 1.83zm5.32-.26a1 1 0 10-.86-1.8zm3.57-4a1 1 0 00.9 1.78zm5.3-.49a1.002 1.002 0 00-.94-1.77zm3.41-4.13a1.008 1.008 0 001 1.75zm5.27-.7a1 1 0 00.36-1.37 1 1 0 00-1.36-.36zm3.24-4.22a1 1 0 101 1.71zm-193.32.42l2.15 1.17 1-1.75-2.15-1.18zm6.48 3.58c1.39.77 2.83 1.57 4.32 2.38l1-1.75c-1.49-.81-2.93-1.61-4.32-2.38zm8.68 4.74c1.43.76 2.89 1.53 4.4 2.3l.91-1.78q-2.23-1.15-4.37-2.29zm8.84 4.53c1.46.71 3 1.43 4.49 2.14l.84-1.81q-2.28-1.06-4.45-2.13zm9 4.18q2.24 1 4.58 1.94l.75-1.85q-2.31-.94-4.53-1.92zm9.21 3.76q2.3.87 4.68 1.7l.69-1.91q-2.36-.81-4.62-1.68zm9.41 3.27c1.56.49 3.16 1 4.77 1.42l.55-1.92q-2.4-.68-4.72-1.41zm9.59 2.7c1.59.4 3.2.78 4.84 1.13l.42-2c-1.61-.35-3.21-.72-4.78-1.12zm9.72 2.1c1.62.3 3.25.57 4.91.82l.3-2c-1.64-.24-3.26-.51-4.85-.8zm9.86 1.47c1.63.19 3.29.35 5 .48l.17-2c-1.66-.13-3.29-.29-4.9-.48zm9.92.8c1.64.08 3.3.13 5 .16v-2c-1.65 0-3.29-.08-4.9-.15zm10 .14q2.46 0 5-.18l-.11-2c-1.65.09-3.29.15-4.91.18zm9.93-.52c1.64-.14 3.3-.31 5-.51l-.24-2c-1.65.2-3.28.37-4.9.5zm9.91-1.18q2.43-.36 4.89-.81l-.36-2q-2.43.45-4.83.81zm9.79-1.78c1.6-.34 3.22-.72 4.85-1.12l-.48-1.94c-1.61.4-3.21.76-4.79 1.1zm9.65-2.37c1.59-.44 3.2-.9 4.81-1.4l-.58-1.91q-2.4.73-4.76 1.39zm9.51-2.9q2.34-.8 4.71-1.65l-.68-1.88q-2.35.86-4.66 1.63zm9.35-3.41c1.53-.61 3.06-1.23 4.61-1.88l-.78-1.85q-2.29 1-4.56 1.86zm9.17-3.87q2.24-1 4.5-2.09l-.86-1.8c-1.5.71-3 1.4-4.46 2.06zm9-4.29q2.19-1.09 4.4-2.27l-.94-1.82q-2.19 1.17-4.36 2.26zm8.78-4.65c1.43-.8 2.86-1.61 4.3-2.45l-1-1.73q-2.16 1.24-4.27 2.43zM527.65 15.7a1 1 0 10.6 1.9zm62 14.2a1 1 0 00-1.32 1.5zm168.3 33.25l-11.27-2.5 3.47 11zM530.67 16.87a1 1 0 10-.56-1.92zm4.42-3.23a1.025 1.025 0 00.45 2zm5.38 1a1.012 1.012 0 00-.31-2zm4.83-2.56a1 1 0 00-.93 1.06 1 1 0 001.07.93zm5.15 1.87a1 1 0 100-2zm5.23-1.57a1 1 0 00-1.12.85 1 1 0 00.85 1.13zm4.63 2.91a1 1 0 10.48-1.94zm5.45-.43a1 1 0 00-.68 1.88zm3.93 3.79a1 1 0 001.33-.47 1 1 0 00-.48-1.34zm5.44.59a1.003 1.003 0 00-1 1.74zm3.26 4.4a1 1 0 001.39-.28 1 1 0 00-.27-1.38zm5.3 1.34a1.008 1.008 0 00-1.24 1.59zm2.71 4.76a1 1 0 101.29-1.52zm3.8 3.33a1 1 0 101.32-1.5zm5.14 1.8a1 1 0 10-1.29 1.52zm2.6 4.78a1 1 0 001.25-1.5zm5.2 1.6a1.004 1.004 0 00-1.24 1.58zm2.8 4.67a1 1 0 001.19-1.6zm5.26 1.37a1 1 0 00-1.39.23 1 1 0 00.23 1.4zm3 4.51a1 1 0 101.12-1.65zm5.34 1.07a1.006 1.006 0 10-1.09 1.69zm3.31 4.28a1 1 0 001-1.73zm5.39.72a1 1 0 00-1.36.41 1 1 0 00.41 1.35zm3.58 4.09a1.002 1.002 0 10.88-1.8zm5.43.33a1.012 1.012 0 00-.8 1.86zm3.88 3.86a1 1 0 10.74-1.86zm5.44-.08a1 1 0 10-.67 1.88zm4.16 3.5a1 1 0 001.26-.66 1 1 0 00-.66-1.25zm5.42-.51a1 1 0 10-.52 1.93zm4.43 3.16a1.024 1.024 0 00.44-2zm5.36-.93a1.017 1.017 0 10-.37 2zm4.66 2.81a1.01 1.01 0 00.29-2zm5.28-1.33a1.006 1.006 0 10-.22 2zm4.84 2.46a1.003 1.003 0 00.15-2zm5.16-1.71a1 1 0 00-.08 2zm5 2.12a1 1 0 100-2zm5-2a1 1 0 000 2zm5.14 1.8a1.001 1.001 0 10-.1-2zm4.93-2.34a1.003 1.003 0 10.16 2zm5.21 1.5a1.006 1.006 0 00-.22-2zm4.76-2.61a1 1 0 00-.85 1.13 1 1 0 001.12.85zm5.36 1.16a1.014 1.014 0 00-.33-2zm4.64-2.84a1.016 1.016 0 00.36 2zm5.33 1a1.02 1.02 0 00-.41-2zm4.52-3a1.025 1.025 0 10.45 2zm5.39.75a1 1 0 00.73-1.21 1 1 0 00-1.22-.73zm4.37-3.21a1 1 0 10.52 1.92zm5.43.54a1 1 0 10-.56-1.92zm4.25-3.37a1 1 0 00.59 1.91zm-227-45.37c.81-.25 1.62-.5 2.42-.73l-.56-1.92q-1.23.36-2.46.75zm7.29-2c1.65-.38 3.29-.7 4.93-1l-.31-2q-2.54.4-5.07 1zm9.9-1.53c1.66-.12 3.33-.15 5-.11v-2a49.76 49.76 0 00-5.18.12zm10 .3a47.42 47.42 0 014.9.93l.48-1.94a46.37 46.37 0 00-5.11-1zm9.67 2.38q2.28.82 4.61 1.91l.85-1.81c-1.6-.75-3.2-1.41-4.78-2zm9 4.24c1.41.8 2.82 1.69 4.26 2.66l1.12-1.72q-2.2-1.5-4.38-2.74zm8.38 5.53c1.3 1 2.6 2 3.93 3.17l1.29-1.52q-2-1.72-4-3.24zm5.84 4.83l1.89 1.67 1.32-1.5-1.89-1.67zm5.74 5c1.28 1.1 2.58 2.18 3.89 3.26l1.27-1.51q-1.95-1.61-3.87-3.23zm7.85 6.44c1.33 1 2.67 2.07 4 3.09l1.19-1.6q-2-1.52-4-3.07zm8.14 6.09c1.38 1 2.78 1.94 4.19 2.88l1.11-1.66c-1.39-.94-2.78-1.89-4.14-2.85zm8.43 5.63q2.15 1.35 4.36 2.63l1-1.73c-1.45-.84-2.89-1.71-4.3-2.59zm8.8 5.11q2.24 1.2 4.53 2.33l.88-1.8c-1.51-.74-3-1.5-4.46-2.29zm9.2 4.48c1.54.68 3.1 1.35 4.69 2l.74-1.86q-2.34-.93-4.62-1.95zm9.46 3.78q2.38.85 4.83 1.62l.6-1.91q-2.42-.77-4.76-1.59zm9.73 3q2.43.66 5 1.23l.44-2q-2.48-.57-4.87-1.21zm9.94 2.26c1.65.31 3.33.6 5 .85l.29-2c-1.67-.25-3.33-.53-5-.83zm10.09 1.51c1.66.18 3.35.34 5.06.47l.15-2c-1.69-.12-3.35-.28-5-.46zm10.14.76c1.67.07 3.37.11 5.08.12v-2c-1.7 0-3.37 0-5-.12zm10.17.08c1.68 0 3.38-.11 5.09-.2l-.1-2c-1.7.1-3.38.16-5 .2zm10.18-.55c1.66-.14 3.35-.3 5-.49l-.22-2c-1.69.19-3.35.35-5 .49zm10.08-1.12c1.67-.23 3.35-.48 5.05-.75l-.33-2c-1.68.28-3.34.53-5 .75zm10.05-1.63c1.64-.3 3.3-.63 5-1l-.41-2c-1.66.35-3.3.67-4.92 1zm9.94-2.08q2.44-.57 4.94-1.2l-.49-1.94q-2.47.63-4.9 1.19zm9.83-2.49q2.43-.66 4.91-1.38l-.52-1.87c-1.64.48-3.27.94-4.87 1.38z" fill="#fff" fill-opacity=".6"/></svg>