<svg width="68" height="68" fill="none" xmlns="http://www.w3.org/2000/svg"><g filter="url(#filter0_d_17_488)"><g clip-path="url(#clip0_17_488)"><path d="M64 30c0 4.18-.855 8.159-2.4 11.773h-7.575l-4.5-5.15A16.83 16.83 0 0050.874 30c0-2.225-.431-4.35-1.213-6.295l5.25-5.478 6.93.582A29.883 29.883 0 0164 30zM45.773 2.4v6.992l-5.15 5.083A16.83 16.83 0 0034 13.126c-2.225 0-4.35.431-6.295 1.213l-5.478-4.314.582-7.867A29.883 29.883 0 0134 0c4.18 0 8.159.855 11.773 2.4zM17.126 30c0 2.225.431 4.35 1.213 6.295l-4.44 5.478-7.74-.582A29.883 29.883 0 014 30c0-4.18.855-8.159 2.4-11.773h7.245l4.83 5.15A16.83 16.83 0 0017.126 30zM45.19 57.842A29.883 29.883 0 0134 60c-4.18 0-8.159-.855-11.773-2.4v-7.955l5.15-4.12A16.83 16.83 0 0034 46.874c2.225 0 4.35-.431 6.295-1.213l4.896 4.491v7.69z" fill="#E6E6E6"/><path d="M61.842 18.81L49.66 23.704a16.93 16.93 0 00-9.038-9.23L45.773 2.4a30.09 30.09 0 0116.069 16.41zm-34.137-4.47a16.93 16.93 0 00-9.23 9.037L6.4 18.227A30.09 30.09 0 0122.81 2.158l4.895 12.181zm-.328 31.185L22.227 57.6A30.09 30.09 0 016.158 41.19l12.181-4.895a16.93 16.93 0 009.038 9.23zM61.6 41.773a30.09 30.09 0 01-16.41 16.069L40.296 45.66a16.93 16.93 0 009.23-9.038l12.075 5.15z" fill="#FD5F7E"/><path d="M34.665 59.993a30.898 30.898 0 001.745-.09 29.8 29.8 0 01-14.183-4.915V57.6A29.783 29.783 0 0034 60c.222 0 .443-.003.665-.007zM6.158 41.19l4.986.376c-.052-.125-.106-.25-.157-.375A29.884 29.884 0 018.83 30c0-4.18.855-8.159 2.4-11.773H6.4A30.048 30.048 0 004 30c0 3.823.73 7.644 2.158 11.19zM35.374.033a29.883 29.883 0 00-12.565 2.126l-.192 2.598A29.79 29.79 0 0136.419.097c-.348-.028-.697-.045-1.045-.064z" fill="#D0CFD5"/><path d="M10.987 41.19c-.223-.554-.43-1.12-.62-1.69l-4.209 1.69A30.09 30.09 0 0022.227 57.6l.874-2.05a30.101 30.101 0 01-12.114-14.36zm-.445-21.196c.211-.598.44-1.188.687-1.767A30.099 30.099 0 0123.607 4.145l-.798-1.987a30.025 30.025 0 00-9.802 6.411A30.04 30.04 0 006.4 18.227l4.142 1.767z" fill="#F5385D"/></g></g><defs><clipPath id="clip0_17_488"><path fill="#fff" transform="translate(4)" d="M0 0h60v60H0z"/></clipPath><filter id="filter0_d_17_488" x="0" y="0" width="68" height="68" filterUnits="userSpaceOnUse" color-interpolation-filters="sRGB"><feFlood flood-opacity="0" result="BackgroundImageFix"/><feColorMatrix in="SourceAlpha" values="0 0 0 0 0 0 0 0 0 0 0 0 0 0 0 0 0 0 127 0" result="hardAlpha"/><feOffset dy="4"/><feGaussianBlur stdDeviation="2"/><feComposite in2="hardAlpha" operator="out"/><feColorMatrix values="0 0 0 0 0 0 0 0 0 0 0 0 0 0 0 0 0 0 0.25 0"/><feBlend in2="BackgroundImageFix" result="effect1_dropShadow_17_488"/><feBlend in="SourceGraphic" in2="effect1_dropShadow_17_488" result="shape"/></filter></defs></svg>