<svg width="60" height="60" fill="none" xmlns="http://www.w3.org/2000/svg"><g clip-path="url(#clip0_17_487)"><path d="M49.192 17.823a.907.907 0 100-1.814H43.12V4.445c0-.166.135-.301.301-.301h5.77a.907.907 0 100-1.815h-5.77c-1.167 0-2.116.95-2.116 2.116v11.564h-7.38a.907.907 0 100 1.814h7.38v11.564c0 1.167.95 2.116 2.116 2.116h5.77a.907.907 0 100-1.815h-5.77a.302.302 0 01-.301-.301V17.823h6.072z" fill="#2EABFF"/><path d="M48.291 29.507c0 2.418 1.643 3.202 3.048 3.202s3.047-1.206 3.047-3.202a3.237 3.237 0 00-6.095 0z" fill="#FF4755"/><path d="M34.252 15.116l-2.501-.376a11.67 11.67 0 00-1.84-4.438l1.504-2.035a.895.895 0 00-.087-1.165l-1.295-1.294a.895.895 0 00-1.164-.087l-2.035 1.503a11.666 11.666 0 00-4.438-1.84l-.376-2.5a.895.895 0 00-.885-.762h-1.83a.895.895 0 00-.886.762l-.375 2.5a11.67 11.67 0 00-4.439 1.84L11.57 5.72a.895.895 0 00-1.164.087L9.11 7.102a.895.895 0 00-.087 1.165l1.503 2.035a11.666 11.666 0 00-1.839 4.438l-2.5.376a.895.895 0 00-.763.885v1.83c0 .443.324.82.762.885l2.501.376a11.67 11.67 0 001.84 4.439l-1.504 2.035a.895.895 0 00.087 1.164l1.295 1.295a.895.895 0 001.164.087l2.035-1.503a11.67 11.67 0 004.439 1.839l.375 2.5a.895.895 0 00.885.762h1.831a.895.895 0 00.885-.761l.376-2.501a11.67 11.67 0 004.438-1.84l2.035 1.504a.895.895 0 001.165-.087l1.294-1.295a.895.895 0 00.087-1.164l-1.503-2.035a11.67 11.67 0 001.84-4.439l2.5-.376a.895.895 0 00.762-.885v-1.83a.895.895 0 00-.762-.885zm-8.25 4c0 1.844-2.512 4.756-5.782 4.756s-5.702-3.099-5.702-4.803l-.119-1.064a5.922 5.922 0 1111.64 0l-.036 1.11z" fill="#FFE27A"/><path d="M54.795 39.888a2.222 2.222 0 00-2.85-.679l-4.66 2.464 1.068-2.652a2.197 2.197 0 00-3.142-1.255l-4.153 2.26 1.02-2.942a2.293 2.293 0 00-3.182-1.14L26.88 42.269 21.3 49.74l12.863 5.344 19.223-9.93.678-2.002.945-2.892a2.244 2.244 0 00-.214-.371z" fill="#F4B184"/><path d="M41.468 44.75l5.818-3.077a2.22 2.22 0 001.067-2.652l-7.558 4.03-.703.888 1.376.81z" fill="#EAA678"/><path d="M54.064 43.15a2.247 2.247 0 00.946-2.89l-14.275 7.675-5.285-.234-3.846-.315-10.084 1.332 4.414 2.15c6.089.736 15.655.863 21.018-2.128l7.74-4.501-.628-1.089zm-17.129-.882l4.122-2.243a2.318 2.318 0 001.02-2.941l-9.423 5.184 2.405 1.055 1.876-1.055z" fill="#EAA678"/><path d="M6.573 46.058s4.495-3.815 10.065-4.855c5.57-1.041 10.242 1.065 10.242 1.065h12.119a2.475 2.475 0 012.468 2.481c0 1.25-.925 2.305-2.159 2.462l-15.36 1.952 6.524.789a29.01 29.01 0 0017.616-3.468l8.162-4.553a2.55 2.55 0 013.07.53c.057.062.003 2.288.003 2.288L46.73 51.936c-5.982 3.27-12.792 7.558-19.575 6.95L6.573 57.043H1.659L0 55.637v-8.972c0-.335.27-.607.605-.607h5.968z" fill="#FFC89F"/><path d="M59.482 42.656a2.61 2.61 0 00-.163-.194 2.554 2.554 0 01-1.233 1.542L46.15 50.53c-5.982 3.27-12.792 7.558-19.575 6.95L5.994 55.637H0v1.854c0 .335.27.607.605.607h5.968l20.58 1.843c6.784.608 13.594-3.68 19.576-6.95l11.935-6.526a2.578 2.578 0 00.818-3.809z" fill="#F7B081"/><path d="M26.141 19.093c0-.372-.036-.735-.101-1.088a5.922 5.922 0 01-11.64 0 5.922 5.922 0 1011.741 1.089z" fill="#F9CF58"/><path d="M51.339 31.654c-1.405 0-2.6-.896-3.048-2.147a3.236 3.236 0 106.095 0 3.236 3.236 0 01-3.047 2.147z" fill="#FC2B3A"/><path d="M48.291 15.827c0 2.419 1.643 3.202 3.048 3.202s3.047-1.206 3.047-3.202a3.237 3.237 0 00-6.095 0z" fill="#FF4755"/><path d="M51.339 17.974c-1.405 0-2.6-.895-3.048-2.147a3.236 3.236 0 106.095 0 3.236 3.236 0 01-3.047 2.147z" fill="#FC2B3A"/><path d="M48.291 2.148c0 2.418 1.643 3.202 3.048 3.202s3.047-1.206 3.047-3.202a3.237 3.237 0 00-6.095 0z" fill="#FF4755"/><path d="M51.339 4.295c-1.405 0-2.6-.896-3.048-2.147a3.236 3.236 0 106.095 0 3.236 3.236 0 01-3.047 2.147z" fill="#FC2B3A"/></g><defs><clipPath id="clip0_17_487"><path fill="#fff" d="M0 0h60v60H0z"/></clipPath></defs></svg>