<svg width="60" height="60" fill="none" xmlns="http://www.w3.org/2000/svg"><g clip-path="url(#clip0_28_714)"><path d="M30 15.54a.905.905 0 01-.905-.906V6.11a.905.905 0 011.81 0v8.524c0 .5-.405.906-.905.906zm10.865 4.5a.906.906 0 01-.64-1.546l3.541-3.54a.906.906 0 011.28 1.28l-3.54 3.54a.903.903 0 01-.64.266zm-21.73 0a.902.902 0 01-.64-.265l-3.542-3.541a.906.906 0 011.281-1.28l3.541 3.54a.905.905 0 01-.64 1.546zm25.171 25.171a.903.903 0 01-.64-.265l-3.441-3.44a.906.906 0 011.28-1.28l3.441 3.44a.906.906 0 01-.64 1.545zm-28.521-.091a.905.905 0 01-.64-1.546l3.35-3.349a.906.906 0 011.28 1.28l-3.35 3.35a.903.903 0 01-.64.266zm36.898-14.215h-7.317a.905.905 0 110-1.81h7.317a.905.905 0 110 1.81zM30 54.796a.905.905 0 01-.905-.906v-8.524a.905.905 0 111.81 0v8.524c0 .5-.405.906-.905.906zM14.634 30.905H7.317a.905.905 0 110-1.81h7.317a.905.905 0 110 1.81z" fill="#756E78"/><path d="M30 25.855v14.957a2.4 2.4 0 01-.835-.15l-.012-.004-8.318-3.119-.03-.012a2.413 2.413 0 01-1.536-2.249V24.722c0-.55.186-1.068.51-1.483L30 25.855z" fill="#B4ACB7"/><path d="M40.731 24.722v10.556c0 .996-.61 1.888-1.537 2.25l-.029.011-8.317 3.119a2.425 2.425 0 01-.848.154V25.855l10.222-2.616c.323.415.51.934.51 1.483z" fill="#A59DA5"/><path d="M40.222 23.24l-9.798 3.675a1.208 1.208 0 01-.848 0l-9.798-3.675a2.397 2.397 0 011.057-.779l8.317-3.119a2.41 2.41 0 011.683-.005c.004.003.009.004.012.005l8.318 3.119.03.012a2.4 2.4 0 011.027.767z" fill="#C3BEC6"/><path d="M30 7.317A3.659 3.659 0 1030 0a3.659 3.659 0 000 7.317z" fill="#FCEE56"/><path d="M12.581 52.785a5.366 5.366 0 100-10.732 5.366 5.366 0 000 10.732z" fill="#62B4FD"/><path d="M16.375 43.625a5.376 5.376 0 00-.976-.772 5.367 5.367 0 01-7.384 7.384 5.366 5.366 0 108.36-6.612z" fill="#27A2FB"/><path d="M47.419 52.785a5.366 5.366 0 100-10.732 5.366 5.366 0 000 10.732z" fill="#62B4FD"/><path d="M51.213 43.625a5.376 5.376 0 00-.976-.772 5.367 5.367 0 01-7.384 7.384 5.366 5.366 0 108.36-6.612z" fill="#27A2FB"/><path d="M12.581 17.947a5.366 5.366 0 100-10.732 5.366 5.366 0 000 10.732z" fill="#62B4FD"/><path d="M16.375 8.787c-.3-.301-.63-.557-.976-.772A5.367 5.367 0 018.015 15.4a5.366 5.366 0 108.36-6.612z" fill="#27A2FB"/><path d="M47.419 17.947a5.366 5.366 0 100-10.732 5.366 5.366 0 000 10.732z" fill="#62B4FD"/><path d="M51.213 8.787c-.3-.301-.63-.557-.976-.772a5.367 5.367 0 01-7.384 7.384 5.366 5.366 0 108.36-6.612z" fill="#27A2FB"/><path d="M30 60a3.659 3.659 0 100-7.317A3.659 3.659 0 0030 60zm26.341-26.341a3.659 3.659 0 100-7.318 3.659 3.659 0 000 7.318zm-52.682 0a3.659 3.659 0 100-7.318 3.659 3.659 0 000 7.318z" fill="#FCEE56"/></g><defs><clipPath id="clip0_28_714"><path fill="#fff" d="M0 0h60v60H0z"/></clipPath></defs></svg>