<svg width="60" height="60" fill="none" xmlns="http://www.w3.org/2000/svg"><path d="M54.073 0H5.927c-1.1 0-1.993.892-1.993 1.993v52.813c0 1.1.892 1.992 1.993 1.992h48.146c1.1 0 1.993-.892 1.993-1.992V1.993A1.993 1.993 0 0054.073 0z" fill="#FCD462"/><path d="M52.794 42.227H7.206v12.387h45.587V42.227zm0-37.863H7.206V16.75h45.587V4.364zm0 18.931H7.206V35.68h45.587V23.295zM16.428 56.796H8.05V60h8.377v-3.204zm35.524 0h-8.376V60h8.376v-3.204z" fill="#DC8744"/><path d="M52.794 41.138H7.206v12.387h45.587V41.138zm0-37.865H7.206v12.388h45.587V3.273zm0 18.933H7.206v12.386h45.587V22.206z" fill="#F6C358"/><path d="M22.55 9.467c0 .427.347.773.773.773h1.325V8.695h-1.325a.772.772 0 00-.772.772zm14.127-.772h-1.325v1.545h1.325a.772.772 0 100-1.545z" fill="#EBF0F3"/><path d="M24.648 10.24c4.272.401 6.432.403 10.704 0V8.695c-4.272-.404-6.432-.404-10.704 0v1.545z" fill="#64798A"/><path d="M22.55 28.4c0 .426.347.772.773.772h1.325v-1.545h-1.325a.772.772 0 00-.772.773zm14.127-.773h-1.325v1.545h1.325a.773.773 0 000-1.545z" fill="#EBF0F3"/><path d="M24.648 29.172c4.272.401 6.432.403 10.704 0v-1.545c-4.272-.403-6.432-.403-10.704 0v1.545z" fill="#64798A"/><path d="M22.55 47.332c0 .427.347.773.773.773h1.325V46.56h-1.325a.772.772 0 00-.772.772zm14.127-.772h-1.325v1.545h1.325a.773.773 0 000-1.545z" fill="#EBF0F3"/><path d="M24.648 48.105c4.272.401 6.432.403 10.704 0V46.56c-4.272-.404-6.432-.404-10.704 0v1.545z" fill="#64798A"/></svg>