<svg width="60" height="60" fill="none" xmlns="http://www.w3.org/2000/svg"><path d="M53.849 1.282h-15.29a5.877 5.877 0 00-5.878 5.877v7.632a5.877 5.877 0 005.877 5.877h7.684l3.678 4.203c1.09 1.246 3.144.475 3.144-1.182v-3.021h.785a5.877 5.877 0 005.877-5.877V7.159a5.877 5.877 0 00-5.877-5.877z" fill="#9DC6FB"/><path d="M41.351 20.668H38.56a5.877 5.877 0 01-5.878-5.877V7.159a5.877 5.877 0 015.878-5.877h2.792a5.877 5.877 0 00-5.877 5.877v7.632a5.877 5.877 0 005.877 5.877z" fill="#80B4FB"/><path d="M7.498 27.838h19.507a7.498 7.498 0 017.499 7.498v9.736a7.498 7.498 0 01-7.499 7.498h-9.802l-4.692 5.362c-1.392 1.59-4.012.606-4.012-1.507v-3.854h-1A7.498 7.498 0 010 45.072v-9.736a7.498 7.498 0 017.498-7.498z" fill="#E27A66"/><path d="M12.421 58.03c-1.412 1.45-3.922.464-3.922-1.605V52.57h-1A7.498 7.498 0 010 45.072v-9.737a7.498 7.498 0 017.498-7.498h3.273a7.498 7.498 0 00-7.497 7.498v9.737a7.498 7.498 0 007.497 7.498h1.002v3.855c0 .66.255 1.21.648 1.605z" fill="#DD636E"/><path d="M42.647 32.552h12.535A4.818 4.818 0 0160 37.371v6.256a4.818 4.818 0 01-4.818 4.818h-6.3l-3.014 3.446c-.895 1.022-2.578.39-2.578-.969v-2.477h-.643a4.818 4.818 0 01-4.818-4.818v-6.256a4.818 4.818 0 014.818-4.819z" fill="#FFE07D"/><path d="M45.81 51.953c-.907.932-2.52.298-2.52-1.03v-2.478h-.643a4.818 4.818 0 01-4.819-4.818V37.37a4.818 4.818 0 014.819-4.818h2.103a4.818 4.818 0 00-4.818 4.818v6.257a4.818 4.818 0 004.818 4.818h.643v2.477c0 .424.164.777.417 1.031z" fill="#FFD064"/><path d="M40.036 13.35H18.411a8.312 8.312 0 00-8.312 8.312v10.794a8.312 8.312 0 008.312 8.312h10.867l5.202 5.944c1.543 1.763 4.447.672 4.447-1.67v-4.274h1.11a8.312 8.312 0 008.312-8.312V21.662a8.312 8.312 0 00-8.313-8.312z" fill="#F9F6F9"/><path d="M22.361 40.768h-3.95a8.313 8.313 0 01-8.312-8.312V21.662a8.313 8.313 0 018.312-8.312h3.95a8.313 8.313 0 00-8.312 8.312v10.794a8.313 8.313 0 008.312 8.312z" fill="#D0CEE7"/><path d="M18.11 1.282H6.017A4.648 4.648 0 001.37 5.93v6.036a4.648 4.648 0 004.648 4.648h6.077l2.909 3.323c.862.986 2.486.376 2.486-.934v-2.39h.62a4.648 4.648 0 004.649-4.647V5.93a4.648 4.648 0 00-4.648-4.648z" fill="#B3E59F"/><path d="M8.226 16.613H6.017a4.648 4.648 0 01-4.648-4.647V5.93a4.648 4.648 0 014.648-4.648h2.209A4.648 4.648 0 003.578 5.93v6.035a4.648 4.648 0 004.648 4.648z" fill="#95D6A4"/><path d="M27.172 22.245a1.124 1.124 0 00-1.057-.726 1.128 1.128 0 00-1.055.724l-3.748 9.842a.905.905 0 101.692.644l.711-1.868h4.773l.704 1.866a.906.906 0 101.694-.64l-3.714-9.842zm-2.767 6.805l1.707-4.483 1.693 4.483h-3.4zm-4.089-7.4H16.3c-.5 0-.906.405-.906.905v9.91a.905.905 0 101.811 0V28.32h2.792a.905.905 0 100-1.81h-2.792v-3.05h3.111a.905.905 0 100-1.812zm22.472 10.17l-.88-.879a5.863 5.863 0 001.107-3.431 5.903 5.903 0 00-5.897-5.897 5.903 5.903 0 00-5.897 5.897 5.903 5.903 0 005.897 5.896 5.87 5.87 0 003.524-1.171l.865.866a.903.903 0 001.281 0 .906.906 0 000-1.28zm-5.67-.224a4.09 4.09 0 01-4.086-4.086 4.09 4.09 0 014.086-4.086 4.09 4.09 0 014.086 4.086 4.06 4.06 0 01-.6 2.127l-1.01-1.01a.905.905 0 10-1.28 1.28l1.027 1.028c-.64.417-1.403.66-2.223.66z" fill="#5E54AC"/></svg>