<?xml version="1.0" encoding="UTF-8"?>
<svg xmlns="http://www.w3.org/2000/svg" xmlns:xlink="http://www.w3.org/1999/xlink" width="60px" height="60px" viewBox="0 0 60 60" version="1.1">
<g id="surface1">
<path style=" stroke:none;fill-rule:nonzero;fill:rgb(81.176471%,56.470588%,41.176471%);fill-opacity:1;" d="M 18.546875 17.972656 L 18.546875 12.292969 C 18.546875 5.996094 23.675781 0.890625 30 0.890625 C 36.324219 0.890625 41.453125 5.996094 41.453125 12.292969 L 41.453125 17.972656 Z M 18.546875 17.972656 "/>
<path style=" stroke:none;fill-rule:nonzero;fill:rgb(78.039216%,51.372549%,35.294118%);fill-opacity:1;" d="M 30 0.890625 C 29.183594 0.890625 28.390625 0.976562 27.621094 1.140625 C 32.804688 2.230469 36.695312 6.808594 36.695312 12.292969 L 36.695312 17.972656 L 18.546875 17.972656 L 41.453125 17.972656 L 41.453125 12.292969 C 41.453125 5.996094 36.324219 0.890625 30 0.890625 Z M 30 0.890625 "/>
<path style=" stroke:none;fill-rule:nonzero;fill:rgb(99.607843%,89.411765%,21.960784%);fill-opacity:1;" d="M 41.617188 58.78125 L 18.382812 58.78125 L 18.382812 34.53125 C 18.382812 28.132812 23.570312 22.949219 29.964844 22.949219 L 30.035156 22.949219 C 36.429688 22.949219 41.617188 28.132812 41.617188 34.53125 Z M 41.617188 58.78125 "/>
<path style=" stroke:none;fill-rule:nonzero;fill:rgb(100%,91.764706%,84.313725%);fill-opacity:1;" d="M 23.886719 12.183594 C 22.488281 12.183594 21.355469 13.3125 21.355469 14.703125 L 21.355469 15.09375 C 21.355469 16.652344 20.101562 17.921875 18.546875 17.957031 C 19.535156 23.371094 24.289062 27.476562 30 27.476562 C 35.714844 27.476562 40.464844 23.367188 41.457031 17.949219 C 39.953125 17.855469 38.765625 16.613281 38.765625 15.09375 L 38.765625 14.703125 C 38.765625 13.3125 37.632812 12.183594 36.234375 12.183594 Z M 23.886719 12.183594 "/>
<path style=" stroke:none;fill-rule:nonzero;fill:rgb(74.509804%,77.647059%,85.490196%);fill-opacity:1;" d="M 34.253906 55.5625 L 30 57.46875 L 25.746094 55.5625 L 27.019531 46.097656 L 32.980469 46.097656 Z M 34.253906 55.5625 "/>
<path style=" stroke:none;fill-rule:nonzero;fill:rgb(85.098039%,87.058824%,92.941176%);fill-opacity:1;" d="M 51.855469 48.285156 L 8.144531 48.285156 C 6.796875 48.285156 5.707031 47.195312 5.707031 45.847656 L 5.707031 20.691406 C 5.707031 19.34375 6.796875 18.25 8.144531 18.25 L 51.855469 18.25 C 53.203125 18.25 54.292969 19.34375 54.292969 20.691406 L 54.292969 45.847656 C 54.292969 47.195312 53.203125 48.285156 51.855469 48.285156 Z M 51.855469 48.285156 "/>
<path style=" stroke:none;fill-rule:nonzero;fill:rgb(80.784314%,82.745098%,88.235294%);fill-opacity:1;" d="M 51.855469 18.25 L 47.097656 18.25 C 48.445312 18.25 49.535156 19.34375 49.535156 20.691406 L 49.535156 45.847656 C 49.535156 47.195312 48.445312 48.285156 47.097656 48.285156 L 51.855469 48.285156 C 53.203125 48.285156 54.292969 47.195312 54.292969 45.847656 L 54.292969 20.691406 C 54.292969 19.34375 53.203125 18.25 51.855469 18.25 Z M 51.855469 18.25 "/>
<path style=" stroke:none;fill-rule:nonzero;fill:rgb(40.784314%,38.823529%,50.196078%);fill-opacity:1;" d="M 19.105469 36.628906 L 19.105469 56.480469 L 14.105469 56.480469 L 14.105469 36.628906 Z M 19.105469 36.628906 "/>
<path style=" stroke:none;fill-rule:nonzero;fill:rgb(61.960784%,98.039216%,100%);fill-opacity:1;" d="M 23.1875 31.761719 L 23.1875 56.480469 L 19.105469 56.480469 L 19.105469 31.761719 Z M 23.1875 31.761719 "/>
<path style=" stroke:none;fill-rule:nonzero;fill:rgb(75.294118%,38.039216%,90.980392%);fill-opacity:1;" d="M 27.777344 39.628906 L 27.777344 56.480469 L 23.1875 56.480469 L 23.1875 39.628906 Z M 27.777344 39.628906 "/>
<path style=" stroke:none;fill-rule:nonzero;fill:rgb(99.607843%,89.411765%,21.960784%);fill-opacity:1;" d="M 14.105469 34.742188 L 14.105469 55.566406 L 8.453125 55.566406 L 8.453125 34.742188 Z M 14.105469 34.742188 "/>
<path style=" stroke:none;fill-rule:nonzero;fill:rgb(96.862745%,98.039216%,98.039216%);fill-opacity:1;" d="M 14.105469 49.648438 L 14.105469 56.480469 L 8.453125 56.480469 L 8.453125 49.648438 Z M 14.105469 49.648438 "/>
<path style=" stroke:none;fill-rule:nonzero;fill:rgb(40.784314%,38.823529%,50.196078%);fill-opacity:1;" d="M 8.453125 31.960938 L 8.453125 56.480469 L 3.050781 56.480469 L 3.050781 31.960938 Z M 8.453125 31.960938 "/>
<path style=" stroke:none;fill-rule:nonzero;fill:rgb(96.862745%,98.039216%,98.039216%);fill-opacity:1;" d="M 8.453125 36.628906 L 8.453125 39.613281 L 3.050781 39.613281 L 3.050781 36.628906 Z M 8.453125 36.628906 "/>
<path style=" stroke:none;fill-rule:nonzero;fill:rgb(96.862745%,98.039216%,98.039216%);fill-opacity:1;" d="M 8.453125 47.914062 L 8.453125 50.898438 L 3.050781 50.898438 L 3.050781 47.914062 Z M 8.453125 47.914062 "/>
<path style=" stroke:none;fill-rule:nonzero;fill:rgb(81.176471%,56.470588%,41.176471%);fill-opacity:1;" d="M 0.445312 55.566406 L 59.554688 55.566406 L 59.554688 60 L 0.445312 60 Z M 0.445312 55.566406 "/>
<path style=" stroke:none;fill-rule:nonzero;fill:rgb(78.039216%,51.372549%,35.294118%);fill-opacity:1;" d="M 54.796875 55.566406 L 59.554688 55.566406 L 59.554688 60 L 54.796875 60 Z M 54.796875 55.566406 "/>
<path style=" stroke:none;fill-rule:nonzero;fill:rgb(85.098039%,87.058824%,92.941176%);fill-opacity:1;" d="M 14.644531 8.539062 L 10.355469 8.539062 C 9.859375 8.539062 9.460938 8.941406 9.460938 9.433594 C 9.460938 9.925781 9.859375 10.324219 10.355469 10.324219 L 14.644531 10.324219 C 15.140625 10.324219 15.539062 9.925781 15.539062 9.433594 C 15.539062 8.941406 15.140625 8.539062 14.644531 8.539062 Z M 14.644531 8.539062 "/>
<path style=" stroke:none;fill-rule:nonzero;fill:rgb(85.098039%,87.058824%,92.941176%);fill-opacity:1;" d="M 14.414062 0.261719 C 14.066406 -0.0859375 13.5 -0.0859375 13.152344 0.261719 C 12.804688 0.609375 12.804688 1.175781 13.15625 1.523438 L 16.191406 4.550781 C 16.363281 4.722656 16.59375 4.8125 16.820312 4.8125 C 17.046875 4.8125 17.277344 4.722656 17.453125 4.550781 C 17.800781 4.199219 17.796875 3.636719 17.449219 3.289062 Z M 14.414062 0.261719 "/>
<path style=" stroke:none;fill-rule:nonzero;fill:rgb(85.098039%,87.058824%,92.941176%);fill-opacity:1;" d="M 49.769531 8.539062 L 45.476562 8.539062 C 44.984375 8.539062 44.585938 8.941406 44.585938 9.433594 C 44.585938 9.925781 44.984375 10.324219 45.476562 10.324219 L 49.769531 10.324219 C 50.261719 10.324219 50.664062 9.925781 50.664062 9.433594 C 50.664062 8.941406 50.261719 8.539062 49.769531 8.539062 Z M 49.769531 8.539062 "/>
<path style=" stroke:none;fill-rule:nonzero;fill:rgb(85.098039%,87.058824%,92.941176%);fill-opacity:1;" d="M 46.972656 0.261719 C 46.621094 -0.0859375 46.058594 -0.0859375 45.710938 0.261719 L 42.675781 3.289062 C 42.324219 3.636719 42.324219 4.199219 42.671875 4.550781 C 42.847656 4.722656 43.074219 4.8125 43.304688 4.8125 C 43.53125 4.8125 43.761719 4.722656 43.933594 4.550781 L 46.96875 1.523438 C 47.316406 1.175781 47.320312 0.609375 46.972656 0.261719 Z M 46.972656 0.261719 "/>
<path style=" stroke:none;fill-rule:nonzero;fill:rgb(96.862745%,98.039216%,98.039216%);fill-opacity:1;" d="M 30 36.828125 C 28.039062 36.828125 26.441406 35.230469 26.441406 33.269531 C 26.441406 31.308594 28.039062 29.710938 30 29.710938 C 31.960938 29.710938 33.558594 31.304688 33.558594 33.269531 C 33.558594 35.230469 31.960938 36.828125 30 36.828125 Z M 30 36.828125 "/>
</g>
</svg>
