<svg width="60" height="60" fill="none" xmlns="http://www.w3.org/2000/svg"><g clip-path="url(#clip0_17_485)"><path d="M0 58.293V7.805h60v50.488c0 .943-.764 1.707-1.707 1.707H1.707A1.707 1.707 0 010 58.293z" fill="#E6F7FE"/><path d="M56.585 7.805v50.488c0 .943-.764 1.707-1.707 1.707h3.415c.943 0 1.707-.764 1.707-1.707V7.805h-3.415z" fill="#D3EFFD"/><path d="M0 7.805V1.707C0 .764.764 0 1.707 0h56.586C59.236 0 60 .764 60 1.707v6.098H0z" fill="#4172CA"/><path d="M58.293 0h-3.415c.943 0 1.707.764 1.707 1.707v6.098H60V1.707C60 .764 59.236 0 58.293 0z" fill="#3A67C1"/><path d="M17.561 27.561H4.878a.976.976 0 01-.976-.976V12.683c0-.539.437-.976.976-.976h12.683c.539 0 .976.437.976.976v13.902a.976.976 0 01-.976.976z" fill="#B6C4CF"/><path d="M37.118 34.635l-9.503 7.057c-.323.24-.747.297-1.122.152l-6.108-2.367a1.173 1.173 0 00-.85.002L3.902 45.593v9.333c0 .647.525 1.172 1.172 1.172h49.852c.647 0 1.171-.525 1.171-1.172V24.56L45.126 36.04a1.172 1.172 0 01-1.213.304l-5.73-1.881a1.172 1.172 0 00-1.065.173z" fill="#FFE07D"/><path d="M52.683 28.133v27.964h2.243a1.17 1.17 0 001.171-1.171V24.56l-3.414 3.573z" fill="#FFD064"/><path d="M36.414 29.565l-9.397 6.978a1.17 1.17 0 01-1.122.152l-5.478-2.122a1.173 1.173 0 00-.821-.01l-14.92 5.383a1.172 1.172 0 00-.774 1.102v4.545l15.633-6.114a1.17 1.17 0 01.85-.002l6.108 2.367c.375.145.799.088 1.122-.152l9.503-7.057a1.172 1.172 0 011.064-.173l5.731 1.88c.43.141.9.023 1.213-.303L56.097 24.56v-3.457c0-1.057-1.288-1.574-2.019-.81l-10.073 10.54a1.172 1.172 0 01-1.213.303l-5.314-1.744a1.172 1.172 0 00-1.064.173z" fill="#E279B3"/><path d="M52.683 21.753v6.38l3.414-3.573v-3.457c0-1.057-1.288-1.574-2.019-.81l-1.395 1.46z" fill="#DE5CA3"/><path d="M56.097 4.781h-1.463a.879.879 0 110-1.757h1.463a.879.879 0 110 1.757z" fill="#A2F5C3"/><path d="M50.732 4.781h-1.464a.879.879 0 110-1.757h1.464a.879.879 0 110 1.757z" fill="#FFE07D"/><path d="M45.366 4.781h-1.464a.879.879 0 110-1.757h1.464a.879.879 0 110 1.757z" fill="#E279B3"/><path d="M3.902 18.755h14.635v1.758H3.902v-1.758zm6.83-2.205H7.805a.879.879 0 110-1.758h2.927a.879.879 0 110 1.758zm0 7.927H7.805a.879.879 0 110-1.758h2.927a.879.879 0 110 1.758z" fill="#9FACBA"/><path d="M14.634 16.646a.976.976 0 100-1.95.976.976 0 000 1.95zm0 7.927a.976.976 0 100-1.951.976.976 0 000 1.951z" fill="#E279B3"/><path d="M27.975 41.424l-.36.268a1.17 1.17 0 01-1.122.151l-.276-.106v14.36h1.758V41.424zm-8.895-1.768v16.441h1.758V39.653l-.453-.176a1.172 1.172 0 00-.85.002l-.454.177zm19.404-5.095l-.302-.099a1.172 1.172 0 00-1.064.173l-.391.29v21.172h1.757V34.561zm7.01 1.093l-.368.385a1.172 1.172 0 01-1.213.304l-.176-.058v19.813h1.757V35.654z" fill="#FFC250"/><path d="M40.54 12.647H30.281a.879.879 0 110-1.758h10.257a.879.879 0 110 1.758zm-14.16 0h-3.903a.879.879 0 110-1.758h3.902a.879.879 0 110 1.758zm0 3.903h-3.903a.879.879 0 110-1.758h3.902a.879.879 0 110 1.758zm14.16 0H30.281a.879.879 0 110-1.758h10.257a.879.879 0 110 1.758zm-14.16 3.902h-3.903a.879.879 0 110-1.758h3.902a.879.879 0 110 1.758zm14.16 0H30.281a.879.879 0 110-1.758h10.257a.879.879 0 110 1.758z" fill="#4172CA"/></g><defs><clipPath id="clip0_17_485"><path fill="#fff" d="M0 0h60v60H0z"/></clipPath></defs></svg>