<svg width="60" height="60" fill="none" xmlns="http://www.w3.org/2000/svg"><g clip-path="url(#clip0_17_224)"><path d="M40.696 48.049a6.144 6.144 0 01-6.145 6.144H16.59l-6.78 5.68a.228.228 0 01-.375-.176v-4.98a.525.525 0 00-.525-.524H6.144A6.145 6.145 0 010 48.049V27.722a6.144 6.144 0 016.144-6.144h34.552v26.47z" fill="#86E8D0"/><path d="M8.455 48.049V27.722a6.144 6.144 0 016.145-6.144H6.144A6.145 6.145 0 000 27.722v20.326a6.144 6.144 0 006.144 6.145H8.91c.29 0 .525.235.525.525v4.98c0 .193.226.299.375.174l6.78-5.68H14.6a6.144 6.144 0 01-6.144-6.143zm32.241-9.133V21.578H21.392a20.707 20.707 0 005.744 11.283v6.318a3.119 3.119 0 003.117 3.113c.771 0 1.512-.287 2.087-.808l3.69-3.348c1.517.44 3.079.698 4.666.78z" fill="#5DE1C4"/><path d="M41.754.074c-10.031.01-18.23 8.232-18.21 18.263a18.181 18.181 0 006.008 13.49v7.351c0 .605.717.923 1.165.517l4.73-4.292a18.218 18.218 0 006.937 1.118A18.168 18.168 0 0060 18.298C59.998 8.228 51.828.064 41.754.075z" fill="#FD8087"/><path d="M29.87 21.46c-.02-10.623 8.351-19.398 18.826-20.025A18.184 18.184 0 0041.753.074c-10.03.01-18.228 8.232-18.21 18.263a18.181 18.181 0 006.009 13.49v7.351c0 .605.717.923 1.165.517l4.73-4.292.177.063A19.957 19.957 0 0129.87 21.46z" fill="#FE646F"/><path d="M41.983 32.189a2.191 2.191 0 01-2.188-2.19c0-1.206.982-2.188 2.188-2.188 1.207 0 2.19.982 2.19 2.189a2.191 2.191 0 01-2.19 2.189zm0-7.481c-1 0-1.811-.811-1.811-1.812v-3.66c0-1.339 1-2.468 2.327-2.627a4.28 4.28 0 003.758-4.598c-.163-2.122-1.96-3.852-4.09-3.94a4.268 4.268 0 00-4.47 4.282 1.812 1.812 0 01-3.623 0 8 8 0 01.076-1.1 7.883 7.883 0 018.167-6.803 7.902 7.902 0 017.553 7.283 7.897 7.897 0 01-6.075 8.322v2.841c0 1-.811 1.812-1.812 1.812zm-17.887 7.98H11.083a.906.906 0 110-1.812h13.013a.906.906 0 110 1.812zm1.815 5.998H5.696a.906.906 0 110-1.811h20.215a.906.906 0 010 1.811zm8.163 5.999H5.696a.906.906 0 110-1.812h28.378a.906.906 0 110 1.812z" fill="#F9F7F8"/></g><defs><clipPath id="clip0_17_224"><path fill="#fff" d="M0 0h60v60H0z"/></clipPath></defs></svg>