<svg width="60" height="60" fill="none" xmlns="http://www.w3.org/2000/svg"><g clip-path="url(#clip0_17_221)"><path d="M9.375 15h-3.75V3.75h15V7.5H9.375V15zm3.75 3.75h7.5v3.75h-7.5v-3.75zM22.5 39.375H5.625V26.25h3.75v9.375H22.5v3.75zm5.625-30h3.75v7.5h-3.75v-7.5zm0 15h3.75v7.5h-3.75v-7.5zm0 18.75h3.75v7.5h-3.75v-7.5zm22.5-31.875h3.75v13.125h-3.75V11.25z" fill="#D7DEE2"/><path d="M50.625 3.75h3.75V7.5h-3.75V3.75z" fill="#77959E"/><path d="M39.375 3.75h7.5V7.5h-7.5V3.75zm0 48.75h7.5v3.75h-7.5V52.5z" fill="#D7DEE2"/><path d="M50.625 52.5h3.75v3.75h-3.75V52.5z" fill="#77959E"/><path d="M50.625 35.625h3.75V48.75h-3.75V35.625z" fill="#D7DEE2"/><path d="M18.75 0h22.5v11.25h-22.5V0zm0 15h22.5v11.25h-22.5V15z" fill="#A5D6A7"/><path d="M35.625 60h-11.25a5.625 5.625 0 110-11.25h11.25a5.625 5.625 0 110 11.25z" fill="#FFCB5A"/><path d="M15 20.625a7.5 7.5 0 01-15 0 7.5 7.5 0 1115 0zM60 30a7.5 7.5 0 11-15 0 7.5 7.5 0 0115 0z" fill="#80DEEA"/><path d="M30 45.379L18.182 37.5 30 29.621l11.818 7.88L30 45.378z" fill="#E76E54"/></g><defs><clipPath id="clip0_17_221"><path fill="#fff" d="M0 0h60v60H0z"/></clipPath></defs></svg>