<svg width="60" height="60" fill="none" xmlns="http://www.w3.org/2000/svg"><g clip-path="url(#clip0_17_482)"><path d="M57.813 54.59V40.75a8.94 8.94 0 00-8.025-8.893c-.3-.03-.605.044-.914.044-4.937 0-8.736 3.974-8.736 8.91v13.72l17.675.058z" fill="#855B51"/><path d="M49.84 31.863a8.94 8.94 0 00-7.973 8.886v13.737l-1.931.045V40.75a8.939 8.939 0 019.904-8.886z" fill="#724D44"/><path d="M51.369 59.624V50.26l-.37-1.095.37-3.214h-4.99l.212 5.085-.212 1.69v6.9l2.494.375 2.496-.376z" fill="#C48958"/><path d="M46.282 51.27l-4.903 1.942.595 6.788h6.9l-.36-.396c-1.72-1.891-2.054-4.334-2.12-6.879-.014-.56-.112-.89-.112-1.455z" fill="#FFD163"/><path d="M46.396 52.725l-.016.006-4.868 2-.143-1.636 5.01-2.06.212.842-.195.848z" fill="#FFB65F"/><path d="M56.49 53.145l-5.122-2.11c0 3.092-.033 6.272-2.152 8.59l-.343.375h8.278c.667 0 1.208-.541 1.208-1.208v-2.854a3.02 3.02 0 00-1.87-2.793z" fill="#FFD163"/><path d="M46.38 45.95h-.001v4.302s.002 1.913.017 2.473l1.254-.516c.181-.074.3-.25.3-.446v-.536a.24.24 0 01.281-.237c.215.036.429.055.64.055.858 0 1.704-.29 2.496-.786V45.95H46.38z" fill="#B27A49"/><path d="M43.519 41.828c.01.435-.157.771-.065 1.215.66 3.208 3.26 6.432 5.42 6.432 2.495 0 5.577-4.303 5.577-7.913 0-2.235-.754-4.208-2.184-5.387-.298-.245-.543-.222-.898-.394a.195.195 0 00-.274.13c-.667 2.665-2.928 4.851-5.686 5.424l-1.738.301c-.09.02-.152.192-.152.192z" fill="#C48958"/><path d="M45.772 42.53c3.185-.687 5.756-3.27 6.494-6.354a4.869 4.869 0 00-.98-.629.195.195 0 00-.273.13c-.668 2.665-2.888 4.868-5.645 5.441l-1.918.41c-.09.02-.154.1-.153.192.01.435.066.88.157 1.323l2.318-.514z" fill="#B27A49"/><path d="M20.611 53.915l-6.99-2.49c-1.316 1.519-3.597 1.345-4.912-.175l-5.046 2.097c-1.132.466-1.902 1.367-1.902 2.591v2.733c0 .667.541 1.208 1.209 1.208l.24.121h5.42l2.416-.31 2.574.31h4.46l2.532-.448v-5.637z" fill="#BAE6EF"/><path d="M13.445 47.158H8.873l.02 3.63c.435.501.721 1.086 1.308 1.257a3.297 3.297 0 003.418-1.007l.002-.002v-1.917l-.176-1.96z" fill="#F2D1A5"/><path d="M9.736 52.062l-5.257 2.38-.37.154a1.446 1.446 0 00-.899 1.342V60h-.36c-.669 0-1.21-.54-1.21-1.208v-2.854c0-1.223.74-2.327 1.87-2.793L8.4 51.25c.341.34 1.336.812 1.336.812z" fill="#94D8E6"/><path d="M19.32 53.383L13.62 60H8.63l-4.15-5.56-.806-1.227 2.733-.95 2.225-1.228a3.3 3.3 0 004.988.001v-.001l5.7 2.348z" fill="#F8F7F7"/><path d="M10.201 47.159h-1.57v4.123l1.248.776s.282-.033.322-.016v-2.018a.24.24 0 01.279-.237c.215.033.43.05.645.05.836 0 1.685-.26 2.495-.718v-1.96h-3.419z" fill="#F2BB88"/><path d="M10.201 52.043v.001L4.48 54.441l-.967-1.296 5.12-2.11c.083.041.414.642 1.57 1.008z" fill="#E8E8E8"/><path d="M16.87 40.39c0-3.798-1.948-6.113-5.745-6.113S5.38 36.592 5.38 40.39c0 .801.024 1.616.277 2.402.945 2.937 3.4 5.476 5.47 5.476 2.05 0 4.48-2.493 5.442-5.396.269-.81.303-1.653.303-2.482z" fill="#F2D1A5"/><path d="M14.367 35.038a3.895 3.895 0 00-1.1.284l-.004.012a2.315 2.315 0 00-.233-.83 7.581 7.581 0 00-1.905-.227c-3.797 0-5.866 2.315-5.866 6.113 0 .801.146 1.616.399 2.402.084-.077.175-.162.274-.264.752-.767 2.017-2.04 3.508-2.691.912-.399 1.684-.509 2.28-1.028a.242.242 0 01.372.06c.272.467.877 1.109 2.098 1.834 1.042.619 1.927 1.495 2.378 2.17a7.936 7.936 0 00.424-2.483c0-2.515-.909-4.38-2.625-5.352z" fill="#F2BB88"/><path d="M13.277 33.884c.43-.186.959-.437 1.525-.442.87-.007 1.806.256 2.504.962 2.284 2.313 1.085 5.88.207 7.445a.241.241 0 01-.392.043c-.438-.497-1.519-1.633-2.969-2.561a5.587 5.587 0 01-1.21-1.04c-.388-.447-.509-1.03-.678-1.516l1.013-2.891z" fill="#8E868E"/><path d="M14.56 35.708a6.781 6.781 0 01-1.617 2.58 4.354 4.354 0 01-.844-1.416l1.169-3.12c.43-.186.968-.305 1.534-.31.099.715.02 1.49-.243 2.266z" fill="#766D78"/><path d="M12.933 32.764c-.399-.623-1.113-1.017-1.989-1.156-1.402-.224-3.154.424-4.763 1.6-3.033 2.217-2.413 6.56-1.461 8.49a.242.242 0 00.414.036c.166-.23.429-.398.798-.775a9.744 9.744 0 013.629-2.33c3.043-1.107 4.41-4.242 3.372-5.865z" fill="#8E868E"/><path d="M10.958 31.61c-1.062.153-2.214.603-3.274 1.378-2.632 1.923-2.464 5.736-1.752 7.971-.369.377-.633.71-.799.94a.242.242 0 01-.414-.037c-.951-1.929-1.638-6.656 1.396-8.874 1.615-1.18 3.44-1.607 4.843-1.378z" fill="#766D78"/><path d="M17.206 23.396l-2.805-.015c-.34 0-.666.133-.909.371l-1.889 1.857a.648.648 0 01-.911-.003L8.84 23.759a1.295 1.295 0 00-.915-.378H5.013a2.33 2.33 0 01-2.331-2.331v-8.16c0-1.021.535-2.01 1.449-2.325.238-.082.495-.127.761-.127h14.839V21.17c0 .266-.045.523-.128.762-.316.913-1.377 1.463-2.397 1.463z" fill="#F8F7F7"/><path d="M19.602 21.932a2.33 2.33 0 01-2.202 1.57h-2.878a1.3 1.3 0 00-.91.371l-2.01 1.978a.648.648 0 01-.91-.004L8.72 23.88a1.299 1.299 0 00-.915-.378H4.892a2.33 2.33 0 01-2.33-2.33V12.77c0-1.021.655-1.89 1.57-2.203V21.17c0 .42.34.762.76.762h2.913c.764 0 1.482.297 2.023.837l.987.985a.484.484 0 00.68.002l1.018-1.002a2.865 2.865 0 012.009-.822h5.08z" fill="#E8E8E8"/><path d="M10.955 15.194a.282.282 0 00.385-.003 2.152 2.152 0 011.477-.577c1.17.003 2.125.964 2.108 2.119-.022 1.525-1.649 2.83-2.76 3.544-.393.253-.721.274-.892.363a.282.282 0 01-.255.003c-.665-.329-3.53-1.788-3.487-3.915.017-.858.437-1.575 1.177-1.9.076-.034.153-.112.237-.136a1.99 1.99 0 01.543-.078c.57-.004 1.086.22 1.467.58z" fill="#DF646E"/><path d="M12.164 20.277c-.392.252-.722.43-.892.52a.28.28 0 01-.255.004c-.666-.329-3.694-1.941-3.65-4.069a2.203 2.203 0 011.578-2.04c-.299.366-.48.827-.492 1.316-.035 1.723 2.422 3.485 3.711 4.269z" fill="#DC4955"/><path d="M54.961 23.38h-2.878c-.34 0-.666.134-.908.372l-1.89 1.978a.647.647 0 01-.91-.003l-1.852-1.968a1.295 1.295 0 00-.915-.378h-2.913a2.33 2.33 0 01-2.33-2.331l.153-10.374 2.351-.238h12.213a2.33 2.33 0 012.331 2.33v8.402c0 .267-.045.523-.127.762-.316.914-1.304 1.449-2.325 1.449z" fill="#F8F7F7"/><path d="M48.638 15.194a.282.282 0 00.385-.003 2.15 2.15 0 011.477-.577c1.17.003 2.125.964 2.108 2.119-.022 1.525-1.649 2.83-2.76 3.544-.393.253-.721.274-.892.363a.282.282 0 01-.255.003c-.666-.329-3.53-1.788-3.487-3.915.017-.858.437-1.575 1.176-1.9.077-.034.154-.112.237-.136.174-.05.356-.077.543-.078a2.111 2.111 0 011.468.58z" fill="#DF646E"/><path d="M49.847 20.277c-.392.252-.722.43-.892.52a.28.28 0 01-.255.004c-.666-.329-3.694-1.941-3.65-4.069a2.203 2.203 0 011.577-2.04c-.298.366-.48.827-.491 1.316-.035 1.723 2.422 3.485 3.711 4.269z" fill="#DC4955"/><path d="M52.204 21.932c-.756 0-1.47.292-2.01.822l-1.187 1.17a.243.243 0 01-.34-.001l-1.156-1.154a2.863 2.863 0 00-2.023-.837h-2.913a.762.762 0 01-.762-.762v-4.226c0-.058.021-.113.058-.156.116-.137.22-.28.311-.431.45-.747.687-1.605.687-2.479v-3.44h-2.626V21.17a2.331 2.331 0 002.332 2.331h2.913c.343 0 .672.137.915.378l1.971 1.968a.648.648 0 00.912.004l2.01-1.978c.242-.238.568-.372.908-.372h2.878a2.331 2.331 0 002.203-1.57h-5.081v.001z" fill="#E8E8E8"/><path d="M37.693 16.83l-3.49.119a1.94 1.94 0 00-1.447.647l-2.026 2.23a.906.906 0 01-1.356-.005L27.5 17.55a1.942 1.942 0 00-1.458-.659l-4 .224a3.238 3.238 0 01-3.238-3.237V3.238A3.237 3.237 0 0122.042 0h16.02A3.237 3.237 0 0141.3 3.237V13.88c0 .61-.17 1.18-.463 1.668-.566.94-1.966 1.284-3.144 1.284z" fill="#F8F7F7"/><path d="M40.837 15.547a3.238 3.238 0 01-2.775 1.57h-3.86c-.552 0-1.079.235-1.448.646l-2.021 2.26a.905.905 0 01-1.356-.006l-1.974-2.241a1.94 1.94 0 00-1.458-.66h-3.903a3.238 3.238 0 01-3.238-3.237V3.238a3.24 3.24 0 011.57-2.776V13.88c0 .92.747 1.668 1.668 1.668h3.903c1.01 0 1.97.433 2.636 1.191l1.211 1.375a.361.361 0 00.541.002l1.252-1.398a3.508 3.508 0 012.617-1.17h6.635z" fill="#E8E8E8"/><path d="M29.76 5.291a.431.431 0 00.59-.004 3.304 3.304 0 012.266-.886c1.795.006 3.26 1.48 3.234 3.251-.035 2.452-2.776 4.534-4.476 5.59-.495.308-.865.392-1.09.51a.432.432 0 01-.392.004c-1.021-.504-5.48-2.655-5.415-5.918.029-1.4.762-2.836 2.055-3.272.31-.104.637-.162.976-.164a3.239 3.239 0 012.252.89z" fill="#DF646E"/><path d="M31.374 13.242c-.495.308-.902.529-1.128.646a.434.434 0 01-.39.005c-1.022-.505-5.668-2.977-5.603-6.24.028-1.402.986-2.651 2.28-3.086a3.326 3.326 0 00-.952 2.24c-.055 2.79 3.982 5.416 5.793 6.435z" fill="#DC4955"/><path d="M33.17 42.303h-6.285l.297 4.19-.297 2.215.001.001c.284.327.482.714.836.948 1.345.89 3.218.969 4.546.17.365-.22.603-.775.9-1.117l.001-.002v-2.661l-.254-.417.254-3.327z" fill="#E3A76F"/><path d="M39.73 51.411l-3.287-1.354-3.274-.995c-1.658 1.913-4.627 2.086-6.284.172l-6.32 2.177a3.625 3.625 0 00-2.243 3.352l.12 4.995L19.65 60h7.932l2.567-.582 2.275.582h9.551v-5.236a3.626 3.626 0 00-2.244-3.353z" fill="#CCF49F"/><path d="M28.455 42.303h-1.57v6.406c.197.227.109.61.338.784.262.198.846.177 1.138.305v-2.98a.24.24 0 01.296-.235c.436.102.926.209 1.37.209 1.149 0 2.2-.268 3.142-.745v-3.744h-4.714z" fill="#D6995C"/><path d="M28.223 49.798l-3.635 1.554-3.665 1.51a2.049 2.049 0 00-1.274 1.901V60h-1.57v-5.237c0-1.468.887-2.792 2.245-3.351l3.27-1.348 1.492-.46 1.734-.779c.421.487.854.733 1.402.973z" fill="#B3E59F"/><path d="M36.443 50.057l-.136.158a16.753 16.753 0 00-3.884 9.651V60H27.58v-.087a16.75 16.75 0 00-2.993-8.56c-.299-.428-.482-.802-.822-1.202l-.036-.047 3.155-1.271c.422.487.928.726 1.477.965a4.16 4.16 0 004.806-1.088l.001-.001 3.274 1.348z" fill="#F8F7F7"/><path d="M28.36 49.798l-3.772 1.554a16.57 16.57 0 00-.957-1.24l-.037-.048 3.291-1.355a4.147 4.147 0 001.476 1.089z" fill="#E8E8E8"/><path d="M36.86 35.212c0-4.548-2.286-8.192-6.834-8.192-4.547 0-6.61 3.676-6.61 8.223 0 .76-.346 1.554-.21 2.332.68 3.885 3.032 7.647 6.82 7.647 4.034 0 6.44-4.265 6.932-8.403.062-.527-.097-1.094-.097-1.607z" fill="#E3A76F"/><path d="M37.052 35.254c0-3.325-1.327-6.188-3.817-7.487-.079.098-.24.036-.214-.108-.867-.41-1.867-.639-2.995-.639-4.547 0-7.025 3.687-7.025 8.234 0 .76.07 1.543.205 2.321.106-.14.25-.243.389-.372 1.19-1.12 2.896-1.16 3.078-2.33a.242.242 0 01.303-.202c1.354.375 3.55-.482 4.286-1.97a.241.241 0 01.377-.071c.687.602 1.592.587 1.984.545a.242.242 0 01.256.162c.683 1.997 2.556 1.264 3.078 3.482.063-.527.095-1.051.095-1.565z" fill="#D6995C"/><path d="M37.673 29.07a3.303 3.303 0 00-.28-.058.12.12 0 01-.089-.167 2.52 2.52 0 00.23-1.31 2.544 2.544 0 00-2.297-2.294 2.53 2.53 0 00-2.013.726.12.12 0 01-.203-.06 3.079 3.079 0 00-4.954-1.803.122.122 0 01-.17-.017 2.526 2.526 0 00-1.941-.908 2.535 2.535 0 00-2.512 2.195.121.121 0 01-.113.106 3.62 3.62 0 00-.821.143c-1.498.444-2.428 1.895-2.428 3.537 0 .932.347 1.64.925 2.281a.115.115 0 01.03.085c-.015.246-.084 1.396.114 2.453.362 1.931 1.85 2.463 1.85 2.463 0-.57.276-.787.594-1.05.738-.61 2.013-.72 2.334-1.846a.118.118 0 01.133-.086c.194.034.61.101.86.101a4.347 4.347 0 004.057-2.788.116.116 0 01.2-.028 2.953 2.953 0 003.123 1.016.119.119 0 01.146.08c.74 2.42 2.594 1.639 2.594 3.898 1.215-.548 1.94-2.422 2.286-3.668a2.44 2.44 0 00-1.655-3z" fill="#855B51"/><path d="M23.594 35.392c-.317.263-.524.63-.524 1.2 0 0-1.702-.616-2.064-2.548-.198-1.056-.141-2.196-.125-2.442a.114.114 0 00-.03-.085 3.62 3.62 0 011.66-5.894 3.608 3.608 0 00-1.264 2.747c0 .932.353 1.78.931 2.423.02.023.033.053.03.085-.015.246-.072 1.386.126 2.442a3.375 3.375 0 001.26 2.072z" fill="#724D44"/></g><defs><clipPath id="clip0_17_482"><path fill="#fff" d="M0 0h60v60H0z"/></clipPath></defs></svg>