<svg width="60" height="60" fill="none" xmlns="http://www.w3.org/2000/svg"><g clip-path="url(#clip0_17_483)"><path d="M48.186 36.857h1.758v3.86h-1.758v-3.86zm0 11.437h1.758v3.861h-1.758v-3.86zm.879-32.361a.879.879 0 00-.88.879v1.406a.879.879 0 101.759 0v-1.406a.879.879 0 00-.88-.88zm-3.555-4.488h-1.74a12.244 12.244 0 01.01 1.758h1.732a.879.879 0 100-1.758zm3.536 3.317a.879.879 0 00.872-1 2.673 2.673 0 00-1.025-1.76.879.879 0 10-1.072 1.393c.196.15.322.367.356.609a.88.88 0 00.87.758zm.019 9.843a.879.879 0 00-.88.878v1.407a.879.879 0 101.759 0v-1.407a.879.879 0 00-.88-.878zm0-4.336a.879.879 0 00-.88.879v1.406a.879.879 0 101.759 0v-1.406a.879.879 0 00-.88-.88zM21.6 55.064h-1.406a.879.879 0 100 1.758H21.6a.879.879 0 000-1.758zm-4.336 0h-.056a.93.93 0 01-.632-.246.879.879 0 10-1.192 1.291 2.68 2.68 0 001.824.713h.056a.879.879 0 000-1.758zm-.988-2.366v-1.406a.879.879 0 00-1.758 0v1.406a.879.879 0 001.758 0zm-.879-3.457a.879.879 0 00.88-.879v-1.406a.879.879 0 00-1.759 0v1.406c0 .486.394.88.88.88zm14.875 5.823h-1.406a.879.879 0 000 1.758h1.406a.879.879 0 100-1.758zm7.975 0h-.71a.879.879 0 100 1.758h.71v-1.758zm-3.639 0h-1.406a.879.879 0 100 1.758h1.406a.879.879 0 100-1.758zm-8.672 0H24.53a.879.879 0 000 1.758h1.406a.879.879 0 000-1.758z" fill="#99E6FC"/><path d="M19.493 44.226a6.98 6.98 0 016.973-6.973h.023v-16.87l-1.511 1.512a.577.577 0 01-.761.05 12.214 12.214 0 01-2.087-2.086.576.576 0 01.05-.762l1.76-1.76a.812.812 0 00.141-.956c-.24-.458-.44-.94-.593-1.434a.812.812 0 00-.776-.577h-2.49a.576.576 0 01-.574-.502c-.059-.488-.09-.984-.09-1.476l.002-.068H5.876c-.32 0-.627.127-.853.353l-4.67 4.67A1.207 1.207 0 000 18.2v26.093c0 .667.54 1.208 1.207 1.208h18.405a6.966 6.966 0 01-.12-1.275z" fill="#FEF1DA"/><path d="M5.01 44.293V18.2c0-.32.127-.627.354-.853l4.669-4.67c.226-.226.533-.353.854-.353h-5.01c-.32 0-.628.127-.854.353l-4.67 4.67A1.207 1.207 0 000 18.2v26.093c0 .667.54 1.208 1.207 1.208h5.01a1.208 1.208 0 01-1.207-1.208z" fill="#FAE2C0"/><path d="M19.523 21.673H6.966a.879.879 0 010-1.758h12.557a.879.879 0 010 1.758zm0 4.387H6.966a.879.879 0 010-1.758h12.557a.879.879 0 010 1.758zm0 4.367H6.966a.879.879 0 010-1.758h12.557a.879.879 0 010 1.758zm0 4.407H6.966a.879.879 0 010-1.758h12.557a.879.879 0 010 1.758zm-6.928 4.386h-5.63a.879.879 0 010-1.758h5.63a.879.879 0 110 1.758z" fill="#D8AA5E"/><path d="M26.466 51.316a7.09 7.09 0 100-14.18 7.09 7.09 0 000 14.18z" fill="#05E39C"/><path d="M23.425 44.226a7.092 7.092 0 015.066-6.795 7.09 7.09 0 100 13.59 7.092 7.092 0 01-5.066-6.795z" fill="#0ED290"/><path d="M26.015 47.11a.876.876 0 01-.621-.258l-2.754-2.754a.879.879 0 011.243-1.243l2.132 2.133 3.034-3.034a.879.879 0 111.243 1.243l-3.655 3.655a.876.876 0 01-.622.257z" fill="#fff"/><path d="M39.508 7.53l1.76-1.76a.693.693 0 00.06-.916 12.31 12.31 0 00-2.107-2.106.693.693 0 00-.916.06l-1.76 1.76a.698.698 0 01-.82.12 8.648 8.648 0 00-1.453-.602.697.697 0 01-.494-.665V.931a.693.693 0 00-.605-.69 12.329 12.329 0 00-2.98 0 .693.693 0 00-.605.69v2.49a.697.697 0 01-.495.665 8.695 8.695 0 00-1.453.601.697.697 0 01-.82-.12l-1.76-1.76a.694.694 0 00-.915-.06 12.31 12.31 0 00-2.107 2.107.693.693 0 00.06.916l1.76 1.76a.698.698 0 01.12.82 8.647 8.647 0 00-.602 1.453.697.697 0 01-.664.494h-2.49a.693.693 0 00-.69.605 12.334 12.334 0 000 2.98c.042.347.34.605.69.605h2.49c.306 0 .573.202.664.495.157.505.36.991.601 1.453a.698.698 0 01-.12.82l-1.76 1.76a.693.693 0 00-.059.915 12.31 12.31 0 002.106 2.107c.275.215.67.187.917-.06l1.76-1.76a.698.698 0 01.82-.12c.46.243.947.445 1.452.602a.697.697 0 01.495.664v2.49c0 .35.258.648.605.69a12.332 12.332 0 002.98 0 .693.693 0 00.605-.69v-2.49c0-.306.202-.573.494-.664.506-.157.992-.36 1.453-.602a.697.697 0 01.82.12l1.76 1.76a.694.694 0 00.916.06 12.31 12.31 0 002.106-2.107.693.693 0 00-.06-.916l-1.759-1.76a.698.698 0 01-.12-.82c.242-.46.444-.947.602-1.452a.697.697 0 01.664-.495h2.49a.693.693 0 00.69-.605 12.332 12.332 0 000-2.98.693.693 0 00-.69-.605h-2.49a.697.697 0 01-.665-.494 8.643 8.643 0 00-.601-1.453.698.698 0 01.12-.82z" fill="#7CA1B1"/><path d="M29.699 18.442c-2.543-.837-4.384-3.231-4.384-6.05 0-2.818 1.841-5.213 4.384-6.049a9.332 9.332 0 014.097-2.774.684.684 0 01-.018-.148V.931a.693.693 0 00-.605-.69 12.329 12.329 0 00-2.98 0 .693.693 0 00-.605.69v2.49a.697.697 0 01-.495.665 8.695 8.695 0 00-1.453.601.697.697 0 01-.82-.12l-1.76-1.76a.694.694 0 00-.915-.06 12.31 12.31 0 00-2.107 2.107.693.693 0 00.06.916l1.76 1.76a.698.698 0 01.12.82 8.647 8.647 0 00-.602 1.453.697.697 0 01-.664.494h-2.49a.693.693 0 00-.69.605 12.334 12.334 0 000 2.98c.042.347.34.605.69.605h2.49c.306 0 .573.202.664.495.157.505.36.991.601 1.453a.698.698 0 01-.12.82l-1.76 1.76a.693.693 0 00-.059.915 12.31 12.31 0 002.106 2.107c.275.215.67.187.917-.06l1.76-1.76a.698.698 0 01.82-.12c.46.243.947.445 1.452.602a.697.697 0 01.495.664v2.49c0 .35.258.648.605.69a12.332 12.332 0 002.98 0 .693.693 0 00.605-.69v-2.49c0-.05.007-.1.018-.148a9.331 9.331 0 01-4.097-2.773z" fill="#678D98"/><path d="M31.683 17.88a5.489 5.489 0 100-10.976 5.489 5.489 0 000 10.977z" fill="#3E5959"/><path d="M29.276 12.392a5.49 5.49 0 013.948-5.267 5.489 5.489 0 100 10.535 5.49 5.49 0 01-3.948-5.268z" fill="#384949"/><path d="M31.683 18.76a6.375 6.375 0 01-6.368-6.368 6.375 6.375 0 016.368-6.367 6.375 6.375 0 016.367 6.367 6.375 6.375 0 01-6.367 6.368zm0-10.977a4.615 4.615 0 00-4.61 4.61 4.615 4.615 0 004.61 4.609 4.615 4.615 0 004.61-4.61 4.615 4.615 0 00-4.61-4.61z" fill="#8EBAC5"/><path d="M31.683 14.298a1.906 1.906 0 100-3.811 1.906 1.906 0 000 3.81z" fill="#fff"/><path d="M59.396 36.974H38.733a.604.604 0 01-.603-.604v-6.603c0-.334.27-.604.603-.604h20.663c.334 0 .604.27.604.604v6.603c0 .334-.27.604-.604.604z" fill="#01D0FB"/><path d="M42.193 36.37v-6.603c0-.334.27-.604.604-.604h-4.064a.604.604 0 00-.603.604v6.603c0 .334.27.604.603.604h4.064a.604.604 0 01-.604-.604z" fill="#01C0FA"/><path d="M55.704 33.947H42.425a.879.879 0 010-1.757h13.279a.879.879 0 110 1.758z" fill="#99E6FC"/><path d="M59.396 48.411H38.733a.604.604 0 01-.603-.603v-6.604c0-.333.27-.604.603-.604h20.663c.334 0 .604.27.604.604v6.604c0 .333-.27.603-.604.603z" fill="#FED402"/><path d="M42.193 47.808v-6.604c0-.333.27-.604.604-.604h-4.064a.604.604 0 00-.603.604v6.604c0 .333.27.603.603.603h4.064a.604.604 0 01-.604-.603z" fill="#FAC600"/><path d="M55.704 45.385H42.425a.879.879 0 110-1.758h13.279a.879.879 0 110 1.758z" fill="#C99C56"/><path d="M59.396 59.849H38.733a.604.604 0 01-.603-.604v-6.604c0-.333.27-.603.603-.603h20.663c.334 0 .604.27.604.603v6.604c0 .334-.27.604-.604.604z" fill="#FD5426"/><path d="M42.193 59.245v-6.604c0-.333.27-.603.604-.603h-4.064a.604.604 0 00-.603.603v6.604c0 .334.27.604.603.604h4.064a.604.604 0 01-.604-.604z" fill="#EF4424"/><path d="M55.704 56.822H42.425a.879.879 0 110-1.758h13.279a.879.879 0 110 1.758z" fill="#D73D24"/></g><defs><clipPath id="clip0_17_483"><path fill="#fff" d="M0 0h60v60H0z"/></clipPath></defs></svg>