<svg width="60" height="60" fill="none" xmlns="http://www.w3.org/2000/svg"><path fill-rule="evenodd" clip-rule="evenodd" d="M37.54 53.814H22.424c-.316 0-.562-.282-.562-.598v-5.378c0-.316.246-.597.562-.597H37.54c.352 0 .598.281.598.597v5.378a.592.592 0 01-.598.598z" fill="#ACE1EF"/><path fill-rule="evenodd" clip-rule="evenodd" d="M56.028 48.436H3.972c-2.18 0-3.937-1.793-3.937-3.972V6.151c0-2.18 1.758-3.972 3.937-3.972h52.056c2.18 0 3.937 1.793 3.937 3.972v38.313c0 2.18-1.758 3.972-3.937 3.972z" fill="#4493A9"/><path fill-rule="evenodd" clip-rule="evenodd" d="M54.868 39.684H5.132c-.773 0-1.406-.633-1.406-1.441V6.994c0-.809.633-1.441 1.406-1.441h49.736c.773 0 1.406.632 1.406 1.44v31.248c0 .809-.633 1.442-1.406 1.442z" fill="#fff"/><path fill-rule="evenodd" clip-rule="evenodd" d="M46.046 57.786H13.919a2.58 2.58 0 01-2.566-2.566 2.58 2.58 0 012.566-2.566h32.127c1.44 0 2.6 1.16 2.6 2.566s-1.16 2.566-2.6 2.566z" fill="#4493A9"/><path fill-rule="evenodd" clip-rule="evenodd" d="M29.982 46.151a2.67 2.67 0 01-2.67-2.671c0-1.512 1.194-2.707 2.67-2.707a2.708 2.708 0 012.707 2.707c0 1.476-1.23 2.671-2.707 2.671z" fill="#666"/><path fill-rule="evenodd" clip-rule="evenodd" d="M6.468 44.042H3.48c-.317 0-.598-.246-.598-.562 0-.352.281-.598.598-.598h2.988c.351 0 .597.246.597.598 0 .316-.246.562-.598.562z" fill="#fff"/><path fill-rule="evenodd" clip-rule="evenodd" d="M11.775 44.042H8.752a.555.555 0 01-.562-.562c0-.352.246-.598.562-.598h3.023c.316 0 .562.246.562.598a.555.555 0 01-.562.562z" fill="#0F0"/><path fill-rule="evenodd" clip-rule="evenodd" d="M17.047 44.042h-3.022a.555.555 0 01-.563-.562c0-.352.246-.598.563-.598h3.022c.317 0 .598.246.598.598 0 .316-.281.562-.598.562z" fill="red"/><path fill-rule="evenodd" clip-rule="evenodd" d="M29.982 33.92c-.07 0-.14-.036-.246-.071l-10.474-4.85a.543.543 0 01-.352-.528V15.466c0-.211.07-.352.246-.492a.494.494 0 01.492-.07l10.51 3.022a.57.57 0 01.422.563v14.833c0 .21-.105.386-.281.492-.07.07-.211.105-.317.105z" fill="#FDBF00"/><path fill-rule="evenodd" clip-rule="evenodd" d="M29.982 33.92a.567.567 0 01-.316-.106.615.615 0 01-.246-.492V18.489a.57.57 0 01.422-.563l10.51-3.023a.494.494 0 01.492.07c.14.141.246.282.246.493V28.47c0 .246-.141.457-.352.527l-10.51 4.85a.508.508 0 01-.246.071z" fill="#FDBF00"/><path fill-rule="evenodd" clip-rule="evenodd" d="M29.982 19.086c-.035 0-.105-.035-.14-.035l-10.51-3.023a.57.57 0 01-.422-.562c0-.246.141-.457.387-.563l10.474-4.007a.45.45 0 01.422 0l10.51 4.007a.603.603 0 01.387.563c-.036.28-.176.492-.422.562l-10.51 3.023c-.07 0-.105.035-.176.035z" fill="#F2CE2A"/><path fill-rule="evenodd" clip-rule="evenodd" d="M9.947 35.888c-.351 0-.597-.246-.597-.563V9.455c0-.316.246-.597.597-.597.317 0 .563.28.563.597v25.87a.555.555 0 01-.563.563zm3.902-3.164a.572.572 0 01-.598-.597V12.619c0-.317.246-.563.598-.563.316 0 .562.246.562.563v19.508c0 .351-.246.597-.562.597zm36.204 3.164c-.317 0-.598-.246-.598-.563V9.455c0-.316.281-.597.598-.597.316 0 .597.28.597.597v25.87c0 .316-.28.563-.597.563zm-3.902-3.164a.592.592 0 01-.597-.597V12.619c0-.317.28-.563.597-.563.316 0 .598.246.598.563v19.508a.592.592 0 01-.598.597zm-4.675 3.656H18.524c-.317 0-.563-.282-.563-.598s.246-.597.563-.597h22.952c.317 0 .563.28.563.597 0 .316-.246.598-.563.598z" fill="#CCC"/></svg>