<svg width="60" height="60" fill="none" xmlns="http://www.w3.org/2000/svg"><g clip-path="url(#clip0_17_486)"><path d="M54.167 54.176c5.262-5.262 5.262-13.793 0-19.056-5.262-5.262-13.794-5.262-19.056 0-5.262 5.263-5.262 13.794 0 19.056 5.262 5.262 13.794 5.262 19.056 0z" fill="#80B4FB"/><path d="M52.962 52.971c4.597-4.596 4.597-12.049 0-16.646-4.597-4.596-12.05-4.596-16.646 0-4.597 4.597-4.597 12.05 0 16.646 4.597 4.597 12.05 4.597 16.646 0z" fill="#ECEFF1"/><path fill-rule="evenodd" clip-rule="evenodd" d="M44.648 32.876c-6.501 0-11.772 5.27-11.772 11.772 0 6.502 5.27 11.773 11.772 11.773.13 0 .258-.003.385-.007-6.323-.203-11.387-5.393-11.387-11.766 0-6.372 5.064-11.562 11.387-11.765a12.016 12.016 0 00-.385-.007z" fill="#D1D1D6"/><path fill-rule="evenodd" clip-rule="evenodd" d="M43.772 34.617a.876.876 0 011.753 0v1.088a.877.877 0 01-1.753 0v-1.087zm-9.154 10.908a.877.877 0 010-1.753h1.087a.876.876 0 110 1.753h-1.087zm10.907 9.154a.877.877 0 01-1.753 0v-1.087a.876.876 0 011.753 0v1.087zm9.154-10.907a.876.876 0 110 1.753h-1.087a.877.877 0 010-1.753h1.087zm-17.743-5.597a.876.876 0 011.24-1.24l.768.77a.876.876 0 11-1.24 1.239l-.768-.769zm1.24 14.186a.876.876 0 01-1.24-1.24l.769-.768a.876.876 0 111.24 1.24l-.77.768zm14.185-1.24a.876.876 0 01-1.24 1.24l-.768-.769a.876.876 0 111.24-1.24l.768.77zm-1.24-14.185a.876.876 0 011.24 1.24l-.769.768a.876.876 0 11-1.24-1.24l.77-.768zM43.71 39.55a.938.938 0 011.876 0v4.562l2.932 1.693a.934.934 0 01-.93 1.618l-3.33-1.922a.938.938 0 01-.547-.853V39.55zM26.8 48.815a.937.937 0 110 1.875c-5.22 0-10.011-1.472-13.742-3.918-3.842-2.52-6.567-6.077-7.502-10.142a.935.935 0 111.824-.418c.823 3.578 3.259 6.734 6.704 8.993 3.437 2.253 7.87 3.61 12.716 3.61z" fill="#A79BA7"/><path fill-rule="evenodd" clip-rule="evenodd" d="M6.38 38.502a2.504 2.504 0 002.498-2.499 2.504 2.504 0 00-2.499-2.499 2.504 2.504 0 00-2.498 2.499 2.504 2.504 0 002.498 2.499z" fill="#6CF5C2"/><path fill-rule="evenodd" clip-rule="evenodd" d="M33.65 10.504a.937.937 0 01.227-1.86c5.177.633 9.752 2.729 13.026 5.737 3.277 3.011 5.256 6.934 5.256 11.235a.938.938 0 01-1.875 0c0-3.751-1.75-7.195-4.648-9.858-2.992-2.75-7.201-4.669-11.986-5.254z" fill="#A79BA7"/><path fill-rule="evenodd" clip-rule="evenodd" d="M51.221 28.115a2.504 2.504 0 002.5-2.499 2.504 2.504 0 00-2.5-2.499 2.504 2.504 0 00-2.498 2.5 2.504 2.504 0 002.498 2.498z" fill="#FE646F"/><path fill-rule="evenodd" clip-rule="evenodd" d="M18.244 1.875l.874 4.253c1.08.263 2.096.689 3.02 1.25l3.626-2.388 2.375 2.375-2.389 3.625c.562.925.988 1.94 1.251 3.02l4.253.875v3.359L27 19.118a10.683 10.683 0 01-1.251 3.02l2.39 3.626-2.376 2.375-3.625-2.39c-.925.563-1.941.989-3.02 1.252l-.875 4.253h-3.36L14.012 27a10.683 10.683 0 01-3.02-1.251l-3.626 2.39-2.375-2.376 2.389-3.625a10.678 10.678 0 01-1.251-3.02l-4.253-.875v-3.36l4.253-.873c.263-1.08.689-2.096 1.25-3.02L4.99 7.364 7.365 4.99l3.625 2.389c.925-.562 1.94-.988 3.02-1.251l.875-4.253h3.359z" fill="#FFE177"/><path fill-rule="evenodd" clip-rule="evenodd" d="M18.244 1.875l.874 4.253c1.08.263 2.096.689 3.02 1.25l-.64.447c-1.208-.81-2.244-1.346-3.686-1.697l-.874-4.253h1.306zm6.733 3.634l.787-.52 2.375 2.376-2.389 3.625c.562.925.988 1.94 1.251 3.02l4.253.875v3.359L27 19.118a10.683 10.683 0 01-1.251 3.02l2.39 3.626-2.376 2.375-.787-.519 1.856-1.856-2.389-3.625a10.72 10.72 0 001.252-3.02l4.252-.875v-3.36l-4.253-.873a10.68 10.68 0 00-1.25-3.02l2.388-3.626-1.856-1.856zm-6.733 25.745L19.118 27c1.08-.263 2.096-.69 3.02-1.251l-.64-.446c-1.208.81-2.244 1.346-3.686 1.697l-.874 4.253h1.306zM10.99 25.75l-3.625 2.39-.519-.52 3.437-2.264c.23.14.466.271.707.394zM6.846 5.509l.519-.52 3.625 2.39c-.24.123-.477.254-.707.394L6.846 5.51z" fill="#FFD064"/><path d="M21.712 21.716A7.285 7.285 0 1011.41 11.413a7.285 7.285 0 0010.302 10.303z" fill="#FFD064"/><path fill-rule="evenodd" clip-rule="evenodd" d="M16.564 9.278c.198 0 .393.009.586.024a7.287 7.287 0 000 14.525 7.286 7.286 0 11-.586-14.548z" fill="#FFC338"/><path fill-rule="evenodd" clip-rule="evenodd" d="M19.586 13.976a.937.937 0 01-1.729.725 1.264 1.264 0 00-.874-.752 1.658 1.658 0 00-.73-.018 1.349 1.349 0 00-.584.262.716.716 0 00-.277.604c.01.219.128.37.292.478.273.178.663.279 1.037.34.603.1 1.264.266 1.823.604.67.404 1.174 1.013 1.288 1.95.008.07.014.155.016.257.02.868-.373 1.513-.966 1.963a3.57 3.57 0 01-1.38.613v.199a.937.937 0 11-1.875 0v-.218a3.458 3.458 0 01-1.079-.47 2.922 2.922 0 01-1.242-1.754.935.935 0 011.816-.447c.07.28.238.494.46.64.291.195.67.288 1.056.279.06-.002.14-.009.24-.02.33-.04.655-.141.876-.31a.517.517 0 00.218-.511c-.032-.263-.187-.442-.394-.567-.317-.191-.749-.295-1.157-.362-.586-.096-1.225-.273-1.755-.619-.638-.416-1.097-1.034-1.141-1.957-.045-.91.347-1.64.965-2.142a3.168 3.168 0 011.137-.58v-.235a.938.938 0 011.875 0v.222a3.1 3.1 0 012.084 1.826z" fill="#FFE177"/></g><defs><clipPath id="clip0_17_486"><path fill="#fff" d="M0 0h60v60H0z"/></clipPath></defs></svg>