<svg width="387" height="439" fill="none" xmlns="http://www.w3.org/2000/svg"><path opacity=".31" d="M368.067 302.669l-21.191 13.182-38.561-11.448 44.293-7.458 15.459 5.724zm-6.08 17.692l-40.645 20.467-28.139-32.782 68.784 12.315z" fill="#39485D"/><path d="M273.575 51.514l-2.432-5.723 5.037-11.795 11.117-.694 3.127 11.275-1.911 5.723-8.511 4.51-6.427-3.296z" fill="#FBCF5B"/><path d="M290.424 44.577L276.18 33.996l11.117-.694 3.127 11.275z" fill="#FEE7AD"/><path d="M280.002 54.81l10.422-10.234-1.911 5.724-8.511 4.51zm-8.859-9.02l5.037-11.794 6.254 12.662-2.432 8.152-8.859-9.02z" fill="#F5B646"/><path d="M273.575 51.514l-2.432-5.723 8.859 9.019-6.427-3.296z" fill="#EC9945"/><path opacity=".31" d="M85.807 281.161l-42.556 70.421 13.201 28.966-42.382 31.567L0 425.297l33.524 10.581 41.861-20.467 25.36-16.478 40.472 9.193 44.467-25.497 68.437-3.296 71.216-29.833-82.854-49.259-156.676-19.08z" fill="#39485D"/><path d="M85.807 281.161l40.645-31.568 9.901 40.414-50.546-8.846z" fill="#ABAEB2"/><path d="M126.452 249.593l35.956-9.539 3.821 62.441-29.876-12.488-9.901-40.414z" fill="#BABDC0"/><path d="M169.182 227.565l-42.73 22.028 35.956-9.539 6.774-12.489z" fill="#C8CBCF"/><path d="M166.229 302.495l14.07 10.407 28.66-2.254-21.365-61.055-25.186-9.539 3.821 62.441z" fill="#BDBFC3"/><path d="M169.182 227.565h16.502l-5.385-9.192 26.055 5.376 28.312-10.233-11.116 26.538-35.956 9.539-25.186-9.539 6.774-12.489z" fill="#E0E3E5"/><path d="M208.959 310.648l14.591 15.437 11.117-41.281-47.073-35.211 21.365 61.055z" fill="#ABAEB2"/><path d="M223.55 240.054l13.722 15.437 29.876 6.591-32.481 22.722-47.073-35.211 35.956-9.539z" fill="#DBDEE0"/><path d="M223.55 326.085l27.27 14.743v-50.821l-16.153-5.203-11.117 41.281z" fill="#BABDC0"/><path d="M250.82 290.007l9.38-2.081 12.506 6.244 9.728-4.163 6.079-8.152-21.365-19.773-32.481 22.895 16.153 5.03z" fill="#DBDEE0"/><path d="M180.299 312.902v-28.098l-14.07 35.557 14.07-7.459z" fill="#ABAEB2"/><path d="M166.229 320.361l-13.722-3.122 27.792-32.435-14.07 35.557z" fill="#BABDC0"/><path d="M137.917 268.846l-16.849 9.367-3.127 24.456 18.412-12.662 1.564-21.161z" fill="#ABAEB2"/><path d="M100.745 297.986l7.122 6.417 10.074-1.734 3.127-24.456-5.732-2.082-2.432-4.856-12.159 26.711z" fill="#BABDC0"/><path d="M116.725 269.887l-3.821 1.388 2.432 4.856 5.732 2.082 16.849-9.367-6.948-.52-14.244 1.561z" fill="#D3D6D8"/><path d="M180.299 218.373l-5.037 9.192h10.422l-5.385-9.192z" fill="#ABAEB2"/><path d="M260.2 287.926l6.948 29.139-6.948 3.296-3.648 20.467h-5.732v-50.821l9.38-2.081z" fill="#C0C2C6"/><path d="M272.706 294.17v26.191l-5.558-3.296-6.948-29.139 12.506 6.244z" fill="#ABAEB2"/><path d="M267.148 317.065l-6.948 3.296 17.544 15.263-5.038-15.263-5.558-3.296z" fill="#D3D6D8"/><path d="M260.2 320.361l-3.648 20.467-2.431 10.233 7.469 6.765h21.365l-5.211-22.202-17.544-15.263z" fill="#ABAEB2"/><path d="M282.434 290.007l15.111 28.619-12.332 1.735-9.033 10.407-3.474-10.407V294.17l9.728-4.163z" fill="#BABDC0"/><path d="M288.513 281.855l12.333 8.152 5.732 27.058-9.033 1.561-15.111-28.619 6.079-8.152z" fill="#C0C2C6"/><path d="M285.213 320.361l-9.033 10.407 1.564 4.856 1.737 7.459 14.938-9.02 25.012 2.602-12.853-19.6-9.033 1.561-12.332 1.735z" fill="#CED1D3"/><path d="M294.419 334.063l6.427 13.876 10.422-1.734 14.069 3.295-5.906-12.835-25.012-2.602z" fill="#ABAEB2"/><path d="M281.565 351.582h11.464l7.817-3.643-6.427-13.876-14.938 9.02 2.084 8.499zm19.281-61.575l25.881 12.488 4.516 21.161-18.76 2.429-5.905-9.02-5.732-27.058z" fill="#BABDC0"/><path d="M337.322 310.301l-6.079 13.355-4.516-21.161 10.595 7.806z" fill="#D3D6D8"/><path d="M223.55 240.054l11.117-26.538 5.037-15.264 9.727 18.56-12.159 38.679-13.722-15.437z" fill="#ABAEB2"/><path d="M267.148 262.082l-2.258-20.814 5.906-16.304-21.365-8.152-12.159 38.679 29.876 6.591z" fill="#BDBFC3"/><path d="M309.878 210.22l-3.3 8.153-12.159-1.561 6.427 6.07-12.333-.867-17.717 2.949-21.365-8.152-9.727-18.56 21.886-8.499 35.955-2.775 27.792 11.274-15.459 11.968z" fill="#E0E3E5"/><path d="M300.846 222.882l4.342 35.557 12.159 11.448 6.253 31.047-22.754-10.927-12.333-8.152 4.69-30.874-4.69-28.966 12.333.867z" fill="#CED1D3"/><path d="M270.796 224.964l17.717-2.949 4.69 28.966-4.69 30.874-21.365-19.773-2.258-20.814 5.906-16.304zm35.782-6.591l6.253 18.385-1.564 18.733h-6.426l-3.995-32.609-6.427-6.07 12.159 1.561z" fill="#ABAEB2"/><path d="M304.841 255.491h6.427l10.595-3.469h6.427l5.037-5.898 11.812 9.367h9.901l-19.802 4.856 12.333 3.643-30.224 5.897-12.159-11.448-.347-2.948z" fill="#E0E3E5"/><path d="M321.863 252.022v-24.457l-11.985-17.345-3.3 8.153 6.253 18.385-1.564 18.733 10.596-3.469z" fill="#DDE0E2"/><path d="M325.337 198.252l6.601 23.763 1.389 24.109-5.037 5.898h-6.427v-24.457l-11.985-17.345 15.459-11.968z" fill="#D8DBDD"/><path d="M347.57 263.99l-5.384 17.865 5.732 2.949 14.069 35.557-27.097-4.683 2.432-5.377-10.595-7.806-3.127-1.561-6.253-31.047 30.223-5.897z" fill="#ABAEB2"/><path d="M355.04 255.491v27.405l13.027 19.773h-13.201l-6.948-17.865-5.732-2.949 5.385-17.865-12.333-3.643 19.802-4.856z" fill="#DBDEE0"/><g opacity=".35"><path d="M85.807 281.161l40.645-31.568 9.901 40.414-50.546-8.846z" fill="url(#paint0_radial_45_112)"/><path d="M126.452 249.593l35.956-9.539 3.821 62.441-29.876-12.488-9.901-40.414z" fill="url(#paint1_radial_45_112)"/><path d="M169.182 227.565l-42.73 22.028 35.956-9.539 6.774-12.489z" fill="url(#paint2_radial_45_112)"/><path d="M166.229 302.495l14.07 10.407 28.66-2.254-21.365-61.055-25.186-9.539 3.821 62.441z" fill="url(#paint3_radial_45_112)"/><path d="M169.182 227.565h16.502l-5.385-9.192 26.055 5.376 28.312-10.233-11.116 26.538-35.956 9.539-25.186-9.539 6.774-12.489z" fill="url(#paint4_radial_45_112)"/><path d="M208.959 310.648l14.591 15.437 11.117-41.281-47.073-35.211 21.365 61.055z" fill="url(#paint5_radial_45_112)"/><path d="M223.55 240.054l13.722 15.437 29.876 6.591-32.481 22.722-47.073-35.211 35.956-9.539z" fill="url(#paint6_radial_45_112)"/><path d="M223.55 326.085l27.27 14.743v-50.821l-16.153-5.203-11.117 41.281z" fill="url(#paint7_radial_45_112)"/><path d="M250.82 290.007l9.38-2.081 12.506 6.244 9.728-4.163 6.079-8.152-21.365-19.773-32.481 22.895 16.153 5.03z" fill="url(#paint8_radial_45_112)"/><path d="M180.299 312.902v-28.098l-14.07 35.557 14.07-7.459z" fill="url(#paint9_radial_45_112)"/><path d="M166.229 320.361l-13.722-3.122 27.792-32.435-14.07 35.557z" fill="url(#paint10_radial_45_112)"/><path d="M137.917 268.846l-16.849 9.367-3.127 24.456 18.412-12.662 1.564-21.161z" fill="url(#paint11_radial_45_112)"/><path d="M100.745 297.986l7.122 6.417 10.074-1.734 3.127-24.456-5.732-2.082-2.432-4.856-12.159 26.711z" fill="url(#paint12_radial_45_112)"/><path d="M116.725 269.887l-3.821 1.388 2.432 4.856 5.732 2.082 16.849-9.367-6.948-.52-14.244 1.561z" fill="url(#paint13_radial_45_112)"/><path d="M180.299 218.373l-5.037 9.192h10.422l-5.385-9.192z" fill="url(#paint14_radial_45_112)"/><path d="M260.2 287.926l6.948 29.139-6.948 3.296-3.648 20.467h-5.732v-50.821l9.38-2.081z" fill="url(#paint15_radial_45_112)"/><path d="M272.706 294.17v26.191l-5.558-3.296-6.948-29.139 12.506 6.244z" fill="url(#paint16_radial_45_112)"/><path d="M267.148 317.065l-6.948 3.296 17.544 15.263-5.038-15.263-5.558-3.296z" fill="url(#paint17_radial_45_112)"/><path d="M260.2 320.361l-3.648 20.467-2.431 10.233 7.469 6.765h21.365l-5.211-22.202-17.544-15.263z" fill="url(#paint18_radial_45_112)"/><path d="M282.434 290.007l15.111 28.619-12.332 1.735-9.033 10.407-3.474-10.407V294.17l9.728-4.163z" fill="url(#paint19_radial_45_112)"/><path d="M288.513 281.855l12.333 8.152 5.732 27.058-9.033 1.561-15.111-28.619 6.079-8.152z" fill="url(#paint20_radial_45_112)"/><path d="M285.213 320.361l-9.033 10.407 1.564 4.856 1.737 7.459 14.938-9.02 25.012 2.602-12.853-19.6-9.033 1.561-12.332 1.735z" fill="url(#paint21_radial_45_112)"/><path d="M294.419 334.063l6.427 13.876 10.422-1.734 14.069 3.295-5.906-12.835-25.012-2.602z" fill="url(#paint22_radial_45_112)"/><path d="M281.565 351.582h11.464l7.817-3.643-6.427-13.876-14.938 9.02 2.084 8.499z" fill="url(#paint23_radial_45_112)"/><path d="M300.846 290.007l25.881 12.488 4.516 21.161-18.76 2.429-5.905-9.02-5.732-27.058z" fill="url(#paint24_radial_45_112)"/><path d="M337.322 310.301l-6.079 13.355-4.516-21.161 10.595 7.806z" fill="url(#paint25_radial_45_112)"/><path d="M223.55 240.054l11.117-26.538 5.037-15.264 9.727 18.56-12.159 38.679-13.722-15.437z" fill="url(#paint26_radial_45_112)"/><path d="M267.148 262.082l-2.258-20.814 5.906-16.304-21.365-8.152-12.159 38.679 29.876 6.591z" fill="url(#paint27_radial_45_112)"/><path d="M309.878 210.22l-3.3 8.153-12.159-1.561 6.427 6.07-12.333-.867-17.717 2.949-21.365-8.152-9.727-18.56 21.886-8.499 35.955-2.775 27.792 11.274-15.459 11.968z" fill="url(#paint28_radial_45_112)"/><path d="M300.846 222.882l4.342 35.557 12.159 11.448 6.253 31.047-22.754-10.927-12.333-8.152 4.69-30.874-4.69-28.966 12.333.867z" fill="url(#paint29_radial_45_112)"/><path d="M270.796 224.964l17.717-2.949 4.69 28.966-4.69 30.874-21.365-19.773-2.258-20.814 5.906-16.304z" fill="url(#paint30_radial_45_112)"/><path d="M306.578 218.373l6.253 18.385-1.564 18.733h-6.426l-3.995-32.609-6.427-6.07 12.159 1.561z" fill="url(#paint31_radial_45_112)"/><path d="M304.841 255.491h6.427l10.595-3.469h6.427l5.037-5.898 11.812 9.367h9.901l-19.802 4.856 12.333 3.643-30.224 5.897-12.159-11.448-.347-2.948z" fill="url(#paint32_radial_45_112)"/><path d="M321.863 252.022v-24.457l-11.985-17.345-3.3 8.153 6.253 18.385-1.564 18.733 10.596-3.469z" fill="url(#paint33_radial_45_112)"/><path d="M325.337 198.252l6.601 23.763 1.389 24.109-5.037 5.898h-6.427v-24.457l-11.985-17.345 15.459-11.968z" fill="url(#paint34_radial_45_112)"/><path d="M347.57 263.99l-5.384 17.865 5.732 2.949 14.069 35.557-27.097-4.683 2.432-5.377-10.595-7.806-3.127-1.561-6.253-31.047 30.223-5.897z" fill="url(#paint35_radial_45_112)"/><path d="M355.04 255.491v27.405l13.027 19.773h-13.201l-6.948-17.865-5.732-2.949 5.385-17.865-12.333-3.643 19.802-4.856z" fill="url(#paint36_radial_45_112)"/></g><path d="M257.942 206.058l17.37 2.775h15.285l17.718-4.51-9.901-119.68 9.901-6.59 7.295-9.02-3.648-8.326-12.332 5.377-35.956.867-10.769-6.244-5.211 11.274 8.337 7.459 8.859 5.203-6.948 121.415z" fill="#EDF5FD"/><path d="M252.905 60.707l11.464-2.775h32.482l15.111 2.775-12.332 5.377-35.956.867-10.769-6.244z" fill="#C2C5C7"/><path d="M264.89 84.643l17.717 1.388-18.064 3.99.347-5.378z" fill="#CED1D3"/><path d="M247.694 71.981l18.065 9.714 25.012 1.214 17.544-4.857-9.901 6.591-15.807 1.388-17.717-1.388-8.859-5.203-8.337-7.459z" fill="#E3E6E9"/><path d="M275.312 208.833l-3.995-114.477 11.29-8.325-18.064 3.99-6.601 116.037 17.37 2.775z" fill="#E5EDF4"/><path d="M261.59 27.578l17.717 2.776 22.06-3.122-5.211-9.02-15.633-4.163-11.117 2.949-7.816 10.58z" fill="#E16466"/><path d="M280.523 14.05l-2.432 9.886 1.216 6.418-17.717-2.776 7.816-10.58 11.117-2.949z" fill="#D15D5F"/><path d="M279.307 30.354l-17.717-2.776v34.864l18.759 1.734-1.042-33.822zM262.111 50.3V31.741l16.675 2.602.521 17.692-17.196-1.735z" fill="#E5EDF4"/><path d="M279.307 30.354l.868 33.996 21.192-1.735V27.231l-22.06 3.123zm21.191 17.345l-19.975 4.336V34.343l19.975-3.122v16.478z" fill="#EDF5FD"/><path d="M276.18 15.264l.695-11.448L281.565 0l2.606 4.683v10.234l-3.648-.868-4.343 1.215z" fill="#E16466"/><path d="M281.565 0l-1.042 4.683 1.042 9.54-1.042-.174-4.343 1.215.695-11.448L281.565 0z" fill="#D15D5F"/><path d="M288.513 208.833l-1.911-15.784-5.037-2.949-5.037 5.204v13.529h11.985z" fill="#C8CBCF"/><path d="M286.602 208.833l-1.389-14.917-4.69-2.775 1.042-1.041 5.037 2.949 1.911 15.784h-1.911zm-7.816-48.219l2.779-1.561 2.779 1.561v3.122l-2.779 1.735-2.779-1.735v-3.122zm0-24.283l2.779-1.561 2.606 1.561v3.122l-2.606 1.561-2.779-1.561v-3.122zm0-25.323l2.779-1.562 2.606 1.562v3.295l-2.606 1.561-2.779-1.561v-3.295z" fill="#717C8C"/><path opacity=".3" d="M308.315 204.323l-37.519 20.641-17.891 33.996-25.534 20.467-14.938 34.863-3.474-3.642-28.66 2.254-14.07 7.459-13.722-3.122 12.854-15.09-14.591-6.071 36.824-46.485 36.998-9.539 21.365-29.834 11.985-4.162 17.37 2.775h15.285l17.718-4.51z" fill="#717C8C"/><defs><radialGradient id="paint0_radial_45_112" cx="0" cy="0" r="1" gradientUnits="userSpaceOnUse" gradientTransform="matrix(281.187 0 0 280.783 323.208 192.945)"><stop stop-color="#fff"/><stop offset=".112" stop-color="#F8F8F8"/><stop offset=".243" stop-color="#E5E3E3"/><stop offset=".384" stop-color="#C5C2C2"/><stop offset=".532" stop-color="#9E9998"/><stop offset=".685" stop-color="#706B68"/><stop offset=".843" stop-color="#403C39"/><stop offset="1" stop-color="#12100B"/></radialGradient><radialGradient id="paint1_radial_45_112" cx="0" cy="0" r="1" gradientUnits="userSpaceOnUse" gradientTransform="matrix(281.187 0 0 280.783 323.208 192.945)"><stop stop-color="#fff"/><stop offset=".112" stop-color="#F8F8F8"/><stop offset=".243" stop-color="#E5E3E3"/><stop offset=".384" stop-color="#C5C2C2"/><stop offset=".532" stop-color="#9E9998"/><stop offset=".685" stop-color="#706B68"/><stop offset=".843" stop-color="#403C39"/><stop offset="1" stop-color="#12100B"/></radialGradient><radialGradient id="paint2_radial_45_112" cx="0" cy="0" r="1" gradientUnits="userSpaceOnUse" gradientTransform="matrix(281.187 0 0 280.783 323.208 192.945)"><stop stop-color="#fff"/><stop offset=".112" stop-color="#F8F8F8"/><stop offset=".243" stop-color="#E5E3E3"/><stop offset=".384" stop-color="#C5C2C2"/><stop offset=".532" stop-color="#9E9998"/><stop offset=".685" stop-color="#706B68"/><stop offset=".843" stop-color="#403C39"/><stop offset="1" stop-color="#12100B"/></radialGradient><radialGradient id="paint3_radial_45_112" cx="0" cy="0" r="1" gradientUnits="userSpaceOnUse" gradientTransform="matrix(281.187 0 0 280.783 323.208 192.945)"><stop stop-color="#fff"/><stop offset=".112" stop-color="#F8F8F8"/><stop offset=".243" stop-color="#E5E3E3"/><stop offset=".384" stop-color="#C5C2C2"/><stop offset=".532" stop-color="#9E9998"/><stop offset=".685" stop-color="#706B68"/><stop offset=".843" stop-color="#403C39"/><stop offset="1" stop-color="#12100B"/></radialGradient><radialGradient id="paint4_radial_45_112" cx="0" cy="0" r="1" gradientUnits="userSpaceOnUse" gradientTransform="matrix(281.187 0 0 280.783 323.208 192.945)"><stop stop-color="#fff"/><stop offset=".112" stop-color="#F8F8F8"/><stop offset=".243" stop-color="#E5E3E3"/><stop offset=".384" stop-color="#C5C2C2"/><stop offset=".532" stop-color="#9E9998"/><stop offset=".685" stop-color="#706B68"/><stop offset=".843" stop-color="#403C39"/><stop offset="1" stop-color="#12100B"/></radialGradient><radialGradient id="paint5_radial_45_112" cx="0" cy="0" r="1" gradientUnits="userSpaceOnUse" gradientTransform="matrix(281.187 0 0 280.783 323.208 192.945)"><stop stop-color="#fff"/><stop offset=".112" stop-color="#F8F8F8"/><stop offset=".243" stop-color="#E5E3E3"/><stop offset=".384" stop-color="#C5C2C2"/><stop offset=".532" stop-color="#9E9998"/><stop offset=".685" stop-color="#706B68"/><stop offset=".843" stop-color="#403C39"/><stop offset="1" stop-color="#12100B"/></radialGradient><radialGradient id="paint6_radial_45_112" cx="0" cy="0" r="1" gradientUnits="userSpaceOnUse" gradientTransform="matrix(281.187 0 0 280.783 323.208 192.945)"><stop stop-color="#fff"/><stop offset=".112" stop-color="#F8F8F8"/><stop offset=".243" stop-color="#E5E3E3"/><stop offset=".384" stop-color="#C5C2C2"/><stop offset=".532" stop-color="#9E9998"/><stop offset=".685" stop-color="#706B68"/><stop offset=".843" stop-color="#403C39"/><stop offset="1" stop-color="#12100B"/></radialGradient><radialGradient id="paint7_radial_45_112" cx="0" cy="0" r="1" gradientUnits="userSpaceOnUse" gradientTransform="matrix(281.187 0 0 280.783 323.208 192.945)"><stop stop-color="#fff"/><stop offset=".112" stop-color="#F8F8F8"/><stop offset=".243" stop-color="#E5E3E3"/><stop offset=".384" stop-color="#C5C2C2"/><stop offset=".532" stop-color="#9E9998"/><stop offset=".685" stop-color="#706B68"/><stop offset=".843" stop-color="#403C39"/><stop offset="1" stop-color="#12100B"/></radialGradient><radialGradient id="paint8_radial_45_112" cx="0" cy="0" r="1" gradientUnits="userSpaceOnUse" gradientTransform="matrix(281.187 0 0 280.783 323.208 192.945)"><stop stop-color="#fff"/><stop offset=".112" stop-color="#F8F8F8"/><stop offset=".243" stop-color="#E5E3E3"/><stop offset=".384" stop-color="#C5C2C2"/><stop offset=".532" stop-color="#9E9998"/><stop offset=".685" stop-color="#706B68"/><stop offset=".843" stop-color="#403C39"/><stop offset="1" stop-color="#12100B"/></radialGradient><radialGradient id="paint9_radial_45_112" cx="0" cy="0" r="1" gradientUnits="userSpaceOnUse" gradientTransform="matrix(281.187 0 0 280.783 323.208 192.945)"><stop stop-color="#fff"/><stop offset=".112" stop-color="#F8F8F8"/><stop offset=".243" stop-color="#E5E3E3"/><stop offset=".384" stop-color="#C5C2C2"/><stop offset=".532" stop-color="#9E9998"/><stop offset=".685" stop-color="#706B68"/><stop offset=".843" stop-color="#403C39"/><stop offset="1" stop-color="#12100B"/></radialGradient><radialGradient id="paint10_radial_45_112" cx="0" cy="0" r="1" gradientUnits="userSpaceOnUse" gradientTransform="matrix(281.187 0 0 280.783 323.208 192.945)"><stop stop-color="#fff"/><stop offset=".112" stop-color="#F8F8F8"/><stop offset=".243" stop-color="#E5E3E3"/><stop offset=".384" stop-color="#C5C2C2"/><stop offset=".532" stop-color="#9E9998"/><stop offset=".685" stop-color="#706B68"/><stop offset=".843" stop-color="#403C39"/><stop offset="1" stop-color="#12100B"/></radialGradient><radialGradient id="paint11_radial_45_112" cx="0" cy="0" r="1" gradientUnits="userSpaceOnUse" gradientTransform="matrix(281.187 0 0 280.783 323.208 192.945)"><stop stop-color="#fff"/><stop offset=".112" stop-color="#F8F8F8"/><stop offset=".243" stop-color="#E5E3E3"/><stop offset=".384" stop-color="#C5C2C2"/><stop offset=".532" stop-color="#9E9998"/><stop offset=".685" stop-color="#706B68"/><stop offset=".843" stop-color="#403C39"/><stop offset="1" stop-color="#12100B"/></radialGradient><radialGradient id="paint12_radial_45_112" cx="0" cy="0" r="1" gradientUnits="userSpaceOnUse" gradientTransform="matrix(281.187 0 0 280.783 323.208 192.945)"><stop stop-color="#fff"/><stop offset=".112" stop-color="#F8F8F8"/><stop offset=".243" stop-color="#E5E3E3"/><stop offset=".384" stop-color="#C5C2C2"/><stop offset=".532" stop-color="#9E9998"/><stop offset=".685" stop-color="#706B68"/><stop offset=".843" stop-color="#403C39"/><stop offset="1" stop-color="#12100B"/></radialGradient><radialGradient id="paint13_radial_45_112" cx="0" cy="0" r="1" gradientUnits="userSpaceOnUse" gradientTransform="matrix(281.187 0 0 280.783 323.208 192.945)"><stop stop-color="#fff"/><stop offset=".112" stop-color="#F8F8F8"/><stop offset=".243" stop-color="#E5E3E3"/><stop offset=".384" stop-color="#C5C2C2"/><stop offset=".532" stop-color="#9E9998"/><stop offset=".685" stop-color="#706B68"/><stop offset=".843" stop-color="#403C39"/><stop offset="1" stop-color="#12100B"/></radialGradient><radialGradient id="paint14_radial_45_112" cx="0" cy="0" r="1" gradientUnits="userSpaceOnUse" gradientTransform="matrix(281.187 0 0 280.783 323.208 192.945)"><stop stop-color="#fff"/><stop offset=".112" stop-color="#F8F8F8"/><stop offset=".243" stop-color="#E5E3E3"/><stop offset=".384" stop-color="#C5C2C2"/><stop offset=".532" stop-color="#9E9998"/><stop offset=".685" stop-color="#706B68"/><stop offset=".843" stop-color="#403C39"/><stop offset="1" stop-color="#12100B"/></radialGradient><radialGradient id="paint15_radial_45_112" cx="0" cy="0" r="1" gradientUnits="userSpaceOnUse" gradientTransform="matrix(281.187 0 0 280.783 323.208 192.945)"><stop stop-color="#fff"/><stop offset=".112" stop-color="#F8F8F8"/><stop offset=".243" stop-color="#E5E3E3"/><stop offset=".384" stop-color="#C5C2C2"/><stop offset=".532" stop-color="#9E9998"/><stop offset=".685" stop-color="#706B68"/><stop offset=".843" stop-color="#403C39"/><stop offset="1" stop-color="#12100B"/></radialGradient><radialGradient id="paint16_radial_45_112" cx="0" cy="0" r="1" gradientUnits="userSpaceOnUse" gradientTransform="matrix(281.187 0 0 280.783 323.208 192.945)"><stop stop-color="#fff"/><stop offset=".112" stop-color="#F8F8F8"/><stop offset=".243" stop-color="#E5E3E3"/><stop offset=".384" stop-color="#C5C2C2"/><stop offset=".532" stop-color="#9E9998"/><stop offset=".685" stop-color="#706B68"/><stop offset=".843" stop-color="#403C39"/><stop offset="1" stop-color="#12100B"/></radialGradient><radialGradient id="paint17_radial_45_112" cx="0" cy="0" r="1" gradientUnits="userSpaceOnUse" gradientTransform="matrix(281.186 0 0 280.783 323.208 192.945)"><stop stop-color="#fff"/><stop offset=".112" stop-color="#F8F8F8"/><stop offset=".243" stop-color="#E5E3E3"/><stop offset=".384" stop-color="#C5C2C2"/><stop offset=".532" stop-color="#9E9998"/><stop offset=".685" stop-color="#706B68"/><stop offset=".843" stop-color="#403C39"/><stop offset="1" stop-color="#12100B"/></radialGradient><radialGradient id="paint18_radial_45_112" cx="0" cy="0" r="1" gradientUnits="userSpaceOnUse" gradientTransform="matrix(281.187 0 0 280.783 323.208 192.945)"><stop stop-color="#fff"/><stop offset=".112" stop-color="#F8F8F8"/><stop offset=".243" stop-color="#E5E3E3"/><stop offset=".384" stop-color="#C5C2C2"/><stop offset=".532" stop-color="#9E9998"/><stop offset=".685" stop-color="#706B68"/><stop offset=".843" stop-color="#403C39"/><stop offset="1" stop-color="#12100B"/></radialGradient><radialGradient id="paint19_radial_45_112" cx="0" cy="0" r="1" gradientUnits="userSpaceOnUse" gradientTransform="matrix(281.187 0 0 280.783 323.208 192.945)"><stop stop-color="#fff"/><stop offset=".112" stop-color="#F8F8F8"/><stop offset=".243" stop-color="#E5E3E3"/><stop offset=".384" stop-color="#C5C2C2"/><stop offset=".532" stop-color="#9E9998"/><stop offset=".685" stop-color="#706B68"/><stop offset=".843" stop-color="#403C39"/><stop offset="1" stop-color="#12100B"/></radialGradient><radialGradient id="paint20_radial_45_112" cx="0" cy="0" r="1" gradientUnits="userSpaceOnUse" gradientTransform="matrix(281.187 0 0 280.783 323.208 192.945)"><stop stop-color="#fff"/><stop offset=".112" stop-color="#F8F8F8"/><stop offset=".243" stop-color="#E5E3E3"/><stop offset=".384" stop-color="#C5C2C2"/><stop offset=".532" stop-color="#9E9998"/><stop offset=".685" stop-color="#706B68"/><stop offset=".843" stop-color="#403C39"/><stop offset="1" stop-color="#12100B"/></radialGradient><radialGradient id="paint21_radial_45_112" cx="0" cy="0" r="1" gradientUnits="userSpaceOnUse" gradientTransform="matrix(281.187 0 0 280.783 323.208 192.945)"><stop stop-color="#fff"/><stop offset=".112" stop-color="#F8F8F8"/><stop offset=".243" stop-color="#E5E3E3"/><stop offset=".384" stop-color="#C5C2C2"/><stop offset=".532" stop-color="#9E9998"/><stop offset=".685" stop-color="#706B68"/><stop offset=".843" stop-color="#403C39"/><stop offset="1" stop-color="#12100B"/></radialGradient><radialGradient id="paint22_radial_45_112" cx="0" cy="0" r="1" gradientUnits="userSpaceOnUse" gradientTransform="matrix(281.187 0 0 280.783 323.208 192.946)"><stop stop-color="#fff"/><stop offset=".112" stop-color="#F8F8F8"/><stop offset=".243" stop-color="#E5E3E3"/><stop offset=".384" stop-color="#C5C2C2"/><stop offset=".532" stop-color="#9E9998"/><stop offset=".685" stop-color="#706B68"/><stop offset=".843" stop-color="#403C39"/><stop offset="1" stop-color="#12100B"/></radialGradient><radialGradient id="paint23_radial_45_112" cx="0" cy="0" r="1" gradientUnits="userSpaceOnUse" gradientTransform="matrix(281.187 0 0 280.783 323.208 192.946)"><stop stop-color="#fff"/><stop offset=".112" stop-color="#F8F8F8"/><stop offset=".243" stop-color="#E5E3E3"/><stop offset=".384" stop-color="#C5C2C2"/><stop offset=".532" stop-color="#9E9998"/><stop offset=".685" stop-color="#706B68"/><stop offset=".843" stop-color="#403C39"/><stop offset="1" stop-color="#12100B"/></radialGradient><radialGradient id="paint24_radial_45_112" cx="0" cy="0" r="1" gradientUnits="userSpaceOnUse" gradientTransform="matrix(281.187 0 0 280.783 323.208 192.945)"><stop stop-color="#fff"/><stop offset=".112" stop-color="#F8F8F8"/><stop offset=".243" stop-color="#E5E3E3"/><stop offset=".384" stop-color="#C5C2C2"/><stop offset=".532" stop-color="#9E9998"/><stop offset=".685" stop-color="#706B68"/><stop offset=".843" stop-color="#403C39"/><stop offset="1" stop-color="#12100B"/></radialGradient><radialGradient id="paint25_radial_45_112" cx="0" cy="0" r="1" gradientUnits="userSpaceOnUse" gradientTransform="matrix(281.186 0 0 280.784 323.208 192.945)"><stop stop-color="#fff"/><stop offset=".112" stop-color="#F8F8F8"/><stop offset=".243" stop-color="#E5E3E3"/><stop offset=".384" stop-color="#C5C2C2"/><stop offset=".532" stop-color="#9E9998"/><stop offset=".685" stop-color="#706B68"/><stop offset=".843" stop-color="#403C39"/><stop offset="1" stop-color="#12100B"/></radialGradient><radialGradient id="paint26_radial_45_112" cx="0" cy="0" r="1" gradientUnits="userSpaceOnUse" gradientTransform="matrix(281.187 0 0 280.783 323.208 192.945)"><stop stop-color="#fff"/><stop offset=".112" stop-color="#F8F8F8"/><stop offset=".243" stop-color="#E5E3E3"/><stop offset=".384" stop-color="#C5C2C2"/><stop offset=".532" stop-color="#9E9998"/><stop offset=".685" stop-color="#706B68"/><stop offset=".843" stop-color="#403C39"/><stop offset="1" stop-color="#12100B"/></radialGradient><radialGradient id="paint27_radial_45_112" cx="0" cy="0" r="1" gradientUnits="userSpaceOnUse" gradientTransform="matrix(281.187 0 0 280.784 323.208 192.945)"><stop stop-color="#fff"/><stop offset=".112" stop-color="#F8F8F8"/><stop offset=".243" stop-color="#E5E3E3"/><stop offset=".384" stop-color="#C5C2C2"/><stop offset=".532" stop-color="#9E9998"/><stop offset=".685" stop-color="#706B68"/><stop offset=".843" stop-color="#403C39"/><stop offset="1" stop-color="#12100B"/></radialGradient><radialGradient id="paint28_radial_45_112" cx="0" cy="0" r="1" gradientUnits="userSpaceOnUse" gradientTransform="matrix(281.187 0 0 280.783 323.208 192.945)"><stop stop-color="#fff"/><stop offset=".112" stop-color="#F8F8F8"/><stop offset=".243" stop-color="#E5E3E3"/><stop offset=".384" stop-color="#C5C2C2"/><stop offset=".532" stop-color="#9E9998"/><stop offset=".685" stop-color="#706B68"/><stop offset=".843" stop-color="#403C39"/><stop offset="1" stop-color="#12100B"/></radialGradient><radialGradient id="paint29_radial_45_112" cx="0" cy="0" r="1" gradientUnits="userSpaceOnUse" gradientTransform="matrix(281.187 0 0 280.783 323.208 192.945)"><stop stop-color="#fff"/><stop offset=".112" stop-color="#F8F8F8"/><stop offset=".243" stop-color="#E5E3E3"/><stop offset=".384" stop-color="#C5C2C2"/><stop offset=".532" stop-color="#9E9998"/><stop offset=".685" stop-color="#706B68"/><stop offset=".843" stop-color="#403C39"/><stop offset="1" stop-color="#12100B"/></radialGradient><radialGradient id="paint30_radial_45_112" cx="0" cy="0" r="1" gradientUnits="userSpaceOnUse" gradientTransform="matrix(281.187 0 0 280.783 323.208 192.945)"><stop stop-color="#fff"/><stop offset=".112" stop-color="#F8F8F8"/><stop offset=".243" stop-color="#E5E3E3"/><stop offset=".384" stop-color="#C5C2C2"/><stop offset=".532" stop-color="#9E9998"/><stop offset=".685" stop-color="#706B68"/><stop offset=".843" stop-color="#403C39"/><stop offset="1" stop-color="#12100B"/></radialGradient><radialGradient id="paint31_radial_45_112" cx="0" cy="0" r="1" gradientUnits="userSpaceOnUse" gradientTransform="matrix(281.187 0 0 280.783 323.208 192.945)"><stop stop-color="#fff"/><stop offset=".112" stop-color="#F8F8F8"/><stop offset=".243" stop-color="#E5E3E3"/><stop offset=".384" stop-color="#C5C2C2"/><stop offset=".532" stop-color="#9E9998"/><stop offset=".685" stop-color="#706B68"/><stop offset=".843" stop-color="#403C39"/><stop offset="1" stop-color="#12100B"/></radialGradient><radialGradient id="paint32_radial_45_112" cx="0" cy="0" r="1" gradientUnits="userSpaceOnUse" gradientTransform="matrix(281.187 0 0 280.784 323.208 192.945)"><stop stop-color="#fff"/><stop offset=".112" stop-color="#F8F8F8"/><stop offset=".243" stop-color="#E5E3E3"/><stop offset=".384" stop-color="#C5C2C2"/><stop offset=".532" stop-color="#9E9998"/><stop offset=".685" stop-color="#706B68"/><stop offset=".843" stop-color="#403C39"/><stop offset="1" stop-color="#12100B"/></radialGradient><radialGradient id="paint33_radial_45_112" cx="0" cy="0" r="1" gradientUnits="userSpaceOnUse" gradientTransform="matrix(281.187 0 0 280.784 323.208 192.945)"><stop stop-color="#fff"/><stop offset=".112" stop-color="#F8F8F8"/><stop offset=".243" stop-color="#E5E3E3"/><stop offset=".384" stop-color="#C5C2C2"/><stop offset=".532" stop-color="#9E9998"/><stop offset=".685" stop-color="#706B68"/><stop offset=".843" stop-color="#403C39"/><stop offset="1" stop-color="#12100B"/></radialGradient><radialGradient id="paint34_radial_45_112" cx="0" cy="0" r="1" gradientUnits="userSpaceOnUse" gradientTransform="matrix(281.187 0 0 280.783 323.208 192.945)"><stop stop-color="#fff"/><stop offset=".112" stop-color="#F8F8F8"/><stop offset=".243" stop-color="#E5E3E3"/><stop offset=".384" stop-color="#C5C2C2"/><stop offset=".532" stop-color="#9E9998"/><stop offset=".685" stop-color="#706B68"/><stop offset=".843" stop-color="#403C39"/><stop offset="1" stop-color="#12100B"/></radialGradient><radialGradient id="paint35_radial_45_112" cx="0" cy="0" r="1" gradientUnits="userSpaceOnUse" gradientTransform="matrix(281.187 0 0 280.783 323.208 192.945)"><stop stop-color="#fff"/><stop offset=".112" stop-color="#F8F8F8"/><stop offset=".243" stop-color="#E5E3E3"/><stop offset=".384" stop-color="#C5C2C2"/><stop offset=".532" stop-color="#9E9998"/><stop offset=".685" stop-color="#706B68"/><stop offset=".843" stop-color="#403C39"/><stop offset="1" stop-color="#12100B"/></radialGradient><radialGradient id="paint36_radial_45_112" cx="0" cy="0" r="1" gradientUnits="userSpaceOnUse" gradientTransform="matrix(281.187 0 0 280.783 323.208 192.945)"><stop stop-color="#fff"/><stop offset=".112" stop-color="#F8F8F8"/><stop offset=".243" stop-color="#E5E3E3"/><stop offset=".384" stop-color="#C5C2C2"/><stop offset=".532" stop-color="#9E9998"/><stop offset=".685" stop-color="#706B68"/><stop offset=".843" stop-color="#403C39"/><stop offset="1" stop-color="#12100B"/></radialGradient></defs></svg>