<?xml version="1.0" encoding="UTF-8"?>
<!DOCTYPE svg PUBLIC "-//W3C//DTD SVG 1.1//EN" "http://www.w3.org/Graphics/SVG/1.1/DTD/svg11.dtd">
<!-- Creator: CorelDRAW 2020 (64-Bit) -->
<svg xmlns="http://www.w3.org/2000/svg" xml:space="preserve" width="176.389mm" height="176.389mm" version="1.1" style="shape-rendering:geometricPrecision; text-rendering:geometricPrecision; image-rendering:optimizeQuality; fill-rule:evenodd; clip-rule:evenodd"
viewBox="0 0 17638.88 17638.88"
 xmlns:xlink="http://www.w3.org/1999/xlink"
 xmlns:xodm="http://www.corel.com/coreldraw/odm/2003">
 <defs>
  <style type="text/css">
   <![CDATA[
    .fil0 {fill:#087990}
    .fil1 {fill:#087990;fill-rule:nonzero}
   ]]>
  </style>
 </defs>
 <g id="Слой_x0020_1">
  <metadata id="CorelCorpID_0Corel-Layer"/>
  <path class="fil0" d="M8819.44 1356.83c-4121.49,0 -7462.61,3341.12 -7462.61,7462.61 0,4121.5 3341.12,7462.57 7462.61,7462.57 4121.5,0 7462.57,-3341.07 7462.57,-7462.57 0,-4121.49 -3341.07,-7462.61 -7462.57,-7462.61zm-8819.44 7462.61c0,-4870.85 3948.59,-8819.44 8819.44,-8819.44 4870.8,0 8819.44,3948.59 8819.44,8819.44 0,4870.8 -3948.64,8819.44 -8819.44,8819.44 -4870.85,0 -8819.44,-3948.64 -8819.44,-8819.44z"/>
  <path class="fil0" d="M8819.44 4975.07c374.65,0 678.39,303.73 678.39,678.42l0 3618.21c0,374.74 -303.74,678.48 -678.39,678.48 -374.65,0 -678.39,-303.74 -678.39,-678.48l0 -3618.21c0,-374.69 303.74,-678.42 678.39,-678.42z"/>
  <path class="fil1" d="M9723.96 11985.36c0,499.62 -404.99,904.61 -904.52,904.61 -499.53,0 -904.52,-404.99 -904.52,-904.61 0,-499.54 404.99,-904.53 904.52,-904.53 499.53,0 904.52,404.99 904.52,904.53z"/>
 </g>
</svg>
